<?xml version="1.0" encoding="utf-8"?>
<!-- Generator: Adobe Illustrator 27.5.0, SVG Export Plug-In . SVG Version: 6.00 Build 0)  -->
<svg version="1.1" id="life_style_working" xmlns="http://www.w3.org/2000/svg" xmlns:xlink="http://www.w3.org/1999/xlink" x="0px"
	 y="0px" viewBox="0 0 2600 1700" style="enable-background:new 0 0 2600 1700;" xml:space="preserve">
<rect id="BG" style=" fill:#e1e1e1; " width="2600" height="1700" />
<g id="staircase">
	<polygon style="fill:#FFFFFF;" points="666.621,1286.425 666.621,1371.16 592.705,1371.16 592.705,1454.555 516.16,1454.555 
		516.16,1542.741 954.969,1542.741 954.969,1459.346 954.969,1454.555 954.969,1374.611 954.969,1371.16 954.969,1286.425 	"/>
	<path style="fill:#371E17;" d="M794.349,1371.644H666.621c-0.267,0-0.483-0.217-0.483-0.483s0.216-0.483,0.483-0.483h127.728
		c0.267,0,0.483,0.217,0.483,0.483S794.616,1371.644,794.349,1371.644z"/>
	<path style="fill:#371E17;" d="M712.697,1455.038H592.705c-0.267,0-0.483-0.217-0.483-0.483s0.216-0.483,0.483-0.483h119.992
		c0.267,0,0.483,0.217,0.483,0.483S712.964,1455.038,712.697,1455.038z"/>
</g>
<g id="flower">
	<g>
		<g>
			<path style="fill:#FFFFFF;" d="M1587.058,1540.41h-473.462c-22.517,0-40.77-18.253-40.77-40.77V643.106
				c0-22.517,18.253-40.77,40.77-40.77h473.462c22.517,0,40.77,18.253,40.77,40.77v856.534
				C1627.828,1522.157,1609.575,1540.41,1587.058,1540.41z"/>
			<path style="fill:#e1e1e1;" d="M1583.133,1515.726h-465.612c-9.911,0-17.946-8.035-17.946-17.946V644.967
				c0-9.911,8.035-17.946,17.946-17.946h465.612c9.911,0,17.946,8.035,17.946,17.946v852.813
				C1601.079,1507.691,1593.045,1515.726,1583.133,1515.726z"/>
		</g>
		<circle style="fill:#FFFFFF;" cx="1566.647" cy="655.938" r="16.007"/>
	</g>
	<path style="fill:#7B8459;" d="M1333.153,1517.133c-0.694,0-1.299-0.514-1.393-1.221c-0.092-0.681-8.844-68.921,12.969-145.564
		c12.821-45.051,33.533-84.166,61.563-116.258c35.038-40.119,81.653-69.293,138.55-86.712
		c45.173-13.829,82.735-35.132,111.643-63.315c23.115-22.535,40.791-49.506,52.535-80.161
		c20.023-52.262,15.787-97.731,15.742-98.185c-0.077-0.773,0.487-1.463,1.261-1.54c0.774-0.079,1.463,0.486,1.54,1.261
		c0.046,0.458,4.351,46.489-15.87,99.356c-11.882,31.061-29.775,58.39-53.186,81.229c-29.241,28.527-67.207,50.076-112.842,64.047
		c-56.366,17.257-102.533,46.134-137.217,85.828c-27.753,31.763-48.271,70.498-60.986,115.128
		c-21.678,76.093-13.003,143.838-12.913,144.513c0.103,0.771-0.438,1.479-1.208,1.581
		C1333.278,1517.129,1333.215,1517.133,1333.153,1517.133z"/>
	<g>
		<path style="fill:#FEC339;" d="M1802.969,928.97c3.318-2.881,5.418-7.126,5.418-11.864c0-8.312-6.456-15.112-14.627-15.67
			c5.636-6.165,5.473-15.734-0.493-21.7c-3.351-3.351-7.838-4.867-12.221-4.558c0.309-4.383-1.208-8.87-4.558-12.221
			c-6.136-6.136-16.084-6.136-22.219,0c-0.035,0.035-0.068,0.072-0.103,0.108c0.004-0.136,0.008-0.271,0.008-0.408
			c0-8.677-7.034-15.712-15.711-15.712c-4.739,0-8.984,2.101-11.864,5.418c-2.881-3.317-7.126-5.418-11.864-5.418
			c-8.038,0-14.662,6.038-15.595,13.824c-6.155-5.858-15.891-5.77-21.933,0.272c-3.351,3.351-4.867,7.838-4.558,12.221
			c-4.383-0.309-8.87,1.208-12.221,4.558c-6.136,6.136-6.136,16.084,0,22.22c0.032,0.032,0.066,0.062,0.099,0.094
			c-0.002,0-0.003,0-0.005,0c-8.677,0-15.712,7.034-15.712,15.711c0,4.739,2.101,8.984,5.418,11.864
			c-3.317,2.881-5.418,7.126-5.418,11.864c0,8.562,6.849,15.519,15.366,15.703c-0.082,0.079-0.165,0.155-0.246,0.236
			c-6.136,6.136-6.136,16.084,0,22.219c3.351,3.351,7.838,4.867,12.221,4.558c-0.309,4.383,1.208,8.87,4.558,12.22
			c5.767,5.767,14.901,6.112,21.072,1.039c0.386,8.334,7.263,14.973,15.693,14.973c4.739,0,8.984-2.101,11.864-5.418
			c2.881,3.317,7.126,5.418,11.864,5.418c8.677,0,15.712-7.034,15.712-15.711c0-0.173-0.006-0.346-0.012-0.518
			c0.027,0.028,0.053,0.057,0.081,0.085c6.136,6.136,16.084,6.136,22.219,0c3.351-3.351,4.867-7.838,4.558-12.221
			c4.383,0.309,8.87-1.208,12.221-4.558c5.764-5.764,6.112-14.891,1.047-21.063c8.513-0.189,15.358-7.144,15.358-15.703
			C1808.387,936.096,1806.286,931.851,1802.969,928.97z M1725.266,928.976l0.393-0.168l-0.009,0.02L1725.266,928.976z
			 M1725.344,927.431l0.04,0.094l-1.813-0.805L1725.344,927.431z M1726.492,929.161l2.502,6.498l-2.635-6.167L1726.492,929.161z
			 M1729.227,922.016l-2.364,5.892l-0.214-0.086L1729.227,922.016z"/>
		
			<ellipse transform="matrix(0.2298 -0.9732 0.9732 0.2298 426.0174 2395.7634)" style="fill:#FFFFFF;" cx="1726.598" cy="928.733" rx="20.409" ry="20.409"/>
	</g>
	<path style="fill:#7B8459;" d="M1232.704,1517.133c-0.296,0-0.595-0.093-0.849-0.285c-0.62-0.47-0.742-1.353-0.273-1.972
		c0.603-0.796,60.801-80.817,107.878-190.053c27.631-64.113,45.401-125.596,52.817-182.738c9.26-71.343,2.313-136.079-20.65-192.412
		c-21.123-51.817-53.111-92.945-100.668-129.432c-42.038-32.251-89.512-55.835-139.774-80.804
		c-115.082-57.169-234.082-116.285-280.822-285.721c-0.207-0.749,0.233-1.524,0.982-1.73c0.747-0.205,1.524,0.232,1.731,0.982
		c46.406,168.223,164.833,227.055,279.362,283.949c48.17,23.93,97.98,48.674,140.235,81.092
		c47.313,36.299,80.534,79.019,101.56,130.602c23.153,56.798,30.162,122.025,20.832,193.869
		c-7.455,57.41-25.302,119.152-53.044,183.514c-47.215,109.535-107.59,189.784-108.194,190.582
		C1233.55,1516.941,1233.129,1517.133,1232.704,1517.133z"/>
	<g>
		<path style="fill:#7B8459;" d="M1370.291,938.946c0,0-1.248-1.837-3.108-5.372c-1.858-3.536-4.333-8.78-6.753-15.639
			c-4.593-13.601-8.948-33.837-6.364-58.698c0.72-6.172,1.742-12.673,3.313-19.38c0.825-3.336,1.761-6.735,2.817-10.19
			c0.528-1.727,1.086-3.469,1.674-5.223c0.601-1.749,1.279-3.489,1.964-5.252c1.382-3.522,2.894-7.09,4.542-10.697
			c1.666-3.598,3.582-7.179,5.583-10.817c1.008-1.816,2.051-3.638,3.133-5.466c1.075-1.831,2.273-3.623,3.463-5.443
			c2.405-3.627,4.948-7.279,7.678-10.919c11.089-14.46,25.263-28.727,42.976-41.646c17.7-12.905,38.968-24.453,63.856-33.116
			c0,0,0,2.867-0.285,7.886c-0.268,5.029-0.906,12.125-1.785,20.819c-0.234,2.163-0.499,4.413-0.8,6.738
			c-0.307,2.331-0.626,4.747-0.954,7.238c-0.653,5.007-1.497,10.25-2.473,15.715c-0.899,5.519-2.02,11.196-3.325,17.012
			c-0.608,2.938-1.275,5.901-2.009,8.882c-0.712,2.994-1.582,5.947-2.355,9.017c-0.806,3.049-1.683,6.107-2.641,9.167
			c-0.494,1.525-0.99,3.057-1.489,4.596c-0.484,1.552-0.989,3.103-1.516,4.653c-1.054,3.101-2.195,6.197-3.433,9.282
			c-1.196,3.109-2.427,6.241-3.797,9.34c-2.798,6.167-5.666,12.454-9.165,18.577c-1.715,3.079-3.444,6.189-5.366,9.244
			c-0.954,1.531-1.941,3.056-2.963,4.574c-1.023,1.518-2.003,3.065-3.061,4.585c-2.096,3.051-4.336,6.074-6.729,9.07
			c-2.312,3.031-4.761,6.041-7.383,9.019c-1.301,1.493-2.682,2.965-4.034,4.457c-1.347,1.495-2.736,2.982-4.169,4.463
			c-2.844,2.97-5.957,5.879-9.083,8.825C1403.571,915.979,1388.571,927.515,1370.291,938.946z"/>
	</g>
	<g>
		<path style="fill:#7B8459;" d="M1388.302,1157.741c0,0-2.256,0.99-6.447,2.398c-4.189,1.412-10.296,3.239-17.927,4.963
			c-15.472,3.908-36.858,7.467-62.721,8.664c-3.252,0.209-6.569,0.347-9.952,0.402c-1.691,0.028-3.399,0.035-5.123,0.02
			c-1.727-0.001-3.457-0.093-5.235-0.047c-3.544,0.025-7.154-0.041-10.835-0.208c-1.84-0.084-3.698-0.193-5.573-0.329
			c-1.883-0.091-3.788-0.184-5.714-0.277c-3.849-0.22-7.772-0.55-11.775-1.002l-1.505-0.175l-1.52-0.124
			c-1.015-0.092-2.036-0.185-3.063-0.278c-2.052-0.2-4.126-0.432-6.221-0.695c-2.095-0.263-4.213-0.559-6.353-0.889
			c-2.14-0.341-4.315-0.536-6.508-0.864c-4.39-0.601-8.876-1.371-13.473-2.229c-18.414-3.052-38.55-7.382-61.344-12.844
			c-22.81-5.434-48.271-12-77.76-18.925c0,0,2.15-2.317,6.371-6.248c4.232-3.894,10.512-9.636,19.038-15.615
			c2.125-1.528,4.381-3.108,6.77-4.73c1.205-0.805,2.432-1.626,3.682-2.462c1.263-0.814,2.568-1.574,3.901-2.374
			c5.339-3.149,11.195-6.483,17.574-9.673c6.399-3.012,13.301-6.09,20.685-8.932c3.699-1.321,7.517-2.613,11.445-3.864
			c1.964-0.625,3.957-1.24,5.976-1.844c1.013-0.297,2.029-0.595,3.049-0.894c1.027-0.254,2.058-0.509,3.093-0.765
			c4.15-1.006,8.403-1.955,12.752-2.837c2.174-0.432,4.372-0.886,6.593-1.25c2.22-0.326,4.463-0.634,6.727-0.92
			c4.528-0.574,9.141-1.066,13.825-1.464c4.682-0.308,9.432-0.392,14.243-0.441c2.406-0.016,4.826-0.006,7.259,0.032l1.827,0.034
			l1.828,0.108c1.22,0.083,2.443,0.166,3.668,0.25c4.903,0.362,9.85,0.843,14.825,1.45l1.867,0.234l1.863,0.312
			c1.241,0.22,2.484,0.44,3.732,0.661c2.49,0.457,4.986,0.948,7.484,1.472c2.498,0.524,4.999,1.083,7.5,1.677
			c2.501,0.591,4.98,1.378,7.47,2.114c4.973,1.512,9.938,3.17,14.874,4.981c4.907,1.975,9.78,4.135,14.607,6.436
			c2.409,1.171,4.822,2.304,7.19,3.618c2.366,1.325,4.716,2.69,7.048,4.096c2.332,1.406,4.647,2.853,6.94,4.341
			c2.292,1.493,4.575,2.982,6.79,4.685c4.45,3.327,8.805,6.82,13.041,10.48c1.056,0.924,2.117,1.821,3.148,2.797
			c1.017,0.988,2.038,1.981,3.065,2.979c2.027,2.007,4.022,4.055,5.981,6.146c1.959,2.09,3.882,4.223,5.766,6.396
			c0.948,1.069,1.864,2.214,2.768,3.373c0.906,1.154,1.802,2.318,2.687,3.492
			C1381.749,1147.851,1385.122,1152.715,1388.302,1157.741z"/>
	</g>
	<g>
		<path style="fill:#7B8459;" d="M1391.405,1032.464c0,0,0.206-2.112,1.05-5.839c0.849-3.726,2.347-9.09,5.06-15.61
			c1.422-3.132,3.154-6.541,5.262-10.162c2.112-3.612,4.563-7.526,7.603-11.218c1.503-1.886,3.115-3.804,4.844-5.742
			c0.864-0.969,1.758-1.943,2.681-2.921c0.923-0.977,1.869-1.979,2.881-2.879c4.018-3.693,8.517-7.442,13.548-11.063
			c2.551-1.691,5.23-3.361,8.04-4.997c1.405-0.818,2.842-1.627,4.312-2.426c1.473-0.785,2.961-1.629,4.522-2.295
			c3.105-1.401,6.339-2.75,9.7-4.034c1.68-0.642,3.392-1.268,5.134-1.876c1.748-0.581,3.545-1.046,5.363-1.544
			c3.64-0.971,7.401-1.859,11.276-2.651l1.458-0.292l1.478-0.218c0.99-0.133,1.987-0.267,2.989-0.401
			c2.006-0.254,4.04-0.482,6.099-0.681c2.059-0.199,4.144-0.37,6.253-0.511c2.108-0.153,4.259-0.088,6.423-0.093
			c4.333,0.047,8.754,0.189,13.251,0.537c18.003,1.774,37.352,7.037,56.242,17.016c18.839,9.947,37.24,24.728,51.959,44.603
			c0,0-2.538,1.058-6.967,2.682c-4.437,1.664-10.66,3.667-18.182,6.488c-1.86,0.65-3.798,1.327-5.807,2.029
			c-0.996,0.334-2.009,0.675-3.038,1.021c-1.031,0.357-2.091,0.78-3.155,1.165c-4.269,1.597-8.715,3.091-13.318,4.647
			c-4.64,1.744-9.397,3.326-14.258,4.874c-2.445,0.879-4.913,1.718-7.398,2.503c-1.243,0.393-2.491,0.772-3.743,1.137
			c-0.626,0.179-1.253,0.358-1.882,0.539c-0.631,0.21-1.264,0.42-1.898,0.631c-2.535,0.826-5.088,1.59-7.66,2.279
			c-1.285,0.331-2.576,0.664-3.872,0.999c-1.297,0.389-2.599,0.759-3.906,1.108c-2.614,0.698-5.25,1.311-7.911,1.827
			c-2.657,0.613-5.334,1.266-8.046,1.741c-1.356,0.246-2.719,0.465-4.092,0.657l-1.031,0.139l-1.028,0.195
			c-0.687,0.12-1.376,0.24-2.066,0.36c-2.765,0.452-5.57,0.79-8.427,1.005l-1.074,0.074l-1.067,0.131
			c-0.714,0.076-1.43,0.153-2.149,0.229c-1.439,0.137-2.893,0.242-4.362,0.315c-1.469,0.073-2.954,0.113-4.457,0.12
			c-1.504,0.003-2.985,0.14-4.507,0.151c-3.034,0.065-6.146-0.005-9.35-0.218c-3.153-0.044-6.388-0.195-9.739-0.508
			c-1.668-0.137-3.392-0.386-5.094-0.532c-1.697-0.132-3.424-0.301-5.183-0.506c-1.759-0.205-3.551-0.446-5.377-0.724
			c-1.823-0.271-3.703-0.627-5.542-0.842c-3.714-0.511-7.576-1.166-11.608-1.962c-1.004-0.19-2.037-0.427-3.046-0.604
			c-1.009-0.177-2.026-0.355-3.052-0.535c-2.057-0.374-4.158-0.783-6.308-1.225s-4.347-0.919-6.595-1.428
			c-1.134-0.273-2.243-0.487-3.364-0.707c-1.127-0.23-2.264-0.463-3.41-0.697C1401.264,1034.76,1396.451,1033.671,1391.405,1032.464
			z"/>
	</g>
	<g>
		<path style="fill:#B5AD81;" d="M1321.218,1357.029c0,0-1.877,1.366-5.492,3.465c-3.614,2.102-8.968,4.928-15.945,7.844
			c-6.987,2.898-15.594,5.899-25.802,8.214c-10.204,2.318-22.006,3.993-35.381,4.094c-13.364,0.094-28.335-1.393-44.601-5.586
			c-8.125-2.068-16.57-4.9-25.215-8.509c-8.626-3.61-17.543-8.187-26.412-13.65c-8.862-5.539-17.713-12.082-26.29-19.72
			c-8.576-7.628-16.827-16.5-24.392-26.483c-7.553-9.992-14.397-21.176-19.925-33.428c-5.525-12.239-9.719-25.555-11.883-39.47
			c0,0,2.961,0.79,7.988,2.336c2.472,0.803,5.63,1.639,9.122,2.675c3.452,1.071,7.531,2.089,11.799,3.314
			c8.7,2.315,18.758,4.877,29.699,7.484c10.945,2.626,22.755,5.313,35.07,8.382c12.333,3.064,25.126,6.594,38.358,10.99
			c13.229,4.397,27.016,9.877,41.275,17.036c3.537,1.826,7.176,3.682,10.764,5.747c3.649,1.998,7.252,4.198,10.943,6.463
			c7.319,4.596,14.766,9.696,22.209,15.481C1291.995,1325.26,1307.047,1339.422,1321.218,1357.029z"/>
	</g>
	<g>
		<path style="fill:#7B8459;" d="M1397.69,1268.879c0,0,2.2-0.326,6.111-0.548c3.91-0.225,9.521-0.347,16.307,0.013
			c13.785,0.528,32.157,2.887,52.417,9.46c5.125,1.578,10.287,3.547,15.568,5.818c2.668,1.098,5.348,2.297,8.036,3.606
			c1.344,0.655,2.69,1.338,4.038,2.049c1.356,0.7,2.745,1.384,4.118,2.123c2.755,1.465,5.518,3.051,8.286,4.769
			c2.78,1.7,5.637,3.417,8.462,5.338c1.417,0.953,2.836,1.942,4.256,2.968c1.426,1.014,2.87,2.04,4.333,3.079
			c2.905,2.107,5.81,4.384,8.743,6.796c11.843,9.465,24.126,21.026,37.387,35.195c13.28,14.163,27.532,30.93,43.785,50.716
			c0,0-2.553,1.017-7.258,2.482c-4.699,1.444-11.608,3.454-20.208,4.942c-2.156,0.39-4.425,0.767-6.801,1.123
			c-1.193,0.169-2.408,0.342-3.643,0.517c-1.237,0.157-2.487,0.275-3.769,0.403c-5.116,0.483-10.649,0.877-16.49,0.991
			c-5.8,0.02-11.955-0.131-18.348-0.628c-3.173-0.3-6.411-0.67-9.707-1.119c-1.648-0.224-3.31-0.468-4.984-0.732
			c-0.838-0.137-1.678-0.275-2.521-0.413c-0.835-0.167-1.672-0.333-2.511-0.501c-3.36-0.689-6.766-1.465-10.205-2.334
			c-1.717-0.439-3.454-0.882-5.178-1.385c-1.714-0.522-3.435-1.069-5.162-1.641c-3.453-1.144-6.927-2.388-10.41-3.739
			c-3.457-1.396-6.887-2.964-10.33-4.608c-6.923-3.227-13.608-7.266-20.234-11.645c-3.292-2.224-6.477-4.68-9.648-7.198
			c-1.581-1.266-3.149-2.563-4.702-3.891c-1.554-1.327-3.042-2.761-4.54-4.185c-2.984-2.867-5.898-5.859-8.727-8.976
			c-2.774-3.196-5.451-6.532-8.03-9.986c-1.282-1.736-2.566-3.468-3.772-5.297c-1.203-1.834-2.377-3.699-3.521-5.595
			c-1.144-1.896-2.257-3.823-3.338-5.782c-1.079-1.961-2.141-3.931-3.106-6.012
			C1404.45,1308.692,1399.212,1289.782,1397.69,1268.879z"/>
	</g>
	<g>
		<path style="fill:#B5AD81;" d="M1428.289,1229.989c0,0-1.347-1.679-3.392-4.963c-2.041-3.285-4.79-8.193-7.53-14.72
			c-1.273-3.23-2.536-6.86-3.705-10.886c-1.165-4.024-2.283-8.47-2.981-13.185c-0.732-4.727-1.359-9.881-1.553-15.294
			c-0.134-5.375-0.017-11.116,0.52-17.119c0.667-5.908,1.624-12.176,3.163-18.568c0.799-3.171,1.71-6.4,2.739-9.679
			c0.515-1.64,1.059-3.292,1.635-4.956c0.604-1.636,1.248-3.276,1.918-4.93c1.344-3.307,2.816-6.653,4.423-10.031
			c1.638-3.345,3.465-6.662,5.405-10.031c0.974-1.681,1.984-3.366,3.03-5.056c1.057-1.676,2.18-3.321,3.324-4.987
			c2.301-3.318,4.733-6.67,7.355-9.975c10.541-13.163,23.86-25.903,40.295-37.677c16.442-11.792,35.989-22.556,59.097-32.337
			c0,0,0.34,2.711,0.622,7.524c0.286,4.812,0.495,11.729,0.308,20.125c-0.38,16.797-2.537,39.47-8.547,62.951
			c-0.735,2.938-1.543,5.889-2.431,8.844c-0.444,1.477-0.909,2.956-1.394,4.435c-0.457,1.481-0.935,2.962-1.434,4.442
			c-0.999,2.96-2.085,5.916-3.267,8.861c-1.163,2.947-2.334,5.89-3.656,8.812c-2.693,5.837-5.479,11.637-8.853,17.316
			c-1.682,2.84-3.322,5.674-5.183,8.468c-1.84,2.796-3.845,5.559-5.814,8.316c-2.012,2.752-4.168,5.474-6.479,8.167
			c-2.231,2.706-4.557,5.393-7.083,8.051c-1.252,1.331-2.578,2.65-3.887,3.973c-1.282,1.328-2.607,2.652-3.978,3.97
			c-1.37,1.319-2.786,2.633-4.248,3.943c-1.469,1.294-2.956,2.604-4.463,3.932c-2.979,2.634-6.151,5.258-9.527,7.882
			c-0.847,0.652-1.7,1.308-2.56,1.97c-0.841,0.659-1.688,1.323-2.542,1.992c-1.721,1.329-3.495,2.66-5.323,3.994
			c-1.828,1.334-3.711,2.671-5.649,4.013c-1.96,1.337-3.807,2.717-5.805,4.084
			C1436.889,1224.402,1432.708,1227.175,1428.289,1229.989z"/>
	</g>
	<g>
		<path style="fill:#B5AD81;" d="M1550.91,1165.689c0,0,1.977-1.069,5.817-2.555c1.914-0.726,4.332-1.621,7.162-2.407
			c2.831-0.789,6.132-1.591,9.886-2.284c3.702-0.61,7.905-1.186,12.469-1.455c4.547-0.25,9.555-0.328,14.835,0.03
			c10.605,0.645,22.602,2.735,35.211,6.898c12.609,4.147,25.802,10.351,38.798,18.796c13.029,8.443,25.74,19.094,37.834,31.984
			c12.106,12.873,23.483,27.976,34.799,45.44c5.681,8.744,11.378,18.106,17.406,28.143c6.037,10.036,12.403,20.754,19.656,32.178
			c0,0-2.822,0.535-8.027,1.078c-5.197,0.528-12.752,0.933-22.151,0.509c-9.359-0.452-20.574-1.754-32.77-4.488
			c-12.194-2.716-25.351-6.847-38.548-12.479c-13.198-5.622-26.437-12.733-38.921-21.201c-12.495-8.456-24.252-18.295-34.956-29.46
			c-5.365-5.621-10.48-11.553-15.399-17.915c-4.915-6.407-9.646-13.102-14.287-20.404c-4.639-7.305-9.239-14.986-13.94-23.406
			C1561.066,1184.32,1556.179,1175.409,1550.91,1165.689z"/>
	</g>
	<g>
		<path style="fill:#B5AD81;" d="M1386.255,994.068c0,0-4.923,7.116-14.737,16.158c-9.816,9.114-24.46,20.156-44.014,28.368
			c-19.586,8.215-44.025,13.587-74.277,11.434c-30.303-2.076-66.369-11.703-110.691-32.869c0,0,1.71-2.059,4.981-5.479
			c3.273-3.415,8.106-8.223,14.388-13.602c12.543-10.807,30.916-24.114,53.764-33.923c22.812-9.801,50.118-16.16,79.548-13.068
			c14.7,1.506,29.913,5.44,45.228,12.345C1355.759,970.363,1371.18,980.374,1386.255,994.068z"/>
	</g>
	<g>
		<path style="fill:#B5AD81;" d="M1252.104,803.299c0,0-1.768-1.041-4.661-3.234c-2.891-2.197-6.917-5.559-11.404-10.289
			c-2.155-2.365-4.416-5.073-6.701-8.143c-2.279-3.07-4.64-6.506-6.692-10.31c-2.087-3.803-4.183-7.99-5.967-12.544
			c-1.707-4.546-3.262-9.472-4.518-14.757c-1.078-5.261-1.97-10.899-2.348-16.839c-0.134-2.961-0.176-6.003-0.116-9.121
			c0.03-1.558,0.086-3.136,0.169-4.731c0.099-1.592,0.29-3.188,0.474-4.809c0.385-3.237,0.885-6.541,1.51-9.901
			c0.65-3.354,1.58-6.73,2.562-10.17c0.501-1.718,1.035-3.446,1.605-5.185c0.562-1.741,1.276-3.459,1.964-5.203
			c1.409-3.477,2.942-6.993,4.668-10.513c7.134-13.998,17.473-28.091,31.574-40.771c14.076-12.654,31.974-23.887,53.515-31.501
			c0,0,0.529,2.51,1.224,6.856c0.718,4.356,1.48,10.447,2.495,17.839c0.234,1.836,0.461,3.74,0.674,5.7
			c0.102,0.978,0.205,1.971,0.31,2.981c0.122,1.02,0.245,2.055,0.37,3.105c0.504,4.203,0.888,8.566,1.237,13.082
			c0.458,4.573,0.751,9.235,0.938,13.982c0.155,2.402,0.265,4.817,0.32,7.237c0.028,1.21,0.041,2.422,0.04,3.635l-0.012,1.82
			l0.034,1.85c0.029,2.467-0.005,4.934-0.113,7.4c-0.13,2.466-0.26,4.947-0.391,7.445c-0.165,2.495-0.413,4.984-0.756,7.467
			c-0.284,2.502-0.579,5.024-1.024,7.526c-0.974,4.984-1.883,10.072-3.493,15.105c-0.758,2.528-1.489,5.089-2.443,7.635
			c-0.467,1.275-0.969,2.552-1.506,3.83c-0.539,1.278-1.006,2.576-1.57,3.867c-1.099,2.586-2.347,5.183-3.756,7.798
			c-1.295,2.63-2.728,5.28-4.343,7.956c-0.794,1.339-1.683,2.681-2.519,4.039c-0.828,1.359-1.7,2.725-2.617,4.101
			c-0.917,1.376-1.878,2.762-2.886,4.158c-1.015,1.387-2.046,2.795-3.093,4.227c-2.071,2.845-4.331,5.74-6.787,8.697
			c-1.254,1.478-2.468,2.973-3.72,4.485c-1.262,1.512-2.574,3.042-3.937,4.59s-2.777,3.116-4.243,4.705
			c-1.439,1.579-2.904,3.187-4.397,4.826C1258.761,796.486,1255.541,799.839,1252.104,803.299z"/>
	</g>
	<g>
		<path style="fill:#B5AD81;" d="M1253.974,908.312c0,0-1.019,1.017-3.02,2.593c-2.002,1.574-4.997,3.713-9.001,5.923
			c-1.987,1.044-4.224,2.101-6.713,3.109c-2.487,1.004-5.237,2-8.182,2.721c-2.951,0.745-6.164,1.427-9.57,1.834
			c-3.388,0.355-7.007,0.54-10.816,0.459c-3.762-0.198-7.747-0.589-11.846-1.383c-2.034-0.432-4.107-0.942-6.212-1.534
			c-1.053-0.296-2.114-0.613-3.182-0.951c-1.063-0.349-2.113-0.76-3.181-1.172c-2.13-0.834-4.284-1.757-6.455-2.775
			c-2.162-1.034-4.289-2.262-6.451-3.537c-1.078-0.643-2.157-1.312-3.236-2.006c-1.082-0.689-2.122-1.478-3.185-2.253
			c-2.112-1.571-4.227-3.234-6.312-5.027c-8.242-7.318-15.981-16.828-22.097-28.642c-6.102-11.793-10.564-25.929-11.925-41.898
			c0,0,1.798,0.084,4.87,0.381c3.084,0.283,7.354,0.842,12.551,1.459c1.288,0.166,2.62,0.348,3.989,0.55
			c0.682,0.104,1.375,0.21,2.078,0.317c0.714,0.098,1.438,0.197,2.173,0.298c2.942,0.401,5.972,0.911,9.1,1.473
			c3.185,0.498,6.402,1.123,9.657,1.835c1.658,0.319,3.317,0.672,4.97,1.062c0.827,0.195,1.651,0.4,2.474,0.616l1.233,0.33
			l1.262,0.304c1.68,0.416,3.349,0.875,5.003,1.385c1.651,0.524,3.313,1.051,4.985,1.582c1.664,0.553,3.31,1.161,4.936,1.833
			c1.648,0.635,3.308,1.281,4.928,2.026c3.211,1.542,6.505,3.059,9.636,5.042c1.582,0.961,3.191,1.91,4.751,3.008
			c0.783,0.542,1.561,1.109,2.334,1.7c0.772,0.592,1.571,1.139,2.348,1.749c1.562,1.203,3.104,2.51,4.63,3.928
			c1.556,1.344,3.102,2.786,4.633,4.355c0.769,0.776,1.522,1.616,2.296,2.424c0.776,0.802,1.55,1.636,2.322,2.501
			c0.772,0.865,1.543,1.763,2.313,2.694c0.762,0.934,1.536,1.883,2.323,2.847c1.565,1.909,3.131,3.955,4.704,6.145
			c0.782,1.112,1.582,2.201,2.387,3.318c0.803,1.124,1.61,2.285,2.42,3.484c0.81,1.199,1.625,2.436,2.444,3.713
			c0.818,1.256,1.651,2.535,2.499,3.838C1250.526,902.589,1252.233,905.367,1253.974,908.312z"/>
	</g>
	<g>
		<path style="fill:#B5AD81;" d="M1064.063,1041.711c0,0-0.725-0.92-1.809-2.687c-1.082-1.768-2.527-4.392-3.933-7.839
			c-0.656-1.705-1.297-3.614-1.876-5.722c-0.575-2.106-1.119-4.424-1.422-6.872c-0.322-2.456-0.568-5.118-0.573-7.911
			c0.035-2.772,0.229-5.715,0.656-8.787c0.518-3.022,1.212-6.206,2.243-9.445c0.543-1.603,1.151-3.23,1.83-4.876
			c0.339-0.823,0.696-1.65,1.071-2.482c0.383-0.826,0.815-1.636,1.249-2.46c0.876-1.642,1.827-3.296,2.857-4.954
			c1.041-1.65,2.236-3.252,3.472-4.879c0.623-0.81,1.265-1.619,1.929-2.426c0.66-0.809,1.396-1.575,2.123-2.361
			c1.471-1.558,3.016-3.11,4.663-4.625c6.698-5.967,15.121-11.321,25.252-15.142c10.112-3.813,21.963-6.077,35.002-5.66
			c0,0-0.239,1.445-0.771,3.901c-0.521,2.466-1.379,5.865-2.372,10.008c-0.256,1.025-0.531,2.085-0.823,3.172
			c-0.149,0.541-0.3,1.091-0.453,1.65c-0.147,0.568-0.296,1.144-0.447,1.729c-0.604,2.34-1.304,4.741-2.055,7.216
			c-0.705,2.528-1.516,5.069-2.401,7.633c-0.416,1.31-0.858,2.617-1.331,3.917c-0.236,0.65-0.48,1.297-0.733,1.942l-0.384,0.966
			l-0.366,0.991c-0.496,1.318-1.026,2.624-1.594,3.913c-0.58,1.285-1.164,2.578-1.752,3.88c-0.605,1.293-1.253,2.566-1.951,3.816
			c-0.67,1.272-1.35,2.553-2.106,3.792c-1.551,2.449-3.091,4.968-4.991,7.311c-0.927,1.188-1.847,2.398-2.883,3.555
			c-0.513,0.582-1.044,1.157-1.596,1.725c-0.552,0.568-1.07,1.162-1.637,1.732c-1.121,1.148-2.324,2.271-3.615,3.37
			c-1.234,1.13-2.547,2.243-3.96,3.332c-0.7,0.548-1.451,1.077-2.178,1.626c-0.722,0.551-1.469,1.097-2.242,1.639
			c-0.773,0.542-1.572,1.08-2.397,1.614c-0.828,0.527-1.668,1.063-2.522,1.607c-1.692,1.084-3.494,2.156-5.415,3.219
			c-0.974,0.526-1.93,1.07-2.909,1.615c-0.985,0.543-2,1.084-3.046,1.626c-1.046,0.541-2.124,1.082-3.233,1.623
			c-1.093,0.542-2.206,1.094-3.34,1.656C1069.017,1039.467,1066.609,1040.583,1064.063,1041.711z"/>
	</g>
	<g>
		<path style="fill:#7B8459;" d="M1029.392,842.971c0,0,0.96-1.784,2.704-4.694c0.872-1.44,1.924-3.178,3.122-5.157
			c1.191-1.956,2.525-4.148,3.972-6.526c2.887-4.795,6.122-10.074,9.676-15.647c3.571-5.527,7.442-11.169,12.17-16.602
			c4.739-5.433,10.373-10.667,17.773-15.399c7.377-4.699,16.636-9.04,28.427-12.231c5.899-1.598,12.472-2.911,19.681-3.742
			c7.194-0.833,15.146-1.181,23.633-0.741c8.488,0.445,17.576,1.682,26.899,4.159c9.308,2.476,18.86,6.219,27.832,11.652
			c0,0-1.244,2.065-3.408,5.448c-2.158,3.398-5.156,8.237-8.578,13.86c-3.436,5.674-7.272,12.119-11.569,18.868
			c-4.314,6.746-9.118,13.788-14.968,20.608c-5.857,6.817-12.773,13.424-21.428,19.17c-8.683,5.732-19.053,10.62-31.551,13.382
			c-12.366,2.743-26.959,3.31-42.104-0.425c-7.542-1.853-15.219-4.89-22.435-9.136
			C1041.998,855.531,1035.184,849.862,1029.392,842.971z"/>
	</g>
	<g>
		<path style="fill:#B5AD81;" d="M1091.958,719.527c0,0-7.652-0.797-18.195-4.486c-10.456-3.709-23.839-10.421-34.761-22.17
			c-10.904-11.69-19.36-28.519-19.476-50.897c-0.016-11.172,2.071-23.69,7.083-37.346c5.013-13.648,12.959-28.439,24.673-43.921
			c0,0,1.967,1.077,5.208,3.108c3.246,2.029,7.727,5.01,12.891,8.767c10.27,7.546,23.016,18.12,33.121,31.036
			c5.073,6.469,9.41,13.567,12.533,21.33c3.078,7.779,4.899,16.232,4.807,25.563c-0.122,9.345-2.045,19.536-6.536,30.932
			C1108.846,692.832,1101.943,705.388,1091.958,719.527z"/>
	</g>
	<g>
		<path style="fill:#7B8459;" d="M788.185,719.335c0,0,37.049-126.29,203.039-59.909
			C991.223,659.425,917.08,800.211,788.185,719.335z"/>
	</g>
	<g>
		<path style="fill:#EB978A;" d="M928.09,453.578c3.317-2.881,5.418-7.126,5.418-11.864c0-8.312-6.456-15.112-14.627-15.67
			c5.636-6.165,5.473-15.734-0.493-21.7c-3.351-3.351-7.838-4.867-12.221-4.558c0.309-4.383-1.208-8.87-4.558-12.22
			c-6.136-6.136-16.084-6.136-22.22,0c-0.035,0.035-0.068,0.072-0.103,0.107c0.004-0.136,0.008-0.271,0.008-0.408
			c0-8.677-7.034-15.711-15.711-15.711c-4.739,0-8.984,2.101-11.864,5.418c-2.881-3.317-7.126-5.418-11.864-5.418
			c-8.038,0-14.662,6.038-15.595,13.824c-6.155-5.858-15.891-5.77-21.933,0.272c-3.351,3.351-4.867,7.838-4.558,12.22
			c-4.383-0.309-8.87,1.208-12.221,4.558c-6.136,6.136-6.136,16.084,0,22.219c0.032,0.032,0.066,0.062,0.099,0.094
			c-0.002,0-0.003,0-0.005,0c-8.677,0-15.712,7.034-15.712,15.712c0,4.738,2.101,8.984,5.418,11.864
			c-3.317,2.881-5.418,7.126-5.418,11.864c0,8.561,6.849,15.518,15.366,15.703c-0.082,0.078-0.165,0.155-0.246,0.236
			c-6.136,6.136-6.136,16.084,0,22.219c3.351,3.351,7.838,4.867,12.22,4.558c-0.309,4.383,1.208,8.87,4.558,12.22
			c5.767,5.767,14.901,6.112,21.072,1.039c0.386,8.334,7.263,14.973,15.693,14.973c4.739,0,8.984-2.101,11.864-5.418
			c2.881,3.317,7.126,5.418,11.864,5.418c8.677,0,15.712-7.034,15.712-15.711c0-0.173-0.006-0.345-0.012-0.518
			c0.028,0.028,0.053,0.057,0.081,0.085c6.136,6.136,16.084,6.136,22.22,0c3.35-3.351,4.867-7.838,4.558-12.221
			c4.383,0.309,8.87-1.208,12.221-4.558c5.764-5.764,6.112-14.891,1.047-21.063c8.513-0.189,15.358-7.144,15.358-15.703
			C933.508,460.704,931.408,456.459,928.09,453.578z M850.387,453.584l0.393-0.168l-0.009,0.02L850.387,453.584z M850.466,452.039
			l0.04,0.094l-1.813-0.805L850.466,452.039z M851.614,453.77l2.502,6.498l-2.635-6.167L851.614,453.77z M854.348,446.624
			l-2.364,5.892l-0.214-0.086L854.348,446.624z"/>
		<circle style="fill:#FFFFFF;" cx="851.72" cy="453.342" r="20.409"/>
	</g>
	<path style="fill:#7B8459;" d="M941.112,967.853c-0.565,0-1.098-0.342-1.313-0.901c-0.28-0.725,0.081-1.539,0.806-1.819
		c0.622-0.239,63.727-24.018,192.681-24.4c66.735-0.198,109.253-25.824,133.169-47.288c25.934-23.273,36.221-46.818,36.322-47.054
		c0.306-0.713,1.134-1.043,1.848-0.739c0.714,0.306,1.045,1.133,0.74,1.847c-0.103,0.24-10.576,24.262-36.924,47.945
		c-24.289,21.834-67.453,47.902-135.146,48.102c-128.361,0.382-191.059,23.975-191.677,24.213
		C941.452,967.823,941.281,967.853,941.112,967.853z"/>
	<g>
		<path style="fill:#a855f7;" d="M1017.482,964.306c3.317-2.881,5.418-7.126,5.418-11.864c0-8.312-6.456-15.112-14.627-15.67
			c5.636-6.165,5.472-15.734-0.493-21.7c-3.351-3.351-7.838-4.867-12.221-4.558c0.309-4.383-1.208-8.87-4.558-12.221
			c-6.136-6.136-16.084-6.136-22.22,0c-0.035,0.035-0.068,0.072-0.103,0.107c0.003-0.136,0.008-0.271,0.008-0.408
			c0-8.677-7.034-15.711-15.711-15.711c-4.739,0-8.984,2.101-11.864,5.418c-2.881-3.317-7.126-5.418-11.864-5.418
			c-8.038,0-14.662,6.038-15.595,13.824c-6.155-5.858-15.891-5.77-21.933,0.272c-3.351,3.351-4.867,7.838-4.558,12.221
			c-4.383-0.309-8.87,1.208-12.221,4.558c-6.136,6.136-6.136,16.084,0,22.219c0.032,0.032,0.066,0.062,0.099,0.094
			c-0.002,0-0.003,0-0.005,0c-8.677,0-15.712,7.034-15.712,15.712c0,4.738,2.101,8.984,5.418,11.864
			c-3.317,2.881-5.418,7.126-5.418,11.864c0,8.561,6.849,15.519,15.366,15.703c-0.082,0.078-0.165,0.155-0.246,0.236
			c-6.136,6.136-6.136,16.084,0,22.219c3.351,3.351,7.838,4.867,12.22,4.558c-0.309,4.383,1.208,8.87,4.558,12.22
			c5.767,5.767,14.901,6.112,21.072,1.039c0.386,8.334,7.263,14.973,15.693,14.973c4.739,0,8.984-2.101,11.864-5.418
			c2.881,3.318,7.126,5.418,11.864,5.418c8.677,0,15.712-7.034,15.712-15.712c0-0.173-0.006-0.345-0.012-0.517
			c0.028,0.028,0.053,0.057,0.081,0.085c6.136,6.136,16.084,6.136,22.219,0c3.351-3.351,4.867-7.838,4.558-12.221
			c4.383,0.309,8.87-1.208,12.221-4.558c5.764-5.764,6.112-14.891,1.047-21.063c8.513-0.189,15.358-7.144,15.358-15.703
			C1022.901,971.432,1020.8,967.187,1017.482,964.306z M939.779,964.312l0.393-0.168l-0.009,0.02L939.779,964.312z M939.858,962.767
			l0.04,0.094l-1.813-0.805L939.858,962.767z M941.006,964.498l2.502,6.499l-2.635-6.167L941.006,964.498z M943.741,957.352
			l-2.364,5.892l-0.214-0.086L943.741,957.352z"/>
		
			<ellipse transform="matrix(0.7071 -0.7071 0.7071 0.7071 -406.0551 947.8359)" style="fill:#FFFFFF;" cx="941.112" cy="964.07" rx="20.409" ry="20.409"/>
	</g>
</g>
<g id="woman">
	<path style="fill:#AB5839;" d="M1953.041,1059.56l-17.652,165.311c0,0,105.391,7.378,146.146-51.129l-38.435-127.132
		L1953.041,1059.56z"/>
	<path style="fill:#AB5839;" d="M2016.807,989.3c0,0-37.003,41.807-191.96,80.972l5.96,28.948c0,0,140.872,37.59,194.316-47.189
		L2016.807,989.3z"/>
	<path style="fill:#FFFFFF;" d="M2077.889,1159.896h-87.773l-19.987-84.66c-7.909-33.5,16.811-66.243,51.223-67.018
		c0.422-0.009,0.844-0.014,1.268-0.014h0c30.524,0,55.269,49.667,55.269,80.191V1159.896z"/>
	<g>
		<path style="fill:#371E17;" d="M2070.281,900.96c11.299,0.44,22.111,5.52,30.232,14.751c14.012,15.929,1.395,33.44-15.233,34.008
			c-17.643,0.602-19.651-12.68-41.653-3.902c-9.016,3.597-14.176-4.089-13.885-12.393c0.423-12.055,8.974-22.57,19.451-27.796
			C2056.058,902.204,2063.263,900.687,2070.281,900.96z"/>
		<g>
			<g>
				<g>
					<defs>
						<path id="XMLID_3_" d="M2028.293,961.858c0.946-5.289,1.082-9.203,1.082-9.203h-32.516c0,0-11.256,38.457,10.005,37.206
							c0.423-0.025,0.837-0.065,1.245-0.117l-0.491,31.519c5.351,0.107,10.653-2.681,15.052-6.015
							c6.339-4.805,9.198-12.934,7.319-20.663C2027.239,983.271,2027.586,970.333,2028.293,961.858z"/>
					</defs>
					<use xlink:href="#XMLID_3_"  style="overflow:visible;fill:#F7B59B;"/>
					<clipPath id="XMLID_00000179612317052976509060000012457639170427484084_">
						<use xlink:href="#XMLID_3_"  style="overflow:visible;"/>
					</clipPath>
					<path style="clip-path:url(#XMLID_00000179612317052976509060000012457639170427484084_);fill:#AB5839;" d="M1996.066,955.742
						l13.152-0.917c2.142-0.149,4.259,0.536,5.908,1.912l6.464,5.395l-0.362-15.316l-28.525,0.989L1996.066,955.742"/>
				</g>
				<path style="fill:#371E17;" d="M2008.109,989.744c0,0,9.668-0.856,12.725-8.803c0,0-0.076,13.261-12.873,18.304
					L2008.109,989.744z"/>
				<g>
					<circle style="fill:#371E17;" cx="1998.868" cy="961.57" r="1.453"/>
				</g>
				<g>
					<circle style="fill:#371E17;" cx="2010.6" cy="961.57" r="1.453"/>
				</g>
				<g>
					<path style="fill:#371E17;" d="M2002.061,969.817c-0.781,0-1.153-0.367-1.328-0.682c-1.099-1.966,2.692-7.788,3.463-8.935
						c0.128-0.19,0.386-0.241,0.577-0.114c0.191,0.128,0.241,0.387,0.114,0.577c-1.675,2.492-4.086,6.886-3.428,8.067
						c0.042,0.075,0.157,0.265,0.674,0.254c0.233-0.052,0.423,0.169,0.432,0.398c0.009,0.229-0.169,0.422-0.399,0.432
						C2002.13,969.816,2002.095,969.817,2002.061,969.817z"/>
				</g>
				<path style="fill:#371E17;" d="M1998.218,973.386l10.061-1.846c0.89-0.163,1.534,0.827,1.022,1.574
					c-3.022,4.403-10.376,13.602-11.803,1.235C1997.444,973.89,1997.764,973.469,1998.218,973.386z"/>
				<path style="fill:#FFFFFF;" d="M1997.949,976.917c0,0,1.601-2.924,4.186-0.618c0,0,3.197-2.519,5.483-0.886
					c0,0-3.212,4.793-6.676,5.14C1997.477,980.898,1997.949,976.917,1997.949,976.917z"/>
			</g>
			<path style="fill:#371E17;" d="M1996.859,952.654l12.921,0.045c2.1,0.007,4.099,0.899,5.507,2.457l10.888,12.048l2.188,17.761
				c0,0,17.347-6.264,18.371-32.312c0.728-18.526-31.25-25.084-49.78-27.327c-10.773-1.304-18.797,10.113-13.533,19.603
				C1985.495,948.673,1989.533,951.699,1996.859,952.654z"/>
			<g>
				<g>
					<path style="fill:#F7B59B;" d="M2032.402,966.344c0,3.439-2.788,6.227-6.227,6.227c-3.439,0-6.227-2.788-6.227-6.227
						s2.788-6.227,6.227-6.227C2029.614,960.117,2032.402,962.904,2032.402,966.344z"/>
				</g>
				<g>
					<g>
						<path style="fill:#21140F;" d="M2029.726,964.478h-6.376c-0.225,0-0.408-0.182-0.408-0.408s0.182-0.408,0.408-0.408h6.376
							c0.225,0,0.408,0.182,0.408,0.408S2029.951,964.478,2029.726,964.478z"/>
					</g>
					<g>
						<path style="fill:#21140F;" d="M2026.538,969.237c-0.005,0-0.009,0-0.014-0.001c-0.225-0.007-0.401-0.196-0.393-0.42
							l0.163-4.759c0.007-0.224,0.205-0.449,0.421-0.393c0.225,0.007,0.401,0.196,0.393,0.421l-0.163,4.759
							C2026.938,969.063,2026.757,969.237,2026.538,969.237z"/>
					</g>
				</g>
			</g>
			<g>
				<path style="fill:#371E17;" d="M1995.365,952.971c-3.747,0-9.943-0.966-14.095-6.619c-0.2-0.272-0.141-0.655,0.131-0.855
					c0.273-0.2,0.655-0.141,0.855,0.131c5.802,7.901,15.988,5.907,16.091,5.886c0.333-0.071,0.654,0.146,0.722,0.475
					c0.069,0.33-0.144,0.653-0.474,0.722C1998.557,952.719,1997.281,952.971,1995.365,952.971z"/>
			</g>
		</g>
		<path style="fill:#FEC339;" d="M2029.726,933.164c0,0,12.501,4.855,15.361,12.092l2.896-0.975c0,0,0.87-12.893-17.554-15.893
			L2029.726,933.164z"/>
	</g>
	<g>
		<path style="fill:#FFFFFF;" d="M1865.362,1019.407l-38.865-16.321l-66.277,157.824l8.77,3.683l-9.799,23.335
			c-2.473,5.889,0.296,12.668,6.185,15.141l0,0c5.889,2.473,12.668-0.296,15.141-6.185l9.8-23.335l8.769,3.683L1865.362,1019.407z"
			/>
		<path style="fill:#B5AD81;" d="M1888.147,992.702l-13.774-5.784l8.166-19.446c4.096-9.753,0.479-20.573-8.078-24.167
			c-8.557-3.594-18.815,1.4-22.911,11.153l-8.166,19.446l-13.774-5.784c-2.858-1.2-6.285,0.468-7.653,3.726l-9.568,22.783
			c-1.368,3.258-0.16,6.872,2.698,8.072l58.537,24.582c2.859,1.2,6.285-0.467,7.653-3.725l9.568-22.783
			C1892.214,997.517,1891.006,993.903,1888.147,992.702z"/>
	</g>
	<g>
		<path style="fill:#DEA75A;" d="M1990.116,1159.896c0,0-54.458,217.672-21.456,327.68h36.67c0,0,41.429-279.237,78.098-334.241
			L1990.116,1159.896z"/>
		<g>
			<polygon style="fill:#F7B59B;" points="1975.994,1487.577 1979.661,1516.912 2001.663,1516.912 2004.037,1487.577 			"/>
			<path style="fill:#371E17;" d="M2001.069,1515.286c-6.347-0.748-20.825-3.141-22.805-9.55c0,0-34.021,7.781-48.022,24.741
				c-1.237,1.498-0.152,3.758,1.791,3.721l72.004,0v-15.569C2004.037,1516.924,2002.763,1515.486,2001.069,1515.286z"/>
		</g>
		<path style="fill:#21140F;" d="M1976.468,1481.583c-9.733,0-9.764-0.128-9.818-0.338c-0.032-0.126,0.044-0.254,0.169-0.286
			c0.062-0.015,0.12-0.006,0.171,0.021c1.288,0.259,28.57,0.068,39.04-0.028c0.001,0,0.001,0,0.002,0
			c0.129,0,0.233,0.104,0.234,0.233c0.001,0.129-0.102,0.235-0.232,0.236c-0.098,0.001-9.878,0.09-19.544,0.134
			C1982.339,1481.574,1979.058,1481.583,1976.468,1481.583z"/>
		<polygon style="fill:#F7B59B;" points="2093.622,1483.954 2105.862,1510.865 2128.375,1519.351 2122.142,1474.101 		"/>
		<path style="fill:#371E17;" d="M2127.814,1515.286c-6.347-0.748-20.825-3.14-22.805-9.55c0,0-34.021,7.781-48.022,24.741
			c-1.237,1.498-0.151,3.758,1.791,3.721l72.004,0v-15.569C2130.782,1516.924,2129.509,1515.486,2127.814,1515.286z"/>
		<path style="fill:#DEA75A;" d="M2018.951,1167.43c0,0,8.48,224.221,70.884,320.64l35.211-10.238
			c0,0-33.644-214.242-31.258-330.785L2018.951,1167.43z"/>
		<path style="fill:#21140F;" d="M2086.203,1482.442c-0.101,0-0.193-0.064-0.225-0.166c-0.037-0.124,0.032-0.255,0.156-0.293
			l37.753-11.484c0.125-0.037,0.255,0.032,0.293,0.156c0.037,0.124-0.032,0.255-0.156,0.293l-37.753,11.484
			C2086.249,1482.439,2086.225,1482.442,2086.203,1482.442z"/>
	</g>
	<path style="fill:#21140F;" d="M2022.517,1024.337c-0.14,0-0.279-0.063-0.371-0.183c-0.158-0.205-0.12-0.499,0.085-0.657
		l14.561-11.231c0.204-0.157,0.499-0.121,0.657,0.085c0.158,0.205,0.12,0.499-0.085,0.657l-14.561,11.231
		C2022.718,1024.306,2022.618,1024.337,2022.517,1024.337z"/>
	<path style="fill:#AB5839;" d="M1843.005,1050.513c-0.107,0-0.213-0.035-0.301-0.108l-3.968-3.308
		c-0.198-0.166-0.226-0.462-0.06-0.661c0.167-0.2,0.463-0.225,0.661-0.059l3.968,3.308c0.198,0.166,0.225,0.462,0.059,0.661
		C1843.272,1050.456,1843.138,1050.513,1843.005,1050.513z"/>
	<path style="fill:#21140F;" d="M1808.916,1250.439h-106.344c-7.319,0-13.275-5.954-13.275-13.274v-64.464
		c0-7.319,5.955-13.274,13.275-13.274h53.172c0.259,0,0.469,0.21,0.469,0.469c0,0.259-0.21,0.469-0.469,0.469h-53.172
		c-6.803,0-12.337,5.534-12.337,12.337v64.464c0,6.802,5.534,12.336,12.337,12.336h106.344c6.803,0,12.337-5.534,12.337-12.336
		v-64.464c0-6.803-5.534-12.337-12.337-12.337c-0.259,0-0.469-0.21-0.469-0.469c0-0.259,0.21-0.469,0.469-0.469
		c7.319,0,13.274,5.955,13.274,13.274v64.464C1822.19,1244.485,1816.235,1250.439,1808.916,1250.439z"/>
	<path style="fill:#AB5839;" d="M2029.877,994.622c0,0-61.087,203.434,33.608,248.028l89.365-60.928l-42.132-57.5
		c-9.4-12.829-17.36-26.647-23.739-41.216c-13.509-30.853-31.418-71.706-52.098-85.135L2029.877,994.622z"/>
	<g>
		<path style="fill:#F7B59B;" d="M1877.838,1058.627c0,0-28.696-8.539-28.7-8.54c-0.403-0.12-1.238-2.19-1.491-2.638
			c-0.563-0.997-1.127-1.993-1.69-2.99c-1.16-2.052-2.32-4.104-3.479-6.156c-0.563-0.997-1.115-2-1.687-2.992
			c-0.57-0.987-0.897-0.936-1.869-0.306c-1.395,0.904-2.083,2.637-1.693,4.252l1.809,7.48l-20.528-7.813
			c-1.055-0.402-2.229,0.177-2.552,1.259c-0.262,0.875,0.122,1.814,0.921,2.257l16.718,9.248l-0.083,0.242l-23.176-6.263
			c-0.884-0.239-1.801,0.259-2.082,1.13c-0.285,0.884,0.184,1.834,1.058,2.145l22.484,8.006l-0.024,0.071l-21.345-3.379
			c-0.901-0.143-1.724,0.533-1.759,1.445c-0.027,0.709,0.439,1.343,1.124,1.528l19.971,5.398l-11.514,2.193
			c-0.8,0.152-1.354,0.888-1.279,1.699c0.079,0.853,0.822,1.488,1.676,1.433c0,0,9.614-0.045,9.61-0.033l22.385,0.555l19.923,11.002
			L1877.838,1058.627z"/>
		<g>
			<path style="fill:#AB5839;" d="M2039.454,1010.805l-49.855,38.453c-15.043,11.603-34.336,16.207-52.997,12.647l-71.611-13.66
				l-10.99,30.613c0,0,41.891,42.85,111,45.233c69.109,2.383,112.887-35.697,112.887-35.697L2039.454,1010.805z"/>
		</g>
		<g>
			<path style="fill:#21140F;" d="M1896.884,1107.992c-0.068,0-0.135-0.014-0.199-0.044c-27.261-12.818-42.863-28.604-43.018-28.762
				c-0.182-0.185-0.179-0.482,0.007-0.663c0.187-0.183,0.482-0.178,0.663,0.007c0.153,0.157,15.649,15.827,42.746,28.568
				c0.235,0.11,0.336,0.39,0.226,0.624C1897.228,1107.893,1897.059,1107.992,1896.884,1107.992z"/>
			<path style="fill:#21140F;" d="M1888.715,1053.24c-0.029,0-0.06-0.002-0.089-0.008l-23.724-4.525
				c-0.255-0.049-0.422-0.294-0.373-0.549c0.049-0.255,0.299-0.424,0.549-0.373l23.724,4.525c0.255,0.049,0.422,0.294,0.373,0.549
				C1889.132,1053.083,1888.936,1053.24,1888.715,1053.24z"/>
			<path style="fill:#21140F;" d="M1949.013,1063.542c-4.191,0-8.382-0.391-12.499-1.176l-47.888-9.135
				c-0.255-0.049-0.422-0.294-0.373-0.549c0.049-0.255,0.3-0.425,0.549-0.373l47.888,9.135c10.148,1.936,20.755,1.441,30.678-1.43
				c0.254-0.072,0.511,0.071,0.581,0.319c0.072,0.249-0.071,0.51-0.319,0.581C1961.59,1062.662,1955.301,1063.542,1949.013,1063.542
				z"/>
			<path style="fill:#21140F;" d="M2027.42,1115.576c-0.196,0-0.38-0.125-0.445-0.322c-0.081-0.245,0.052-0.511,0.298-0.593
				c17.093-5.674,30.283-12.949,38.34-18.054c0.22-0.136,0.508-0.072,0.647,0.146c0.139,0.219,0.073,0.509-0.146,0.648
				c-8.101,5.132-21.363,12.447-38.547,18.151C2027.518,1115.569,2027.468,1115.576,2027.42,1115.576z"/>
			<path style="fill:#21140F;" d="M1971.207,1124.667c-2.078,0-4.154-0.035-6.222-0.107c-9.969-0.344-19.959-1.562-29.693-3.617
				c-0.254-0.054-0.416-0.303-0.362-0.556c0.054-0.252,0.299-0.418,0.556-0.362c9.682,2.045,19.618,3.255,29.533,3.598
				c4.864,0.167,9.786,0.138,14.631-0.092c0.286-0.006,0.479,0.188,0.491,0.446c0.012,0.259-0.188,0.479-0.446,0.491
				C1976.882,1124.601,1974.044,1124.667,1971.207,1124.667z"/>
		</g>
	</g>
	<path style="fill:#21140F;" d="M2037.078,1318.028c-0.043,0-0.086-0.007-0.129-0.018c-0.249-0.071-0.393-0.331-0.322-0.58
		l19.384-67.589c0.072-0.249,0.335-0.39,0.58-0.322c0.249,0.071,0.394,0.331,0.322,0.58l-19.384,67.589
		C2037.469,1317.894,2037.282,1318.028,2037.078,1318.028z"/>
</g>
<g id="man2">
	<g>
		<path style="fill:#FFFFFF;" d="M620.953,844.94c0,0,49.279-52.669,126.611-41.767l-88.249,37.614L620.953,844.94z"/>
		<g>
			<g>
				<path style="fill:#AC593B;" d="M966.433,709.873l22.328,52.386L504.078,968.842c-14.466,6.166-31.191-0.563-37.357-15.029l0,0
					c-6.166-14.466,0.563-31.191,15.029-37.357L966.433,709.873z"/>
				<polygon style="fill:#FFFFFF;" points="988.761,762.259 1059.806,701.027 966.433,709.873 				"/>
				<polygon style="fill:#AC593B;" points="1059.806,701.027 1035.839,703.297 1041.57,716.744 				"/>
			</g>
			<g>
				<g>
					<path style="fill:#371E17;" d="M689.957,758.969c-6.062-2.735-13.949-0.455-17.617,5.092
						c-0.941-4.754-6.794-7.466-11.401-5.961c-4.607,1.505-7.639,6.246-8.181,11.062c-4.503-1.156-9.605,0.498-12.574,4.076
						c-2.968,3.578-3.652,8.898-1.684,13.11c0.499,1.068,1.155,2.074,1.473,3.209c0.308,1.098,0.284,2.256,0.358,3.394
						c0.565,8.627,7.612,16.399,16.142,17.804c0.971,0.16,1.97,0.245,2.933,0.046c0.92-0.19,1.767-0.629,2.596-1.072
						c7.754-4.149,15.083-9.091,21.837-14.722c0.679-0.566,1.373-1.151,2.208-1.441c0.594-0.206,1.23-0.251,1.852-0.34
						c3.987-0.575,7.63-3.167,9.48-6.747C701.571,778.368,698.841,762.978,689.957,758.969z"/>
					<g>
						<defs>
							<path id="XMLID_2_" d="M653.394,791.977c-0.947-5.294-1.083-9.211-1.083-9.211h32.544c0,0,11.266,38.49-10.014,37.238
								c-0.423-0.025-0.838-0.065-1.246-0.117l0.491,31.547c-5.356,0.107-10.662-2.683-15.065-6.021
								c-6.344-4.809-9.045-12.908-7.326-20.681C654.717,811.077,654.101,800.46,653.394,791.977z"/>
						</defs>
						<use xlink:href="#XMLID_2_"  style="overflow:visible;fill:#F7B59B;"/>
						<clipPath id="XMLID_00000127741146947606284300000017904769676567823035_">
							<use xlink:href="#XMLID_2_"  style="overflow:visible;"/>
						</clipPath>
					</g>
					<path style="fill:#371E17;" d="M673.595,819.887c0,0-9.677-0.857-12.736-8.81c0,0,0.056,11.971,12.864,17.018L673.595,819.887z
						"/>
					<g>
						<path style="fill:#371E17;" d="M680.519,793.726c0,0.803,0.651,1.454,1.454,1.454c0.803,0,1.454-0.651,1.454-1.454
							c0-0.803-0.651-1.455-1.454-1.455C681.17,792.271,680.519,792.922,680.519,793.726z"/>
					</g>
					<g>
						<path style="fill:#371E17;" d="M668.777,793.726c0,0.803,0.651,1.454,1.454,1.454c0.803,0,1.455-0.651,1.455-1.454
							c0-0.803-0.651-1.455-1.455-1.455C669.428,792.271,668.777,792.922,668.777,793.726z"/>
					</g>
					<g>
						<path style="fill:#371E17;" d="M678.777,804.177c-0.034,0-0.069,0-0.104-0.002c-0.229-0.009-0.408-0.203-0.399-0.432
							c0.009-0.23,0.229-0.406,0.432-0.399c0.517,0.02,0.633-0.178,0.675-0.254c0.66-1.182-1.753-5.579-3.43-8.073
							c-0.128-0.191-0.077-0.45,0.113-0.578c0.192-0.13,0.45-0.078,0.578,0.113c0.772,1.148,4.565,6.975,3.466,8.944
							C679.931,803.81,679.559,804.177,678.777,804.177z"/>
					</g>
					<path style="fill:#371E17;" d="M684.855,782.766c0,0-10.114,4.943-26.514,3.882l2.196,7.078l-6.811,16.341
						c0,0-17.889-18.054-9-33.154L684.855,782.766z"/>
					<g>
						<g>
							<path style="fill:#F7B59B;" d="M649.896,801.313c1.127,2.847,4.349,4.242,7.197,3.115c2.847-1.127,4.242-4.349,3.115-7.197
								c-1.127-2.847-4.349-4.242-7.197-3.115C650.163,795.244,648.768,798.466,649.896,801.313z"/>
						</g>
						<g>
							<g>
								<path style="fill:#371E17;" d="M651.366,798.916c-0.144,0-0.281-0.087-0.337-0.229c-0.074-0.186,0.018-0.397,0.204-0.471
									l5.279-2.09c0.188-0.073,0.397,0.018,0.471,0.204c0.074,0.186-0.018,0.397-0.204,0.471l-5.279,2.09
									C651.455,798.907,651.41,798.916,651.366,798.916z"/>
							</g>
							<g>
								<path style="fill:#371E17;" d="M655.565,801.812c-0.14,0-0.273-0.082-0.333-0.218l-1.696-3.887
									c-0.08-0.184,0.004-0.398,0.187-0.478c0.186-0.079,0.398,0.004,0.478,0.187l1.696,3.887c0.08,0.184-0.004,0.398-0.187,0.478
									C655.663,801.802,655.614,801.812,655.565,801.812z"/>
							</g>
						</g>
					</g>
				</g>
				<path style="fill:#FFFFFF;" d="M682.854,810.927c0,0-7.179,1.448-13.948-4.667L682.854,810.927z"/>
			</g>
			<path style="fill:#FFFFFF;" d="M605.543,979.752h110.633v-96.508c0-30.551-24.766-55.317-55.317-55.317h0
				c-30.551,0-55.317,24.766-55.317,55.317V979.752z"/>
			<g>
				<g>
					<g>
						<path style="fill:#F7B59B;" d="M820.19,831.975l21.887-15.066c1.936-1.333,3.28-3.365,3.748-5.668l2.885-14.186h0
							c2.254-0.264,3.202,1.427,3.375,3.69l0.598,7.269c0.048,0.581,0.727,0.87,1.179,0.503l16.721-13.589
							c0.918-0.738,2.4-0.715,3.294,0.052l0,0c0.524,0.759,0.448,1.781-0.181,2.454l-13.175,14.091l0.154,0.206l20.308-13.236
							c0.775-0.505,1.81-0.313,2.352,0.437c0.549,0.76,0.395,1.818-0.348,2.39l-19.1,14.694l0.045,0.06l19.448-9.896
							c0.821-0.418,1.822-0.025,2.14,0.84c0.247,0.672-0.003,1.427-0.603,1.818l-17.5,11.406l11.742-1.481
							c0.816-0.103,1.577,0.431,1.758,1.233l0,0c0.19,0.843-0.326,1.685-1.163,1.898l-9.247,2.952l0.007,0.01l-17.693,6.228
							c-2.387,0.84-4.536,2.243-6.266,4.09l-13.075,13.963L820.19,831.975z"/>
					</g>
					<path style="fill:#FFFFFF;" d="M678.989,835.804l27.185,5.067c44.714,8.334,90.928-0.435,129.481-24.569l0,0l12.01,23.28
						c0,0-31.031,47.061-80.19,63.029c-49.158,15.969-95.79-5.682-95.79-5.682L678.989,835.804z"/>
				</g>
				<path style="fill:#371E17;" d="M718.093,908.537c-1.926,0-28.076-0.217-46.653-11.193c-0.23-0.136-0.306-0.432-0.17-0.662
					c0.136-0.23,0.432-0.308,0.662-0.17c18.963,11.204,45.99,11.058,46.263,11.059c0.252-0.014,0.485,0.211,0.488,0.479
					c0.002,0.267-0.211,0.485-0.478,0.488C718.196,908.537,718.158,908.537,718.093,908.537z"/>
			</g>
			<g>
				<g>
					<path style="fill:#DEA75A;" d="M607.59,977.59l-41.35,335.439h49.694c0,0,59.36-215.83,58.535-278.556l0.206-56.883H607.59z"/>
					<path style="fill:#DEA75A;" d="M712.487,977.59c0,0,48.721,97.539,49.614,128.781s-29.457,159.779-29.457,159.779h-50.933
						l14.846-127.591c2.435-20.924-4.344-41.879-18.603-57.386c-24.607-26.76-61.665-71.054-70.364-103.583H712.487z"/>
				</g>
				<path style="fill:#371E17;" d="M670.94,1073.917c-0.032,0-0.064-0.003-0.096-0.01c-0.262-0.053-0.431-0.307-0.378-0.569
					l15.851-78.306c0.053-0.263,0.306-0.433,0.569-0.378c0.262,0.053,0.431,0.308,0.378,0.569l-15.851,78.306
					C671.367,1073.759,671.166,1073.917,670.94,1073.917z"/>
				<polygon style="fill:#371E17;" points="690.135,1266.15 684.855,1286.425 779.708,1286.425 732.644,1266.15 				"/>
				<polygon style="fill:#371E17;" points="578.25,1313.029 563.574,1345.807 596.546,1371.16 654.229,1371.16 620.457,1356.86 
					608.901,1338.492 615.934,1313.029 				"/>
			</g>
		</g>
	</g>
	<path style="fill:#371E17;" d="M1154.983,762.728H996.628c-0.259,0-0.469-0.21-0.469-0.469c0-0.259,0.21-0.469,0.469-0.469h158.356
		c9.929,0,18.006-8.078,18.006-18.006V617.699c0-9.929-8.078-18.006-18.006-18.006H973.444c-9.929,0-18.006,8.078-18.006,18.006
		v91.186c0,0.259-0.21,0.469-0.469,0.469c-0.259,0-0.469-0.21-0.469-0.469v-91.186c0-10.446,8.498-18.945,18.945-18.945h181.539
		c10.446,0,18.945,8.499,18.945,18.945v126.084C1173.928,754.23,1165.429,762.728,1154.983,762.728z"/>
</g>
<g id="man1">
	<g>
		<g>
			<path style="fill:#F7B59B;" d="M1299.568,373.13c-6.453,4.409-13.939,9.525-13.939,9.525l-10.509-22.324
				c-1.39-2.953-3.472-5.528-6.068-7.506l-9.431-7.185c-2.597-1.978-4.121-5.056-4.121-8.32l0,0c0-4.138,1.871-8.054,5.09-10.654
				l8.919-7.203c1.337-1.079,3.313-0.765,4.249,0.676l2.967,4.57c0.409,0.63,1.357,0.544,1.646-0.15l3.617-8.685
				c1.11-2.709,2.944-4.408,5.606-3.19l-2.085,18.556c-0.339,3.013,0.505,6.04,2.352,8.443l20.887,27.174
				C1308.748,366.857,1304.454,369.791,1299.568,373.13z"/>
		</g>
		<g>
			<path style="fill:#FFFFFF;" d="M1270.831,296.793c-13.039-14.084-35.105-14.933-49.189-1.894
				c-8.115,7.513-11.826,18.022-11.028,28.274l-24.716-26.695l0.354-0.132l-22.97-24.81l6.552-149.88l-22.014-28.677v161.857
				l-110.248-119.077l3.329,35.998l106.919,105.812v34.257l0.35-0.143v36.38c-6.38-8.065-16.243-13.255-27.301-13.255
				c-19.193,0-34.808,15.615-34.808,34.808c0,19.193,15.615,34.807,34.808,34.807c19.193,0,34.807-15.615,34.807-34.807v-61.007
				l6.094-2.496l0.618-14.128l9.747,9.646l6.168-2.309l41.446,44.766c13.039,14.083,35.105,14.933,49.188,1.894
				C1283.021,332.942,1283.87,310.876,1270.831,296.793z M1120.868,396.917c-15.055,0-27.302-12.247-27.302-27.301
				c0-15.054,12.247-27.302,27.302-27.302c15.054,0,27.301,12.247,27.301,27.302
				C1148.169,384.669,1135.922,396.917,1120.868,396.917z M1263.837,340.474c-11.046,10.227-28.354,9.561-38.581-1.485
				c-10.228-11.047-9.561-28.354,1.485-38.582c11.047-10.228,28.355-9.561,38.582,1.485
				C1275.551,312.938,1274.885,330.246,1263.837,340.474z"/>
			<path style="fill:#371E17;" d="M1163.281,272.141c-0.163,0-0.325-0.065-0.444-0.194l-15.461-16.7
				c-0.227-0.245-0.212-0.628,0.033-0.855c0.244-0.228,0.627-0.213,0.855,0.033l15.461,16.7c0.227,0.245,0.212,0.628-0.033,0.855
				C1163.576,272.088,1163.428,272.141,1163.281,272.141z"/>
			<path style="fill:#371E17;" d="M1162.387,292.59c-0.154,0-0.308-0.058-0.426-0.175l-14.568-14.417
				c-0.237-0.235-0.239-0.618-0.004-0.856c0.235-0.238,0.618-0.239,0.856-0.004l14.568,14.417c0.237,0.235,0.239,0.618,0.004,0.856
				C1162.699,292.53,1162.543,292.59,1162.387,292.59z"/>
			<path style="fill:#371E17;" d="M1158.827,274.552c0,1.497-1.214,2.71-2.71,2.71c-1.497,0-2.71-1.214-2.71-2.71
				s1.213-2.71,2.71-2.71C1157.613,271.842,1158.827,273.055,1158.827,274.552z"/>
		</g>
		<path style="fill:#F7B59B;" d="M1272.47,319.089l9.007,15.565c1.558,2.692,0.996,6.116-1.359,8.147
			c-4.228,3.645-11.779,7.545-21.23,1.274l-2.356-6.378L1272.47,319.089z"/>
		<path style="fill:#371E17;" d="M1269.761,347.706c-0.136,0-0.222-0.002-0.251-0.003c-0.129-0.004-0.231-0.112-0.228-0.241
			c0.004-0.13,0.115-0.226,0.241-0.228c0.083,0.002,7.999,0.18,11.263-4.477c0.075-0.105,0.222-0.131,0.327-0.057
			c0.106,0.074,0.132,0.221,0.057,0.327C1278.056,347.469,1271.187,347.706,1269.761,347.706z"/>
		<path style="fill:#371E17;" d="M1258.889,344.309c-0.065,0-0.13-0.027-0.177-0.08c-0.642-0.734-1.197-1.625-1.651-2.649
			c-0.053-0.119,0.001-0.257,0.119-0.31c0.12-0.053,0.257,0,0.309,0.119c0.435,0.981,0.965,1.833,1.576,2.531
			c0.085,0.098,0.075,0.246-0.022,0.331C1258.999,344.29,1258.943,344.309,1258.889,344.309z"/>
		<path style="fill:#371E17;" d="M1282.123,335.682c-0.083,0-0.163-0.044-0.206-0.122l-3.184-5.846
			c-0.062-0.114-0.02-0.256,0.094-0.318c0.114-0.062,0.256-0.02,0.318,0.094l3.184,5.846c0.062,0.114,0.02,0.256-0.094,0.318
			C1282.2,335.673,1282.161,335.682,1282.123,335.682z"/>
		<path style="fill:#371E17;" d="M1278.939,340.7c-0.059,0-0.118-0.022-0.163-0.066l-6.36-6.199
			c-7.567-8.564-5.64-12.925-5.554-13.107c0.056-0.118,0.196-0.168,0.312-0.112c0.117,0.055,0.167,0.194,0.112,0.311l0,0
			c-0.019,0.042-1.85,4.3,5.469,12.584l6.348,6.187c0.093,0.09,0.095,0.239,0.004,0.332C1279.061,340.677,1279,340.7,1278.939,340.7
			z"/>
		<path style="fill:#371E17;" d="M1272.007,343.585c-0.057,0-0.114-0.021-0.159-0.063l-6.229-5.769
			c-7.453-7.772-5.318-11.085-5.224-11.223c0.074-0.108,0.22-0.134,0.326-0.061c0.106,0.073,0.134,0.218,0.062,0.325
			c-0.026,0.04-1.958,3.197,5.165,10.624l6.218,5.759c0.095,0.088,0.101,0.236,0.013,0.331
			C1272.134,343.56,1272.071,343.585,1272.007,343.585z"/>
		<path style="fill:#371E17;" d="M1266.823,344.854c-0.05,0-0.1-0.015-0.142-0.047l-6.1-4.629c-4.849-4.253-4.464-7.546-4.445-7.685
			c0.018-0.128,0.132-0.217,0.263-0.2c0.128,0.017,0.218,0.134,0.202,0.263c-0.004,0.031-0.349,3.201,4.277,7.259l6.086,4.618
			c0.104,0.079,0.124,0.226,0.045,0.329C1266.964,344.822,1266.894,344.854,1266.823,344.854z"/>
	</g>
	<g>
		<path style="fill:#a855f7;" d="M1490.418,443.96l-26.078-13.542c-58.188-7.508-120.732-27.625-158.479-72.541v0l-23.975,23.809
			c0,0,31.036,67.061,85.039,106.16c54.003,39.1,108.21,34.034,108.21,34.034L1490.418,443.96z"/>
		<g>
			<g>
				<g>
					<g>
						<path style="fill:#F7B59B;" d="M1405.891,649.471l-25.384,23.029c-2.245,2.037-5.193,3.124-8.224,3.031l-18.665-0.568h0
							c-0.997,2.752,0.846,4.442,3.636,5.328l8.951,2.899c0.715,0.232,0.878,1.169,0.283,1.628l-22.003,16.98
							c-1.198,0.934-1.606,2.802-0.908,4.151v0c0.798,0.882,2.103,1.089,3.135,0.497l21.586-12.38l0.213,0.255l-22.619,21.588
							c-0.863,0.824-0.927,2.18-0.146,3.082c0.792,0.914,2.166,1.033,3.104,0.269l24.094-19.641l0.063,0.075l-18.172,21.495
							c-0.767,0.907-0.569,2.281,0.422,2.935c0.771,0.509,1.792,0.417,2.461-0.221l19.493-18.602l-5.328,14.305
							c-0.37,0.994,0.075,2.107,1.029,2.571h0c1.003,0.488,2.212,0.089,2.727-0.9l6.439-10.739l0.01,0.012l13.048-20.376
							c1.76-2.749,4.157-5.033,6.987-6.659l21.395-12.291L1405.891,649.471z"/>
					</g>
					<path style="fill:#a855f7;" d="M1463.843,462.829l-1.67,35.632c-2.747,58.606-27.413,114.042-69.108,155.318v0l25.681,21.958
						c0,0,68.259-25.057,102.834-82.063c34.576-57.006,21.169-121.954,21.169-121.954L1463.843,462.829z"/>
				</g>
			</g>
			<path style="fill:#371E17;" d="M1366.101,684.707c-0.097,0-0.187-0.06-0.221-0.156c-0.044-0.123,0.021-0.256,0.143-0.3
				l5.113-1.813c0.119-0.042,0.256,0.021,0.299,0.143c0.044,0.122-0.021,0.256-0.142,0.3l-5.113,1.813
				C1366.154,684.703,1366.128,684.707,1366.101,684.707z"/>
		</g>
		<path style="fill:#a855f7;" d="M1552.287,600.933v-99.377c0-39.407-31.946-71.353-71.353-71.353h0
			c-39.407,0-71.353,31.946-71.353,71.353v99.377H1552.287z"/>
		<g>
			<g>
				<defs>
					<path id="XMLID_10_" d="M1490.564,383.829c1.221-6.829,1.397-11.882,1.397-11.882h-41.979c0,0-14.531,49.649,12.917,48.034
						c0.546-0.032,1.081-0.084,1.607-0.151l-0.634,40.692c6.908,0.138,13.753-3.461,19.433-7.766
						c8.184-6.203,11.668-16.65,9.449-26.676C1488.857,408.466,1489.652,394.772,1490.564,383.829z"/>
				</defs>
				<use xlink:href="#XMLID_10_"  style="overflow:visible;fill:#F7B59B;"/>
				<clipPath id="XMLID_00000047044495630129676820000005975306555612946104_">
					<use xlink:href="#XMLID_10_"  style="overflow:visible;"/>
				</clipPath>
			</g>
			<path style="fill:#371E17;" d="M1464.506,419.831c0,0,12.482-1.105,16.428-11.365c0,0-0.072,15.441-16.593,21.952
				L1464.506,419.831z"/>
			<g>
				<path style="fill:#371E17;" d="M1454.43,386.423c0.065,1.034-0.721,1.925-1.755,1.989s-1.925-0.721-1.99-1.755
					c-0.065-1.034,0.721-1.925,1.755-1.99C1453.475,384.603,1454.365,385.389,1454.43,386.423z"/>
			</g>
			<g>
				<path style="fill:#371E17;" d="M1466.965,386.294c0.065,1.034-0.721,1.925-1.755,1.989c-1.034,0.065-1.925-0.721-1.99-1.755
					c-0.065-1.034,0.721-1.925,1.755-1.99C1466.01,384.474,1466.9,385.26,1466.965,386.294z"/>
			</g>
			<g>
				<path style="fill:#371E17;" d="M1459.009,401.42c0.052-0.013,0.104-0.027,0.157-0.043c0.345-0.102,0.542-0.464,0.441-0.809
					c-0.102-0.346-0.502-0.529-0.809-0.441c-0.778,0.228-1.028-0.029-1.121-0.128c-1.454-1.542,0.53-9.14,2.121-13.567
					c0.122-0.338-0.054-0.712-0.392-0.833c-0.341-0.123-0.713,0.054-0.833,0.393c-0.733,2.038-4.264,12.334-1.843,14.902
					C1457.116,401.304,1457.822,401.719,1459.009,401.42z"/>
			</g>
			<path style="fill:#371E17;" d="M1496.754,360.056c-37.623-30.596-54.656,8.935-54.656,8.935s20.93,9.332,42.085,7.964
				l-0.461,1.488c-1.532,4.937-1.281,10.255,0.707,15.026l5.708,13.694c0,0,13.711-13.837,14.744-29.101
				C1505.35,371.121,1502.152,364.446,1496.754,360.056z"/>
			<g>
				<g>
					<path style="fill:#F7B59B;" d="M1495.076,395.872c-1.454,3.673-5.61,5.471-9.283,4.017c-3.673-1.454-5.471-5.61-4.017-9.283
						c1.454-3.673,5.61-5.471,9.283-4.017S1496.53,392.199,1495.076,395.872z"/>
				</g>
				<g>
					<g>
						<path style="fill:#371E17;" d="M1493.18,392.78c0.186,0,0.362-0.112,0.435-0.296c0.095-0.24-0.023-0.512-0.263-0.607
							l-6.809-2.695c-0.242-0.094-0.512,0.023-0.607,0.263c-0.095,0.24,0.023,0.512,0.263,0.607l6.809,2.695
							C1493.064,392.769,1493.123,392.78,1493.18,392.78z"/>
					</g>
					<g>
						<path style="fill:#371E17;" d="M1487.763,396.515c0.18,0,0.352-0.105,0.429-0.281l2.187-5.014
							c0.103-0.237-0.005-0.513-0.242-0.616c-0.24-0.102-0.513,0.006-0.616,0.242l-2.187,5.014
							c-0.103,0.237,0.005,0.513,0.242,0.616C1487.637,396.503,1487.7,396.515,1487.763,396.515z"/>
					</g>
				</g>
			</g>
			<path style="fill:#371E17;" d="M1456.186,411.535c-2.416,0-4.072-0.62-4.11-0.634c-0.311-0.121-0.465-0.471-0.344-0.782
				c0.121-0.311,0.468-0.465,0.782-0.346c0.33,0.127,8.153,3.012,14.381-5.175c0.203-0.267,0.583-0.317,0.848-0.115
				c0.267,0.202,0.317,0.582,0.115,0.848C1463.975,410.434,1459.406,411.535,1456.186,411.535z"/>
			<path style="fill:#371E17;" d="M1455.239,381.523c-0.123,0-0.247-0.037-0.354-0.115c-2.396-1.736-4.584-2.442-6.497-2.098
				c-2.093,0.375-3.148,1.925-3.158,1.941c-0.185,0.277-0.56,0.353-0.838,0.17c-0.278-0.184-0.356-0.557-0.173-0.835
				c0.053-0.081,1.324-1.983,3.928-2.462c2.255-0.417,4.764,0.359,7.449,2.304c0.27,0.196,0.331,0.575,0.135,0.845
				C1455.612,381.437,1455.426,381.523,1455.239,381.523z"/>
			<path style="fill:#371E17;" d="M1475.635,386.319c-0.193,0-0.383-0.092-0.5-0.262c-5.104-7.433-13.013-4.397-13.347-4.265
				c-0.311,0.124-0.662-0.028-0.786-0.338c-0.124-0.31,0.026-0.662,0.336-0.786c0.092-0.037,9.132-3.54,14.795,4.703
				c0.189,0.276,0.119,0.652-0.156,0.842C1475.873,386.285,1475.753,386.319,1475.635,386.319z"/>
			<path style="fill:#371E17;" d="M1469.773,407.021c-0.142,0-0.284-0.049-0.399-0.15l-4.54-3.987
				c-0.251-0.22-0.275-0.603-0.056-0.854c0.223-0.251,0.603-0.275,0.854-0.055l4.54,3.987c0.251,0.22,0.275,0.603,0.056,0.854
				C1470.108,406.952,1469.941,407.021,1469.773,407.021z"/>
		</g>
		<path style="fill:#21140F;" d="M1516.878,601.403c-0.094,0-0.188-0.028-0.269-0.085c-0.212-0.149-0.264-0.441-0.114-0.654
			c0.25-0.356,25.014-36.082,27.518-74.471c0.016-0.258,0.248-0.45,0.498-0.438c0.259,0.017,0.455,0.24,0.438,0.499
			c-2.521,38.656-27.434,74.59-27.686,74.949C1517.171,601.333,1517.025,601.403,1516.878,601.403z"/>
		<path style="fill:#21140F;" d="M1433.092,601.403c-0.091,0-0.182-0.026-0.262-0.08c-0.215-0.145-0.273-0.436-0.128-0.651
			c0.281-0.418,28.101-42.272,26.665-85.088c-0.009-0.259,0.194-0.476,0.453-0.484c0.255-0.031,0.476,0.194,0.484,0.453
			c1.446,43.124-26.541,85.223-26.823,85.643C1433.39,601.33,1433.242,601.403,1433.092,601.403z"/>
		<path style="fill:#21140F;" d="M1409.581,516.54c-0.259,0-0.469-0.21-0.469-0.469v-23.534c0-0.259,0.21-0.469,0.469-0.469
			c0.259,0,0.469,0.21,0.469,0.469v23.534C1410.05,516.33,1409.839,516.54,1409.581,516.54z"/>
	</g>
</g>
<g id="ine_floor">
	<path style="fill:#371E17;" d="M479.43,1543.225H275.029c-0.267,0-0.483-0.217-0.483-0.483s0.216-0.483,0.483-0.483H479.43
		c0.267,0,0.483,0.217,0.483,0.483S479.697,1543.225,479.43,1543.225z"/>
	<path style="fill:#371E17;" d="M1072.826,1540.894h-96.299c-0.267,0-0.483-0.217-0.483-0.483s0.216-0.483,0.483-0.483h96.299
		c0.267,0,0.483,0.217,0.483,0.483S1073.093,1540.894,1072.826,1540.894z"/>
	<path style="fill:#371E17;" d="M1896.884,1534.682h-252.074c-0.267,0-0.483-0.217-0.483-0.483s0.217-0.483,0.483-0.483h252.074
		c0.267,0,0.483,0.217,0.483,0.483S1897.15,1534.682,1896.884,1534.682z"/>
	<path style="fill:#371E17;" d="M2422.645,1534.682h-250.441c-0.267,0-0.483-0.217-0.483-0.483s0.217-0.483,0.483-0.483h250.441
		c0.267,0,0.483,0.217,0.483,0.483S2422.912,1534.682,2422.645,1534.682z"/>
</g>
<g id="brick">
	<g>
		<g>
			<path style="fill:#371E17;" d="M594.687,577.727H481.867v-37.043h112.819V577.727z M482.834,576.76H593.72v-35.109H482.834
				V576.76z"/>
			<path style="fill:#371E17;" d="M650.613,613.802h-112.82V576.76h112.82V613.802z M538.76,612.836h110.886v-35.109H538.76V612.836
				z"/>
			<path style="fill:#371E17;" d="M706.54,577.727H593.72v-37.043h112.82V577.727z M594.687,576.76h110.886v-35.109H594.687V576.76z
				"/>
		</g>
		<g>
			<path style="fill:#371E17;" d="M426.908,613.802h-112.82V576.76h112.82V613.802z M315.055,612.836h110.886v-35.109H315.055
				V612.836z"/>
			<path style="fill:#371E17;" d="M482.834,649.879h-112.82v-37.043h112.82V649.879z M370.981,648.912h110.886v-35.109H370.981
				V648.912z"/>
			<path style="fill:#371E17;" d="M538.76,613.802H425.941V576.76H538.76V613.802z M426.908,612.836h110.886v-35.109H426.908
				V612.836z"/>
		</g>
	</g>
	<g>
		<path style="fill:#371E17;" d="M2060.367,706.899h-112.819v-37.043h112.819V706.899z M1948.514,705.932H2059.4v-35.109h-110.886
			V705.932z"/>
		<path style="fill:#371E17;" d="M2116.294,742.975h-112.819v-37.042h112.819V742.975z M2004.441,742.008h110.886v-35.109h-110.886
			V742.008z"/>
		<path style="fill:#371E17;" d="M2172.22,706.899H2059.4v-37.043h112.82V706.899z M2060.367,705.932h110.887v-35.109h-110.887
			V705.932z"/>
		<path style="fill:#371E17;" d="M2236.293,844.114h-112.82v-37.043h112.82V844.114z M2124.439,843.147h110.887v-35.109h-110.887
			V843.147z"/>
		<path style="fill:#371E17;" d="M2172.22,631.841H2059.4v-37.042h112.82V631.841z M2060.367,630.874h110.887v-35.109h-110.887
			V630.874z"/>
		<path style="fill:#371E17;" d="M2004.441,670.823h-112.82V633.78h112.82V670.823z M1892.588,669.856h110.887v-35.109h-110.887
			V669.856z"/>
		<g>
			<path style="fill:#371E17;" d="M1892.588,742.975h-112.819v-37.042h112.819V742.975z M1780.735,742.008h110.886v-35.109h-110.886
				V742.008z"/>
			<path style="fill:#371E17;" d="M1948.514,779.051h-112.819v-37.043h112.819V779.051z M1836.662,778.084h110.886v-35.109h-110.886
				V778.084z"/>
			<path style="fill:#371E17;" d="M2004.441,742.975h-112.82v-37.042h112.82V742.975z M1892.588,742.008h110.887v-35.109h-110.887
				V742.008z"/>
		</g>
	</g>
	<g>
		<path style="fill:#371E17;" d="M1033.039,1183.608h-112.82v-37.043h112.82V1183.608z M921.186,1182.641h110.886v-35.109H921.186
			V1182.641z"/>
		<path style="fill:#371E17;" d="M977.113,1147.531h-112.82v-37.043h112.82V1147.531z M865.26,1146.565h110.886v-35.109H865.26
			V1146.565z"/>
		<path style="fill:#371E17;" d="M921.186,1183.608H808.367v-37.043h112.819V1183.608z M809.334,1182.641h110.886v-35.109H809.334
			V1182.641z"/>
	</g>
</g>
</svg>
