<?xml version="1.0" encoding="utf-8"?>
<!-- Generator: Adobe Illustrator 27.5.0, SVG Export Plug-In . SVG Version: 6.00 Build 0)  -->
<svg version="1.1" xmlns="http://www.w3.org/2000/svg" xmlns:xlink="http://www.w3.org/1999/xlink" x="0px" y="0px"
	 viewBox="0 0 500 500" style="enable-background:new 0 0 500 500;" xml:space="preserve">
<g id="Background_Simple">
	<g>
		<path style="fill:#ebebeb;" d="M457.106,180.127c-7.03-26.588-17.567-51.143-38.996-71.374
			c-19.197-18.124-42.977-29.186-67.729-35.157c-54.045-13.038-110.847-10.048-164.522,4.686
			c-35.314,9.694-70.231,24.926-97.274,51.451C55.89,161.801,36.85,210.488,40.833,258.165
			c3.983,47.678,31.871,92.805,72.037,112.425c36.524,17.84,78.458,14.343,118.342,10.498l47.715,1.015
			c35.169,0.748,70.191-6.322,102.155-21.587c6.584-3.144,13.033-6.609,19.294-10.499c25.046-15.557,47.193-38.83,56.554-68.493
			C467.034,249.506,465.707,212.659,457.106,180.127z"/>
		<g>
			<g>
				<g>
					<path style="fill:#FFFFFF;" d="M355.069,124.344c1.63-0.692,72.394,9.338,71.589,13.887
						c-0.429,2.423-10.628,51.076-15.967,53.141c-5.339,2.066-67.999-13.885-69.418-15.568
						C339.853,174.12,351.856,125.708,355.069,124.344z"/>
				</g>
			</g>
			<g>
				<g>
					<g>
						<path style="fill:#ebebeb;" d="M425.67,138.824c-10.597,8.621-21.998,16.743-34.124,23.057
							c-2.763,1.439-5.747,2.585-8.908,2.171c-2.661-0.348-5.122-1.634-7.14-3.382c-2.311-2.002-4.202-4.648-5.958-7.14
							c-1.903-2.7-3.608-5.537-5.188-8.439c-3.532-6.485-6.475-13.273-9.924-19.802c-0.512-0.969,0.952-1.832,1.465-0.861
							c5.635,10.668,9.987,22.192,17.675,31.625c1.998,2.452,4.146,4.734,7.2,5.807c3.366,1.182,6.588,0.256,9.654-1.314
							c5.589-2.863,10.955-6.299,16.186-9.77c6.164-4.091,12.123-8.487,17.864-13.158
							C425.312,136.933,426.52,138.133,425.67,138.824L425.67,138.824z"/>
					</g>
				</g>
			</g>
			<g>
				<g>
					<g>
						<path style="fill:#ebebeb;" d="M395.091,158.859c6.494,9.954,12.36,20.305,17.567,30.998c0.478,0.982-0.984,1.848-1.465,0.861
							c-5.206-10.692-11.072-21.043-17.567-30.997C393.025,158.8,394.494,157.944,395.091,158.859L395.091,158.859z"/>
					</g>
				</g>
			</g>
			<g>
				<g>
					<g>
						<path style="fill:#ebebeb;" d="M371.364,156.357c-10.077,5.703-19.759,12.081-28.983,19.094
							c-0.871,0.662-1.717-0.818-0.856-1.473c9.224-7.013,18.905-13.392,28.983-19.094
							C371.461,154.344,372.317,155.818,371.364,156.357L371.364,156.357z"/>
					</g>
				</g>
			</g>
		</g>
		<g>
			<path style="fill:#FFFFFF;" d="M245.885,84.195c-0.388,0.896-8.088,19.163-8.088,19.163s-17.055-9.055-14.045-2.213
				c3.01,6.841,6.732,17.097,6.732,17.097s-15.147,4.653-11.415,6.634c3.732,1.981,15.438,5.712,15.438,5.712
				s-6.426,22.805-1.206,18.125c5.219-4.68,11.523-12.648,11.523-12.648s28.859,13.666,24.25,8.459
				c-4.61-5.207-13.318-18.822-13.318-18.822s24.18-16.254,19.646-17.833c-4.534-1.579-22.197,0.91-22.197,0.91
				S246.747,82.206,245.885,84.195z"/>
		</g>
		<g>
			<path style="fill:#FFFFFF;" d="M54.794,218.239c0.435,0.43,9.342,9.072,9.342,9.072s-9.157,7.893-4.482,7.691
				c4.675-0.202,11.504-0.043,11.504-0.043s-0.727,9.894,1.277,8.167c2.004-1.727,6.84-7.709,6.84-7.709s11.845,8.93,10.3,4.822
				c-1.545-4.108-4.761-9.596-4.761-9.596s14.53-13.732,10.445-12.226s-14.007,3.493-14.007,3.493s-3.989-17.8-5.94-15.513
				c-1.951,2.286-4.512,13.157-4.512,13.157S53.829,217.284,54.794,218.239z"/>
		</g>
		<g>
			<g>
				<g>
					<path style="fill:#FFFFFF;" d="M129.666,248.869c-1.452-0.637-64.508,8.602-63.791,12.791
						c0.382,2.232,9.47,47.046,14.228,48.948c4.757,1.903,60.592-12.789,61.856-14.34
						C143.225,294.717,132.53,250.125,129.666,248.869z"/>
				</g>
			</g>
			<g>
				<g>
					<g>
						<path style="fill:#ebebeb;" d="M66.756,262.206c9.443,7.941,19.602,15.422,30.407,21.238c2.462,1.325,5.121,2.381,7.938,2
							c2.371-0.321,4.564-1.505,6.362-3.115c2.059-1.844,3.745-4.281,5.309-6.577c1.696-2.487,3.215-5.1,4.623-7.773
							c3.147-5.974,5.77-12.226,8.843-18.239c0.456-0.893-0.848-1.688-1.305-0.793c-5.022,9.826-8.899,20.441-15.75,29.129
							c-1.781,2.258-3.694,4.361-6.416,5.348c-2.999,1.088-5.871,0.236-8.602-1.21c-4.98-2.637-9.762-5.802-14.423-9
							c-5.493-3.768-10.802-7.817-15.918-12.12C67.076,260.464,65.999,261.569,66.756,262.206L66.756,262.206z"/>
					</g>
				</g>
			</g>
			<g>
				<g>
					<g>
						<path style="fill:#ebebeb;" d="M94.004,280.661c-5.787,9.169-11.014,18.703-15.653,28.552
							c-0.426,0.905,0.877,1.702,1.305,0.793c4.639-9.849,9.866-19.383,15.653-28.552C95.845,280.606,94.537,279.818,94.004,280.661
							L94.004,280.661z"/>
					</g>
				</g>
			</g>
			<g>
				<g>
					<g>
						<path style="fill:#ebebeb;" d="M115.146,278.355c8.98,5.253,17.607,11.128,25.826,17.588c0.776,0.61,1.53-0.754,0.763-1.357
							c-8.219-6.46-16.846-12.335-25.826-17.588C115.06,276.502,114.298,277.859,115.146,278.355L115.146,278.355z"/>
					</g>
				</g>
			</g>
		</g>
		<g>
			<g>
				<path style="fill:#FFFFFF;" d="M238.982,247.694c1.976-0.879,5.713-24.243,3.783-24.263c-5.761-0.059-20.455,5.706-23.675,8.436
					C218.377,232.68,236.199,248.931,238.982,247.694z"/>
			</g>
			<g>
				<path style="fill:#FFFFFF;" d="M236.779,228.411c0,0-5.411-16.259-7.049-19.66c-1.876-3.895-11.08,2.496-10.375,4.462
					c0.705,1.966,8.471,18.458,8.471,18.458L236.779,228.411z"/>
			</g>
		</g>
		<g>
			<path style="fill:#FFFFFF;" d="M310.438,99.121l4.634-14.67l5.263,14.67c0,0,10.514,1.859,10.637,2.878
				c0.12,0.997-10.063,4.117-10.063,4.117s-4.274,14.224-5.836,11.002c-1.563-3.221-3.078-10.352-3.078-10.352
				s-13.24-2.859-13.24-4.262C298.753,100.984,310.438,99.121,310.438,99.121z"/>
		</g>
		<g>
			<path style="fill:#FFFFFF;" d="M109.684,140.249l3.564-11.282l4.048,11.282c0,0,8.086,1.43,8.181,2.214
				c0.092,0.766-7.74,3.166-7.74,3.166s-3.287,10.939-4.489,8.462c-1.202-2.477-2.367-7.962-2.367-7.962s-10.183-2.199-10.183-3.278
				C100.698,141.682,109.684,140.249,109.684,140.249z"/>
		</g>
		<g>
			<path style="fill:#FFFFFF;" d="M427.686,243.618l4.634-14.67l5.263,14.67c0,0,10.514,1.859,10.637,2.878
				c0.12,0.997-10.064,4.117-10.064,4.117s-4.274,14.224-5.836,11.002c-1.563-3.221-3.078-10.352-3.078-10.352
				s-13.24-2.859-13.24-4.262C416.002,245.481,427.686,243.618,427.686,243.618z"/>
		</g>
	</g>
</g>
<g id="Speech_Bubble">
	<g>
		<g>
			<path style="fill:#a855f7;" d="M216.484,209.602c-2.04-12.658,4.678-26.255,15.971-32.326
				c-12.897-9.113-16.478-25.505-13.182-40.949c-6.439,3.37-17.714,0.851-23.676-3.306c-5.962-4.157-10.189-10.299-14.283-16.304
				l-0.435,0.21c-4.633,5.404-13.205,14.534-20.283,15.288c-7.078,0.754-14.417-1.292-20.084-5.599
				c0.553,13.833-7.412,27.657-19.657,34.117c13.687,11.84,11.313,31.542,4.816,46.292c14.242-4.517,41.95,4.673,49.769,17.405
				c0.707-8.373,8.141-15.043,16.286-17.108C199.871,205.259,208.507,206.964,216.484,209.602z"/>
		</g>
		<g>
			<g>
				<path style="fill:#421B36;" d="M194.402,154.773c-0.25-3.612-2.42-6.898-5.257-9.149c-2.099-1.665-4.632-2.859-7.304-3.052
					c-2.672-0.193-5.475,0.697-7.308,2.651c-1.833,1.953-2.526,5.005-1.417,7.443l16.178,10.875
					C192.667,162.226,194.652,158.385,194.402,154.773z"/>
			</g>
			<g>
				<path style="fill:#FFBC42;" d="M183.905,153.826c0,0-15.078-10.971-32.351,4.9c-17.273,15.871-16.51,15.413-28.673,18.444
					c-12.162,3.031-22.282,7.389-26.856,15.327l48.933,26.001L183.905,153.826z"/>
			</g>
			<g>
				<path style="fill:#FFBC42;" d="M183.255,153.413c0,0,16.201,9.652,6.536,31.026c-9.665,21.374-9.468,20.506-8.539,33.006
					c0.929,12.5-0.343,23.107-6.449,29.936l-39.714-37.963L183.255,153.413z"/>
			</g>
			<g>
				
					<ellipse transform="matrix(0.5582 -0.8297 0.8297 0.5582 -121.9339 209.6541)" style="fill:#a855f7;" cx="135.903" cy="219.326" rx="12.943" ry="48.064"/>
			</g>
			<g style="opacity:0.3;">
				<g>
					<path style="fill:#421B36;" d="M151.504,225.524c-0.57-0.131-1.097-0.251-1.624-0.372c-1.07-0.636-2.431,0.813-2.353,1.908
						c0.751,0.525,1.393,0.976,2.033,1.427c-0.012,0.124-0.024,0.247-0.036,0.371C151.58,229.268,152.479,227.139,151.504,225.524z"
						/>
				</g>
				<g>
					<path style="fill:#421B36;" d="M151.876,216.887c0.061-0.81-0.631-0.785-1.108-0.998c-0.652,0.083-1.33,0.099-1.783,0.693
						c0.053,0.221,0.228,0.542,0.142,0.645c-0.742,0.886-0.194,1.389,0.395,1.899c0.388-0.112,0.675-0.191,0.962-0.273
						c-0.024,0.247-0.047,0.494-0.071,0.742c1.229,0.505,2.568-0.437,2.765-1.714C152.724,217.535,152.302,217.211,151.876,216.887z
						"/>
				</g>
				<g>
					<path style="fill:#421B36;" d="M149.062,233.674c-0.012,0.124-0.024,0.247-0.036,0.371c-2.152-0.377-1.769,2.272-0.284,2.964
						C150.856,237.201,152.593,233.544,149.062,233.674z"/>
				</g>
				<g>
					<path style="fill:#421B36;" d="M168.773,230.331c0.02-0.018,0.035-0.039,0.054-0.057c-0.762-0.863-1.574-1.742-2.436-2.635
						C165.727,228.771,166.108,230.321,168.773,230.331z"/>
				</g>
				<g>
					<path style="fill:#421B36;" d="M156.086,221.147c-2.348-1.037-3.504,1.229-2.417,3.174c0.734,0.296,1.324-0.235,1.829,0.256
						C157.025,224.646,157.312,221.793,156.086,221.147z"/>
				</g>
				<g>
					<path style="fill:#421B36;" d="M170.031,241.132c-0.944,1.278-0.363,2.67,1.034,3.272
						C174.61,243.839,171.965,237.737,170.031,241.132z"/>
				</g>
				<g>
					<path style="fill:#421B36;" d="M175.472,239.897c-0.366-0.842-0.842-1.738-1.403-2.671c-0.125,0.054-0.246,0.108-0.392,0.164
						C174.51,238.314,174.373,239.406,175.472,239.897z"/>
				</g>
				<g>
					<path style="fill:#421B36;" d="M170.307,233.079c0.194,1.233,1.51,2.381,2.348,1.989c-0.651-0.923-1.377-1.877-2.181-2.86
						C170.375,232.461,170.305,232.743,170.307,233.079z"/>
				</g>
				<g>
					<path style="fill:#421B36;" d="M154.829,229.599c-2.158-0.029-2.963,1.396-2.111,3.256
						C155.287,234.708,156.975,231.489,154.829,229.599z"/>
				</g>
				<g>
					<path style="fill:#421B36;" d="M175.782,246.156c0.087-0.129,0.153-0.27,0.223-0.409c-1.239-0.62-2.53,0.72-2.389,1.987
						C174.565,247.39,175.301,246.871,175.782,246.156z"/>
				</g>
				<g>
					<path style="fill:#421B36;" d="M153.683,242.316c2.684-1.221,0.965-3.635-1.479-3.439c-0.446,0.744-0.413,1.581-0.394,2.429
						C152.472,241.663,153.106,242.005,153.683,242.316z"/>
				</g>
				<g>
					<path style="fill:#421B36;" d="M163.995,231.497c-1.158-0.45-1.977-0.793-2.752,0.489
						C162.726,236.655,166.629,233.132,163.995,231.497z"/>
				</g>
				<g>
					<path style="fill:#421B36;" d="M165.35,236.189c0.431,4.972,6.448,1.727,1.754-0.76
						C166.48,235.702,165.934,235.935,165.35,236.189z"/>
				</g>
				<g>
					<path style="fill:#421B36;" d="M164.102,225.337c-0.497-0.482-1.007-0.968-1.529-1.456c-0.029,0.158-0.056,0.308-0.086,0.473
						C163.019,225.141,163.589,225.387,164.102,225.337z"/>
				</g>
				<g>
					<path style="fill:#421B36;" d="M164.02,240.523c-0.852-0.082-1.512-0.145-2.152-0.206c-0.454,0.607-1.397,0.727-1.36,1.774
						C162.056,244.066,164.542,243.168,164.02,240.523z"/>
				</g>
				<g>
					<path style="fill:#421B36;" d="M168.208,246.095c-0.32-0.649-1.436-1.496-2.176-1.161c-0.399,0.667-1.598,0.271-1.6,1.161
						c0.255,0.74,0.542,1.244,0.848,1.551c0.451,0.093,0.891,0.175,1.319,0.246C167.148,247.63,167.702,246.981,168.208,246.095z"/>
				</g>
				<g>
					<path style="fill:#421B36;" d="M158.768,229.898c0.517-0.871,1.001-1.095,1.885-1.341c0.364-2.38-2.26-3.458-3.448-1.305
						C158.208,227.926,158.49,228.629,158.768,229.898z"/>
				</g>
				<g>
					<path style="fill:#421B36;" d="M156.052,244.433c-0.04,0.126-0.056,0.242-0.067,0.355c0.876,0.34,1.731,0.654,2.568,0.946
						C159.02,244.416,158.299,243.043,156.052,244.433z"/>
				</g>
				<g>
					<path style="fill:#421B36;" d="M159.861,237.632c0.047-0.488,0.087-0.905,0.142-1.482c-1.371-0.329-2.927-1.749-3.633,0.189
						c0.566,0.511,1.131,1.025,1.73,1.567C158.649,237.82,159.237,237.728,159.861,237.632z"/>
				</g>
				<g>
					<path style="fill:#421B36;" d="M127.341,222.349c4.311-0.54,2.868-5.229-0.94-4.007c-0.251,0.586-0.466,1.086-0.76,1.773
						C126.92,220.424,126.431,221.743,127.341,222.349z"/>
				</g>
				<g>
					<path style="fill:#421B36;" d="M112.676,208.298c-0.322,0.013-0.683,0.027-1.085,0.043c-2.182-2.785-2.767,1.278-1.654,2.934
						C111.161,212.677,114.182,209.887,112.676,208.298z"/>
				</g>
				<g>
					<path style="fill:#421B36;" d="M112.479,193.824c0.29-0.357,0.724-0.57,1.15-0.773c-0.962-0.342-1.898-0.652-2.803-0.929
						C110.921,192.78,111.404,193.431,112.479,193.824z"/>
				</g>
				<g>
					<path style="fill:#421B36;" d="M137.735,210.002c-0.649,0.483-1.414,0.879-1.804,1.641c0.296,0.889,0.518,1.265,0.649,2.226
						c1.098,0.04,2.081,0.435,3.176,0.057C139.493,212.334,139.765,210.399,137.735,210.002z"/>
				</g>
				<g>
					<path style="fill:#421B36;" d="M125.062,224.788c-0.264-1.192,0.113-2.159-1.318-2.696c-2.126,0.008-2.793,1.404-2.098,2.987
						c0.431,0.322,0.862,0.643,1.301,0.964C123.808,226.038,124.41,225.324,125.062,224.788z"/>
				</g>
				<g>
					<path style="fill:#421B36;" d="M108.424,193.667c-0.745,0.282-1.429,0.538-2.158,0.815
						C104.336,199.99,112.768,197.652,108.424,193.667z"/>
				</g>
				<g>
					<path style="fill:#421B36;" d="M134.606,221.015c0.749,0.437,0.652,1.137,0.187,1.981
						C140.55,223.841,139.061,215.7,134.606,221.015z"/>
				</g>
				<g>
					<path style="fill:#421B36;" d="M132.971,213.979c-3.349,0.856-2.067,4.883,0.886,3.733
						C135.183,216.982,134.298,214.392,132.971,213.979z"/>
				</g>
				<g>
					<path style="fill:#421B36;" d="M144.116,209.262c-0.329-0.225-0.655-0.45-0.988-0.674c-0.662-0.445-1.323-0.883-1.982-1.314
						c-0.226,0.245-0.392,0.553-0.445,0.982C141.395,210.077,143.011,210.315,144.116,209.262z"/>
				</g>
				<g>
					<path style="fill:#421B36;" d="M134.054,205.381c-1.93,0.407-2.668,1.668-1.545,3.418
						C135.566,209.831,137.12,207.03,134.054,205.381z"/>
				</g>
				<g>
					<path style="fill:#421B36;" d="M99.637,193.253c-1.217,0.04-1.998,0.624-2.594,1.805c0.7,3.189,4.17,2.217,3.744-0.817
						C100.421,193.928,100.011,193.574,99.637,193.253z"/>
				</g>
				<g>
					<path style="fill:#421B36;" d="M125.448,216.678c0.222-0.501,0.439-0.994,0.696-1.575
						C123.167,210.461,119.171,218.024,125.448,216.678z"/>
				</g>
				<g>
					<path style="fill:#421B36;" d="M102.6,198.279c-2.14-0.018-0.994,1.765-1.085,3.154c1.117-0.158,2.107-0.295,3.204-0.452
						C105.188,199.031,104.789,197.463,102.6,198.279z"/>
				</g>
				<g>
					<path style="fill:#421B36;" d="M141.783,235.648c-0.152-1.081-0.184-2.228-1.579-2.598
						C136.01,233.626,139.624,239.356,141.783,235.648z"/>
				</g>
				<g>
					<path style="fill:#421B36;" d="M107.19,202.499c-1.484-0.175-1.503,1.328-2.262,2.312c1.216,1.264,2.267,2.566,3.671,0.785
						C108.655,204.31,108.381,203.238,107.19,202.499z"/>
				</g>
				<g>
					<path style="fill:#421B36;" d="M118.732,221.364c3.128-0.873,2.427-4.043-0.45-3.782c-0.236,0.563-0.686,1.228-1.119,1.708
						C117.406,220.26,117.633,221.144,118.732,221.364z"/>
				</g>
				<g>
					<path style="fill:#421B36;" d="M114.24,205.601c0.173,3.605,3.768,1.144,3.808-1.26
						C116.364,203.002,114.954,204.076,114.24,205.601z"/>
				</g>
				<g>
					<path style="fill:#421B36;" d="M106.526,212.148c0.464,0.466,0.942,0.935,1.431,1.407
						C107.869,212.701,107.242,212.221,106.526,212.148z"/>
				</g>
				<g>
					<path style="fill:#421B36;" d="M144.993,220.336c-1.419,0.088-1.43,2.246-0.658,3.12
						C148.002,224.853,148.592,220.419,144.993,220.336z"/>
				</g>
				<g>
					<path style="fill:#421B36;" d="M142.617,238.521c1.099,0.594,2.183,1.16,3.256,1.704c0.155-0.212,0.288-0.461,0.389-0.751
						C145.234,237.438,143.578,237.25,142.617,238.521z"/>
				</g>
				<g>
					<path style="fill:#421B36;" d="M121.433,209.293c-1.671-1.916-4.11,0.079-2.988,2.283
						C120.486,213.288,121.574,211.219,121.433,209.293z"/>
				</g>
				<g>
					<path style="fill:#421B36;" d="M129.182,230.398c0.186-1.412-0.522-2.306-1.491-3.098c-0.533,0.362-1.034,0.701-1.528,1.037
						c0.829,0.578,1.665,1.154,2.516,1.727C128.847,230.178,129.014,230.286,129.182,230.398z"/>
				</g>
				<g>
					<path style="fill:#421B36;" d="M143.14,217.607c0.451-1.26-0.694-3.367-2.152-2.683c-0.21,1.284-1.378,2.559-0.491,3.62
						C141.454,219.294,142.913,218.773,143.14,217.607z"/>
				</g>
				<g>
					<path style="fill:#421B36;" d="M133.326,224.06c-2.354-0.764-2.358-0.763-3.575,1.212
						C131.145,228.309,134.555,226.339,133.326,224.06z"/>
				</g>
				<g>
					<path style="fill:#421B36;" d="M130.449,212.482c-0.197-1.119,0.384-2.806-1.078-3.005c-1.483-0.241-1.973,0.077-2.033,1.529
						C126.777,212.886,129.271,213.181,130.449,212.482z"/>
				</g>
				<g>
					<path style="fill:#421B36;" d="M144.668,232.574c0.491-0.119,0.963-0.232,1.405-0.338c1.105-1.782,0.897-2.289-1.422-3.257
						c-0.638,0.687-1.835,0.776-1.754,2.009C143.477,231.507,144.063,232.032,144.668,232.574z"/>
				</g>
				<g>
					<path style="fill:#421B36;" d="M131.323,231.806c0.132,0.085,0.264,0.169,0.396,0.254c-0.111-0.094-0.211-0.178-0.322-0.273
						C131.371,231.794,131.348,231.799,131.323,231.806z"/>
				</g>
				<g>
					<path style="fill:#421B36;" d="M113.673,201.742c-0.263-0.695-0.5-1.317-0.739-1.949c-0.806-0.17-1.097-0.359-1.719-1.005
						c-1.979,0.919-0.637,1.928-0.205,3.321C111.386,203.782,112.932,202.446,113.673,201.742z"/>
				</g>
				<g>
					<path style="fill:#421B36;" d="M142.147,226.915c0.201-0.735,0.378-1.373,0.632-2.293
						C138.227,223.035,137.298,228.676,142.147,226.915z"/>
				</g>
				<g>
					<path style="fill:#421B36;" d="M145.089,213.439c0.427,2.658,3.763,0.961,3.31-1.163c-0.217-0.158-0.434-0.315-0.653-0.473
						C146.33,211.064,144.747,211.545,145.089,213.439z"/>
				</g>
				<g>
					<path style="fill:#421B36;" d="M99.098,202.578c-0.277-0.142-0.532-0.204-0.772-0.212c0.447,0.689,0.939,1.396,1.479,2.124
						C100.024,204.031,99.895,203.394,99.098,202.578z"/>
				</g>
				<g>
					<path style="fill:#421B36;" d="M126.561,198.745c-0.971-0.499-1.93-0.978-2.877-1.436c-0.029,0.061-0.074,0.12-0.098,0.181
						C123.963,198.84,125.529,199.313,126.561,198.745z"/>
				</g>
				<g>
					<path style="fill:#421B36;" d="M119.409,200.148c-0.658,2.466,0.75,4.37,2.899,2.291
						C123.564,200.493,120.947,200.04,119.409,200.148z"/>
				</g>
				<g>
					<path style="fill:#421B36;" d="M137.803,230.092c-0.319-2.576-3.497-1.986-4.002,0.188c0.251,0.338,0.539,0.724,0.838,1.129
						C135.895,230.892,137.152,231.421,137.803,230.092z"/>
				</g>
				<g>
					<path style="fill:#421B36;" d="M126.534,207.414c-0.248-0.779-0.484-1.523-0.728-2.288c-0.891-0.341-1.668-0.233-2.433,0.445
						c0.03,0.791,0.114,1.649,0.24,2.427C124.793,208.438,125.724,208.279,126.534,207.414z"/>
				</g>
				<g>
					<path style="fill:#421B36;" d="M102.332,207.635c0.477,0.555,0.971,1.116,1.491,1.686
						C104.254,208.533,104.025,207.69,102.332,207.635z"/>
				</g>
				<g>
					<path style="fill:#421B36;" d="M102.547,190.456c-0.472,2.21,0.341,2.599,2.411,1.856c0.405-0.599,0.591-1.086,0.648-1.488
						C104.509,190.628,103.492,190.509,102.547,190.456z"/>
				</g>
				<g>
					<path style="fill:#421B36;" d="M113.699,213.145c-0.092,1.12-0.076,2.468,0.803,3.267c1.141,0.68,1.451-1.402,1.965-2.082
						C116.889,212.894,114.822,212.46,113.699,213.145z"/>
				</g>
				<g>
					<path style="fill:#421B36;" d="M117.756,195.346c-1.205-0.32-2.101-0.088-2.809,0.83c0.498,0.79,0.94,1.493,1.38,2.188
						C118.346,198.32,118.495,196.93,117.756,195.346z"/>
				</g>
				<g>
					<path style="fill:#421B36;" d="M129.894,204.609c0.468-0.897,0.883-1.697,1.369-2.63c-0.682-0.155-0.746-1.764-1.663-1.307
						C127.814,201.31,128.495,204.058,129.894,204.609z"/>
				</g>
			</g>
			<g>
				<path style="fill:#FFBC42;" d="M155.814,217.669c-4.751,7.432-14.627,9.604-22.059,4.853
					c-7.431-4.751-9.604-14.627-4.853-22.059"/>
			</g>
			<g>
				<g>
					<path style="fill:#421B36;" d="M176.558,246.609c2.258-3.552-0.672-8.387-2.663-11.335
						c-4.227-6.259-9.895-11.576-15.634-16.424c-7.843-6.625-16.344-12.521-25.25-17.624c-7.337-4.204-15.108-8.09-23.285-10.369
						c-4.09-1.14-11.437-3.079-14.477,1.185c-0.673,0.944,0.886,1.843,1.553,0.908c2.31-3.24,9.046-1.277,12.023-0.475
						c7.562,2.039,14.741,5.538,21.56,9.333c8.339,4.641,16.324,9.994,23.764,15.973c5.824,4.681,11.49,9.767,16.154,15.63
						c1.752,2.202,3.467,4.602,4.515,7.234c0.625,1.569,1.164,3.52,0.188,5.056C174.382,246.681,175.938,247.585,176.558,246.609
						L176.558,246.609z"/>
				</g>
			</g>
			<g>
				<g>
					<path style="fill:#FFFFFF;" d="M178.339,153.394c-7.462-2.997-15.994-0.272-20.486,6.338c-0.652,0.96,0.906,1.861,1.553,0.908
						c4.073-5.994,11.766-8.198,18.454-5.511C178.935,155.56,179.401,153.821,178.339,153.394L178.339,153.394z"/>
				</g>
			</g>
			<g>
				<g>
					<path style="fill:#FFFFFF;" d="M155.619,163.902c1.157,0,1.159-1.799,0-1.799C154.462,162.103,154.46,163.902,155.619,163.902
						L155.619,163.902z"/>
				</g>
			</g>
		</g>
		<g>
			<path style="fill:#a855f7;" d="M217.018,196.506c6.466,4.471,15.586,4.72,22.286,0.608c-8.359-1.04-16.04-6.491-19.783-14.037"/>
		</g>
	</g>
</g>
<g id="Lines">
	<g>
		<g>
			<path style="fill:#421B36;" d="M88.353,372.801c-6.633,3.528-13.265,7.056-19.898,10.583c0.451,0.259,0.902,0.518,1.353,0.777
				c0.446-10.553,8.2-18.408,15.27-25.391c0.561-0.554,0.136-1.526-0.636-1.535c-10.393-0.126-20.542-2.949-29.51-8.203
				c0,0.518,0,1.035,0,1.553c9.927-4.473,20.704-6.712,31.588-6.618c1.158,0.01,1.159-1.789,0-1.799
				c-11.217-0.097-22.272,2.256-32.496,6.863c-0.635,0.286-0.536,1.239,0,1.553c9.235,5.41,19.716,8.319,30.418,8.449
				c-0.212-0.512-0.424-1.023-0.636-1.535c-7.444,7.353-15.328,15.585-15.797,26.663c-0.03,0.71,0.778,1.082,1.353,0.776
				c6.633-3.528,13.265-7.056,19.898-10.583C90.283,373.81,89.375,372.257,88.353,372.801L88.353,372.801z"/>
		</g>
	</g>
	<g>
		<g>
			<path style="fill:#421B36;" d="M89.05,336.485c-4.117-2.568-8.233-5.136-12.35-7.704c-0.985-0.614-1.889,0.941-0.908,1.553
				c4.117,2.568,8.233,5.136,12.35,7.704C89.127,338.653,90.031,337.097,89.05,336.485L89.05,336.485z"/>
		</g>
	</g>
	<g>
		<g>
			<path style="fill:#421B36;" d="M67.508,322.781c1.157,0,1.159-1.799,0-1.799C66.351,320.982,66.349,322.781,67.508,322.781
				L67.508,322.781z"/>
		</g>
	</g>
</g>
<g id="Character_00000106109015594294030580000010990004823823917221_">
	<g>
		<g>
			<path style="fill:#421B36;" d="M414.955,265.167c-2.405-8.103-8.319-14.927-15.563-19.282c3.43-0.055,6.432-2.785,7.548-6.029
				c1.115-3.244,0.62-6.855-0.564-10.075c-5.894-16.037-25.992-22.042-35.263-36.395c-6.512-10.082-7.215-23.635-15.691-32.133
				c-5.705-5.721-14.222-8.097-22.273-7.428c-8.051,0.669-15.668,4.12-22.351,8.661l0.475,29.156
				c11.839,17.207,19.731,37.111,22.901,57.755c1.584,10.317,2.103,21.131,7.038,30.328c4.389,8.18,12.07,14.378,20.742,17.692
				c8.671,3.314,18.267,3.856,27.425,2.34c7.967-1.318,16.035-4.416,21.184-10.636C415.955,282.61,417.359,273.27,414.955,265.167z"
				/>
		</g>
		<g>
			<path style="fill:#421B36;" d="M266.783,155.943c-6.805,1.388-13.314,5.201-16.894,11.152
				c-3.579,5.952-3.711,14.117,0.569,19.587c0.836,1.069,1.847,2.077,2.196,3.389c0.356,1.34-0.046,2.748-0.317,4.108
				c-1.075,5.401,0.02,11.202,2.988,15.841l32.083-52.925C280.678,155.378,273.587,154.555,266.783,155.943z"/>
		</g>
		<g>
			<path style="fill:#FFBC42;" d="M354.473,328.388c0.596,2.43,28.011,68.792,60.188,65.539
				c32.177-3.254,31.877-17.956,26.884-46.722c-4.994-28.766-53.863-77.963-78.524-84.336l-10.838,63.338"/>
		</g>
		<g>
			<path style="fill:#FFBC42;" d="M256.875,255.113c-2.26,0.377-96.924,3.985-116.348,10.942
				c-26.74,9.577-23.35,26.36-22.221,35.104c1.13,8.745,18.831,20.975,45.948,24.464s77.035-2.317,77.035-2.317l12.117-13.562
				L256.875,255.113z"/>
		</g>
		<g>
			<path style="fill:#FFBC42;" d="M376.033,269.876c-0.166-5.57-0.332-11.139-0.498-16.709c-0.173-5.806-0.382-11.777-2.706-17.101
				c-3.29-7.535-10.447-12.773-18.045-15.915c-12.552-5.189-26.803-5.491-40.015-2.343c-13.213,3.148-25.463,9.593-36.56,17.426
				c-6.449,4.552-14.838,10.318-18.964,17.047l-23.391,13.774l16.493,59.764l100.251-0.135l26.936-52.309L376.033,269.876z"/>
		</g>
		<g>
			<g>
				<g>
					<path style="fill:#a855f7;" d="M373.187,386.319c-6.179,3.9-255.131,5.9-267.541,2.489c-2.271-0.619-4.073-5.238-5.405-11.871
						c-3.768-18.634-3.895-53.053-0.634-59.01c5.9-10.763,256.235-9.209,270.459,0.835c0,0,0.051,0.043,0.165,0.13
						c0.152,0.129,0.431,0.345,0.787,0.647c0.089,0.072,0.19,0.144,0.292,0.245C384.023,332,379.556,382.304,373.187,386.319z"/>
				</g>
				<g>
					<path style="fill:#FFFFFF;" d="M136.998,334.021c0.33,0.358,0.496,0.703,0.496,1.033c0,0.247-0.062,0.489-0.187,0.724
						c-0.124,0.233-0.295,0.413-0.516,0.537c-0.221,0.124-0.454,0.185-0.703,0.185c-0.193,0-0.372-0.048-0.537-0.145
						c-0.166-0.096-0.344-0.212-0.537-0.351c-0.854-0.853-1.749-1.467-2.687-1.838c-0.936-0.372-2.011-0.558-3.222-0.558
						c-1.296,0-2.466,0.247-3.511,0.743c-1.048,0.496-1.875,1.156-2.48,1.983c-0.606,0.828-0.908,1.751-0.908,2.768
						c0,0.854,0.219,1.647,0.66,2.376c0.44,0.731,1.177,1.419,2.21,2.066c1.033,0.648,2.431,1.317,4.194,2.004
						c2.892,1.103,5.019,2.404,6.382,3.905c1.364,1.502,2.046,3.257,2.046,5.268c0,1.79-0.434,3.354-1.301,4.689
						c-0.868,1.336-2.081,2.369-3.637,3.098c-1.557,0.731-3.381,1.096-5.475,1.096c-1.185,0-2.341-0.139-3.471-0.413
						c-1.13-0.275-2.168-0.662-3.119-1.158c-0.95-0.496-1.769-1.074-2.458-1.735c-0.192-0.193-0.337-0.392-0.434-0.599
						c-0.097-0.207-0.145-0.406-0.145-0.599c0-0.249,0.062-0.475,0.187-0.682c0.124-0.208,0.295-0.372,0.516-0.496
						c0.221-0.125,0.455-0.187,0.703-0.187c0.247,0,0.475,0.062,0.682,0.187c0.206,0.124,0.434,0.309,0.681,0.558
						c0.441,0.413,1.033,0.798,1.778,1.156c0.743,0.358,1.556,0.648,2.437,0.867c0.882,0.221,1.735,0.332,2.562,0.332
						c2.231,0,4.043-0.538,5.434-1.612c1.391-1.075,2.087-2.493,2.087-4.256c0-0.964-0.228-1.838-0.681-2.624
						c-0.455-0.784-1.22-1.535-2.293-2.251c-1.075-0.717-2.562-1.446-4.463-2.191c-2.782-1.1-4.813-2.32-6.094-3.656
						c-1.28-1.335-1.921-2.954-1.921-4.855c0-1.652,0.434-3.12,1.301-4.4c0.868-1.281,2.052-2.293,3.554-3.037
						c1.501-0.745,3.202-1.116,5.102-1.116c1.707,0,3.236,0.297,4.587,0.888C135.166,332.32,136.227,333.085,136.998,334.021z"/>
					<path style="fill:#FFFFFF;" d="M155.343,364.181c-1.213,0-2.39-0.178-3.533-0.537c-1.142-0.358-2.177-0.881-3.098-1.57
						c-0.923-0.689-1.66-1.543-2.21-2.562c-0.358-0.662-0.669-1.515-0.93-2.562c-0.261-1.047-0.461-2.184-0.599-3.409
						c-0.138-1.225-0.247-2.431-0.33-3.615c-0.083-1.183-0.124-2.258-0.124-3.222c0-1.405,0.041-2.885,0.124-4.442
						c0.083-1.556,0.178-3.127,0.289-4.71c0.11-1.584,0.207-3.091,0.288-4.525c0.028-0.551,0.192-0.943,0.496-1.178
						c0.304-0.233,0.634-0.351,0.992-0.351c0.275,0,0.523,0.056,0.743,0.166c0.221,0.11,0.406,0.268,0.558,0.475
						c0.152,0.207,0.214,0.503,0.186,0.888c-0.081,1.46-0.178,2.982-0.288,4.565c-0.111,1.585-0.206,3.155-0.289,4.71
						c-0.083,1.557-0.124,3.037-0.124,4.442c0,2.92,0.171,5.392,0.516,7.417s0.779,3.45,1.301,4.276
						c0.634,0.992,1.494,1.735,2.583,2.231c1.088,0.496,2.182,0.743,3.285,0.743c1.019,0,1.983-0.145,2.892-0.433
						c0.909-0.289,1.721-0.75,2.438-1.385c0.715-0.632,1.294-1.459,1.735-2.479c0.302-0.687,0.563-1.817,0.784-3.388
						c0.221-1.57,0.413-3.471,0.579-5.701c0.164-2.232,0.29-4.669,0.371-7.314c0.083-2.645,0.125-5.385,0.125-8.222
						c0-0.468,0.15-0.833,0.454-1.095c0.303-0.261,0.662-0.406,1.075-0.434c0.413,0,0.749,0.145,1.012,0.434
						c0.261,0.289,0.392,0.655,0.392,1.095c0.028,4.655-0.062,8.753-0.268,12.291c-0.207,3.54-0.461,6.426-0.764,8.656
						c-0.304,2.231-0.62,3.72-0.95,4.463c-0.662,1.57-1.495,2.816-2.5,3.739c-1.006,0.923-2.115,1.577-3.326,1.963
						C158.014,363.989,156.72,364.181,155.343,364.181z"/>
					<path style="fill:#FFFFFF;" d="M178.728,334.103c-0.222,0.082-0.429,0.097-0.62,0.041c-0.194-0.055-0.365-0.145-0.517-0.268
						c-0.152-0.124-0.275-0.275-0.372-0.454c-0.097-0.18-0.145-0.393-0.145-0.641c0-0.275,0.083-0.537,0.249-0.785
						c0.166-0.247,0.454-0.427,0.867-0.537c1.239-0.303,2.486-0.544,3.739-0.724c1.253-0.178,2.514-0.254,3.781-0.226
						c2.341,0.027,4.255,0.413,5.743,1.156c1.487,0.743,2.588,1.681,3.305,2.809c0.717,1.13,1.075,2.3,1.075,3.513
						c0,0.908-0.201,1.852-0.6,2.83c-0.399,0.978-1.054,1.894-1.962,2.747c-0.909,0.854-2.122,1.598-3.637,2.231
						c1.57,0.413,2.878,1.054,3.925,1.921c1.047,0.868,1.825,1.846,2.335,2.934c0.509,1.088,0.764,2.168,0.764,3.243
						c0,1.239-0.29,2.472-0.868,3.697c-0.577,1.227-1.446,2.342-2.602,3.347c-1.158,1.006-2.59,1.825-4.297,2.459
						c-1.709,0.632-3.705,0.977-5.992,1.033c-1.102,0.027-2.168,0.006-3.201-0.062c-1.033-0.07-2.115-0.173-3.245-0.311
						c-0.495-0.055-0.888-0.221-1.178-0.496c-0.288-0.275-0.433-0.606-0.433-0.991c0-0.332,0.074-0.593,0.226-0.785
						c0.152-0.193,0.344-0.344,0.579-0.455c0.233-0.11,0.461-0.15,0.682-0.124c1.102,0.139,2.184,0.256,3.243,0.351
						c1.061,0.097,2.156,0.145,3.285,0.145c1.652,0,3.141-0.228,4.461-0.681c1.322-0.455,2.459-1.06,3.409-1.818
						c0.951-0.757,1.681-1.596,2.191-2.52c0.509-0.923,0.764-1.866,0.764-2.831c0-1.046-0.284-2.009-0.847-2.892
						c-0.565-0.881-1.426-1.624-2.583-2.232c-1.157-0.604-2.602-1.019-4.338-1.239c-0.496,0.111-1.047,0.214-1.653,0.311
						c-0.607,0.097-1.213,0.173-1.818,0.228c-0.606,0.055-1.199,0.082-1.776,0.082c-0.662,0-1.31-0.02-1.942-0.062
						c-0.635-0.041-1.322-0.131-2.067-0.268c-0.302-0.055-0.577-0.138-0.826-0.247c-0.247-0.11-0.44-0.261-0.577-0.455
						c-0.139-0.193-0.207-0.426-0.207-0.703c0-0.274,0.083-0.516,0.247-0.722c0.166-0.207,0.399-0.378,0.702-0.517
						c0.302-0.136,0.689-0.247,1.156-0.33c0.936-0.164,1.778-0.268,2.521-0.309c0.743-0.042,1.46-0.062,2.149-0.062
						c0.77,0,1.494,0.02,2.17,0.062c0.674,0.041,1.259,0.131,1.755,0.268c2.286-0.579,4.05-1.474,5.289-2.685
						c1.239-1.213,1.859-2.521,1.859-3.926c0-0.826-0.275-1.617-0.826-2.375c-0.551-0.757-1.391-1.377-2.521-1.86
						c-1.13-0.481-2.576-0.722-4.338-0.722c-0.909,0-1.921,0.076-3.037,0.228C181.062,333.574,179.911,333.8,178.728,334.103z
						 M176.62,332.575c0.055-0.468,0.214-0.833,0.475-1.095c0.261-0.261,0.613-0.394,1.054-0.394c0.247,0,0.468,0.049,0.66,0.145
						c0.192,0.097,0.351,0.235,0.476,0.413c0.124,0.18,0.206,0.393,0.247,0.641c0.041,0.247,0.048,0.537,0.021,0.867
						c-0.275,2.562-0.517,5.669-0.724,9.318c-0.207,3.649-0.309,7.733-0.309,12.25c0,1.13,0,2.293,0,3.49
						c0,1.199,0.027,2.459,0.081,3.781c0,0.221-0.041,0.406-0.124,0.558c-0.083,0.152-0.2,0.289-0.351,0.413
						c-0.152,0.124-0.309,0.214-0.475,0.268c-0.164,0.055-0.344,0.083-0.537,0.083c-0.221,0-0.448-0.055-0.682-0.166
						c-0.235-0.11-0.427-0.261-0.579-0.454s-0.228-0.441-0.228-0.745c-0.027-1.321-0.048-2.567-0.062-3.739
						c-0.014-1.169-0.02-2.32-0.02-3.45c0-3.69,0.102-7.346,0.309-10.969C176.063,340.17,176.317,336.43,176.62,332.575z"/>
					<path style="fill:#FFFFFF;" d="M221.367,334.434c0.358,0.358,0.537,0.743,0.537,1.156c0,0.249-0.069,0.475-0.207,0.682
						c-0.138,0.207-0.316,0.379-0.537,0.517c-0.221,0.138-0.454,0.207-0.703,0.207c-0.221,0-0.42-0.041-0.599-0.124
						c-0.18-0.083-0.337-0.207-0.475-0.372c-0.717-0.826-1.633-1.439-2.747-1.838c-1.116-0.399-2.459-0.6-4.029-0.6
						c-1.984,0-3.623,0.462-4.917,1.384c-1.296,0.923-1.942,2.087-1.942,3.492c0,0.826,0.226,1.591,0.682,2.293
						c0.454,0.703,1.225,1.391,2.313,2.066c1.089,0.674,2.583,1.412,4.484,2.21c2.286,0.964,4.11,1.935,5.475,2.913
						c1.363,0.978,2.355,2.032,2.975,3.16c0.62,1.13,0.929,2.383,0.929,3.76c0,1.681-0.454,3.188-1.363,4.525
						c-0.909,1.336-2.17,2.403-3.78,3.201c-1.612,0.799-3.478,1.199-5.6,1.199c-1.266,0-2.498-0.159-3.697-0.475
						c-1.199-0.318-2.3-0.743-3.305-1.281c-1.006-0.537-1.88-1.149-2.625-1.838c-0.193-0.166-0.33-0.344-0.413-0.537
						c-0.081-0.192-0.124-0.386-0.124-0.579c0-0.247,0.062-0.482,0.187-0.703c0.124-0.219,0.295-0.399,0.516-0.537
						c0.221-0.138,0.455-0.206,0.703-0.206c0.166,0,0.323,0.028,0.475,0.083c0.152,0.055,0.337,0.164,0.558,0.33
						c1.294,1.047,2.562,1.804,3.801,2.272c1.239,0.469,2.548,0.703,3.925,0.703c1.571,0,2.941-0.254,4.112-0.764
						c1.171-0.509,2.08-1.218,2.728-2.128c0.646-0.909,0.971-1.928,0.971-3.058c0-1.019-0.256-1.942-0.764-2.768
						c-0.51-0.826-1.35-1.617-2.521-2.376c-1.17-0.757-2.72-1.534-4.648-2.334c-2.066-0.853-3.759-1.742-5.081-2.666
						c-1.322-0.922-2.293-1.914-2.913-2.975c-0.62-1.06-0.93-2.21-0.93-3.45c0-1.487,0.427-2.802,1.282-3.946
						c0.853-1.142,2.023-2.052,3.511-2.726c1.487-0.674,3.167-1.013,5.04-1.013c1.901,0,3.594,0.268,5.083,0.807
						C219.219,332.636,220.431,333.415,221.367,334.434z"/>
					<path style="fill:#FFFFFF;" d="M252.645,335.053c0.191,0.193,0.33,0.365,0.413,0.517c0.081,0.15,0.124,0.323,0.124,0.516
						c0,0.247-0.069,0.482-0.207,0.703c-0.139,0.221-0.318,0.406-0.537,0.558c-0.222,0.152-0.455,0.228-0.703,0.228
						c-0.166,0-0.325-0.042-0.475-0.125c-0.152-0.081-0.311-0.178-0.476-0.288c-0.247-0.249-0.701-0.586-1.363-1.013
						c-0.66-0.427-1.501-0.826-2.52-1.199c-1.02-0.371-2.191-0.556-3.513-0.556c-1.817,0-3.497,0.309-5.04,0.929
						c-1.543,0.62-2.879,1.55-4.008,2.789c-1.13,1.239-2.004,2.782-2.623,4.627c-0.62,1.845-0.93,3.994-0.93,6.446
						c0,2.066,0.282,3.87,0.847,5.413c0.565,1.543,1.349,2.823,2.355,3.842c1.005,1.02,2.182,1.785,3.533,2.293
						c1.349,0.51,2.823,0.764,4.421,0.764c2.094,0,3.905-0.42,5.434-1.26c1.529-0.839,2.788-1.797,3.78-2.871
						c0.221-0.221,0.42-0.365,0.599-0.434c0.18-0.069,0.351-0.104,0.517-0.104c0.247,0,0.468,0.063,0.66,0.187
						c0.193,0.124,0.351,0.289,0.476,0.496c0.124,0.206,0.186,0.433,0.186,0.681c0,0.275-0.09,0.565-0.268,0.867
						c-0.18,0.303-0.448,0.634-0.807,0.992c-1.377,1.432-2.989,2.493-4.834,3.181c-1.845,0.689-3.732,1.033-5.66,1.033
						c-2.645,0-5.04-0.565-7.189-1.693c-2.149-1.13-3.85-2.81-5.104-5.042c-1.253-2.23-1.879-5.012-1.879-8.345
						c0-3.305,0.468-6.08,1.404-8.326c0.937-2.244,2.17-4.041,3.698-5.392c1.529-1.349,3.202-2.32,5.019-2.913
						c1.818-0.592,3.596-0.888,5.33-0.888c1.213,0,2.39,0.138,3.533,0.413c1.144,0.275,2.21,0.66,3.202,1.156
						C251.033,333.731,251.9,334.337,252.645,335.053z"/>
					<path style="fill:#FFFFFF;" d="M262.643,335.013c-0.496,0.027-0.854-0.09-1.074-0.351c-0.221-0.261-0.33-0.558-0.33-0.889
						c0-0.385,0.157-0.722,0.475-1.012c0.316-0.289,0.832-0.475,1.548-0.558c0.662-0.055,1.329-0.11,2.004-0.164
						c0.674-0.056,1.315-0.097,1.922-0.125c2.588-0.11,4.943,0.152,7.065,0.785c2.12,0.634,3.807,1.626,5.062,2.975
						c1.252,1.35,1.879,3.072,1.879,5.164c0,1.654-0.44,3.058-1.322,4.216c-0.881,1.156-2.059,2.106-3.533,2.85
						c-1.473,0.745-3.112,1.31-4.917,1.695c-1.804,0.387-3.614,0.634-5.432,0.743c1.762,0.992,3.464,2.039,5.102,3.141
						c1.638,1.102,3.278,2.239,4.917,3.409c1.638,1.17,3.326,2.389,5.061,3.656c0.193,0.138,0.33,0.309,0.413,0.516
						c0.083,0.206,0.124,0.408,0.124,0.6c0,0.304-0.069,0.558-0.206,0.764s-0.309,0.365-0.516,0.475
						c-0.207,0.11-0.42,0.164-0.641,0.164c-0.275,0-0.551-0.074-0.826-0.226c-0.275-0.152-0.551-0.325-0.826-0.517
						c-1.709-1.239-3.361-2.417-4.958-3.533c-1.599-1.116-3.134-2.175-4.608-3.181c-1.474-1.005-2.865-1.914-4.173-2.727
						c-1.308-0.811-2.514-1.52-3.614-2.128c-0.386-0.193-0.662-0.419-0.826-0.682c-0.166-0.261-0.249-0.53-0.249-0.805
						c0-0.441,0.145-0.757,0.434-0.951c0.289-0.191,0.599-0.302,0.929-0.33l2.148-0.083c1.681-0.055,3.381-0.212,5.104-0.475
						c1.721-0.261,3.298-0.66,4.73-1.197c1.432-0.538,2.583-1.241,3.451-2.108c0.867-0.867,1.301-1.935,1.301-3.202
						c0-1.183-0.365-2.251-1.095-3.202c-0.731-0.95-1.818-1.707-3.264-2.272c-1.446-0.564-3.285-0.846-5.517-0.846
						c-0.936,0-1.88,0.034-2.83,0.103C264.606,334.771,263.635,334.875,262.643,335.013z M261.033,334.557
						c0-0.413,0.136-0.75,0.413-1.012c0.274-0.261,0.646-0.393,1.114-0.393c0.303,0,0.565,0.077,0.786,0.228
						c0.221,0.152,0.392,0.358,0.517,0.62c0.124,0.263,0.157,0.544,0.103,0.847c-0.11,1.956-0.221,4.083-0.33,6.384
						c-0.111,2.3-0.2,4.675-0.268,7.127c-0.069,2.452-0.131,4.903-0.185,7.355c-0.056,2.451-0.083,4.82-0.083,7.106
						c0,0.524-0.145,0.902-0.434,1.137c-0.289,0.233-0.627,0.364-1.012,0.392c-0.387,0-0.724-0.118-1.013-0.351
						c-0.289-0.235-0.448-0.613-0.475-1.137c0.027-3.084,0.076-6.204,0.145-9.357c0.069-3.155,0.166-6.322,0.29-9.503
						C260.722,340.817,260.867,337.67,261.033,334.557z"/>
					<path style="fill:#FFFFFF;" d="M288.837,332.739c0-0.468,0.145-0.819,0.434-1.053c0.289-0.235,0.627-0.351,1.012-0.351
						c0.413,0,0.764,0.117,1.054,0.351c0.289,0.233,0.42,0.585,0.392,1.053c-0.027,2.288-0.055,4.698-0.082,7.231
						c-0.028,2.535-0.056,5.09-0.083,7.664c-0.028,2.576-0.056,5.13-0.083,7.665c-0.028,2.534-0.056,4.943-0.083,7.23
						c0,0.469-0.145,0.826-0.434,1.075c-0.288,0.247-0.639,0.371-1.052,0.371c-0.386,0-0.717-0.124-0.992-0.371
						c-0.275-0.249-0.413-0.606-0.413-1.075L288.837,332.739z"/>
					<path style="fill:#FFFFFF;" d="M300.696,333.359c-0.028-0.578,0.083-1.019,0.33-1.321c0.249-0.303,0.593-0.469,1.033-0.496
						c0.303-0.028,0.572,0.014,0.807,0.124c0.233,0.11,0.419,0.283,0.558,0.516c0.138,0.235,0.206,0.531,0.206,0.889
						c-0.194,4.82-0.275,9.654-0.249,14.502c0.028,4.848-0.11,9.696-0.413,14.544c-0.027,0.524-0.159,0.93-0.392,1.218
						c-0.235,0.289-0.558,0.462-0.971,0.517c-0.469,0.027-0.854-0.076-1.156-0.309c-0.303-0.235-0.441-0.572-0.413-1.013
						c0.193-3.141,0.302-6.342,0.33-9.606c0.027-3.264,0.055-6.541,0.083-9.833C300.475,339.799,300.558,336.556,300.696,333.359z
						 M302.68,334.599v-2.687c0.687-0.164,1.459-0.309,2.313-0.433c0.853-0.125,1.969-0.187,3.347-0.187
						c1.183,0,2.417,0.104,3.697,0.311c1.281,0.207,2.472,0.572,3.575,1.095c1.102,0.524,1.997,1.246,2.685,2.17
						c0.689,0.923,1.033,2.101,1.033,3.533c0,1.432-0.503,2.844-1.508,4.234c-1.006,1.393-2.556,2.5-4.648,3.326
						c1.707,0.386,3.119,0.965,4.235,1.735c1.116,0.771,1.955,1.661,2.52,2.666c0.565,1.006,0.847,2.044,0.847,3.119
						c0,1.598-0.461,3.023-1.384,4.276c-0.923,1.253-2.142,2.3-3.656,3.141s-3.181,1.481-5,1.921
						c-1.818,0.441-3.623,0.66-5.413,0.66c-0.798,0-1.598-0.034-2.396-0.103c-0.799-0.069-1.433-0.131-1.901-0.186l0.455-2.727
						c0.634,0.111,1.253,0.18,1.859,0.206c0.606,0.028,1.225,0.041,1.859,0.041c1.46,0,2.927-0.157,4.401-0.475
						c1.473-0.316,2.836-0.784,4.089-1.404c1.253-0.621,2.253-1.377,2.996-2.274c0.743-0.894,1.116-1.947,1.116-3.16
						c0-0.992-0.303-1.852-0.909-2.583c-0.606-0.729-1.384-1.322-2.334-1.776c-0.95-0.454-1.99-0.798-3.12-1.033
						c-1.13-0.233-2.217-0.351-3.264-0.351c-0.8,0.138-1.501,0.235-2.106,0.289c-0.607,0.055-1.185,0.083-1.735,0.083
						c-0.992,0-1.785-0.111-2.376-0.332c-0.593-0.219-0.888-0.646-0.888-1.28c0-0.249,0.027-0.475,0.083-0.682
						c0.055-0.207,0.15-0.379,0.288-0.517c0.138-0.138,0.318-0.193,0.538-0.164c0.468,0.027,0.909,0.062,1.322,0.103
						c0.413,0.041,0.867,0.062,1.363,0.062c1.211,0,2.505-0.131,3.884-0.392c1.377-0.261,2.657-0.662,3.842-1.199
						c1.185-0.537,2.156-1.218,2.913-2.044c0.757-0.826,1.137-1.804,1.137-2.934c0-1.156-0.386-2.073-1.156-2.747
						c-0.773-0.674-1.764-1.158-2.976-1.446c-1.211-0.289-2.465-0.434-3.759-0.434c-0.579,0-1.239,0.035-1.984,0.103
						c-0.743,0.07-1.466,0.145-2.168,0.228C303.691,334.434,303.119,334.517,302.68,334.599z"/>
					<path style="fill:#FFFFFF;" d="M329.411,364.058c-0.275,0-0.586-0.021-0.929-0.062c-0.346-0.041-0.628-0.166-0.847-0.372
						c-0.221-0.206-0.33-0.53-0.33-0.971c0.247-3.222,0.475-6.472,0.681-9.751c0.207-3.277,0.399-6.534,0.578-9.772
						c0.18-3.236,0.337-6.424,0.475-9.565c0.056-0.523,0.2-0.936,0.434-1.239c0.235-0.302,0.641-0.468,1.22-0.495
						c1.432-0.111,2.898-0.2,4.4-0.27c1.501-0.068,3.091-0.124,4.772-0.164c1.681-0.042,3.485-0.062,5.413-0.062
						c0.551,0,0.943,0.124,1.178,0.371c0.233,0.249,0.351,0.565,0.351,0.951c0,0.413-0.118,0.757-0.351,1.033
						c-0.235,0.275-0.627,0.413-1.178,0.413c-1.377,0-2.659,0.007-3.843,0.02c-1.185,0.016-2.313,0.042-3.388,0.083
						c-1.074,0.042-2.113,0.083-3.12,0.124c-1.005,0.042-2.004,0.104-2.995,0.187c-0.056,1.156-0.118,2.39-0.187,3.697
						c-0.069,1.31-0.138,2.604-0.207,3.884c-0.069,1.281-0.145,2.528-0.226,3.739c1.266-0.164,2.624-0.289,4.069-0.371
						c1.446-0.083,2.851-0.138,4.214-0.166c1.363-0.027,2.486-0.014,3.367,0.041c0.387,0,0.71,0.118,0.971,0.351
						c0.261,0.235,0.406,0.558,0.434,0.971c0,0.413-0.138,0.752-0.413,1.013c-0.275,0.261-0.606,0.392-0.992,0.392
						c-0.717-0.055-1.728-0.076-3.037-0.062c-1.308,0.014-2.726,0.069-4.255,0.166c-1.529,0.095-3.024,0.24-4.484,0.433
						c-0.11,2.066-0.24,4.166-0.392,6.301c-0.152,2.136-0.309,4.235-0.475,6.301c0.992-0.083,2.099-0.164,3.326-0.247
						c1.225-0.083,2.493-0.166,3.801-0.249c1.308-0.081,2.576-0.15,3.801-0.207c1.225-0.055,2.334-0.081,3.326-0.081
						c0.44,0,0.771,0.124,0.992,0.371c0.219,0.249,0.33,0.565,0.33,0.95c0,0.413-0.111,0.759-0.33,1.034
						c-0.221,0.275-0.552,0.413-0.992,0.413c-0.579,0-1.157,0-1.735,0c-0.579,0-1.144,0.014-1.693,0.041
						c-1.296,0.028-2.597,0.083-3.905,0.166c-1.308,0.082-2.609,0.178-3.905,0.288C332.041,363.797,330.733,363.92,329.411,364.058z
						"/>
				</g>
				<g style="opacity:0.3;">
					<g>
						<path style="fill:#421B36;" d="M198.032,389.293c-0.519-1.747-0.6-1.831-2.085-2.24c0,0.231,0,0.461,0,0.692
							c-0.493,0.182-1.148-0.07-1.48,0.545c0.26,1.281,0.26,1.281,1.48,1.526c0,0.115,0,0.231,0,0.346
							C196.848,390.302,197.405,389.708,198.032,389.293z"/>
					</g>
					<g>
						<path style="fill:#421B36;" d="M237.779,386.868c-2.216,0.34-2.455,2.707-1.067,3.478c0.647-0.005,1.294-0.01,1.94-0.015
							C240.326,389.41,239.928,387.038,237.779,386.868z"/>
					</g>
					<g>
						<path style="fill:#421B36;" d="M301.981,385.477c-0.177-0.825-0.341-1.595-0.52-2.428c-1.353-0.667-3.126,0.139-3.519,1.693
							C298.83,386.45,300.591,387.118,301.981,385.477z"/>
					</g>
					<g>
						<path style="fill:#421B36;" d="M371.999,371.535c-0.206-0.318-0.47-0.507-0.758-0.617c-0.212,1.117-0.478,1.939-0.808,2.379
							c-0.132,0.177-0.625,0.345-1.439,0.506C370.239,374.987,372.781,373.844,371.999,371.535z"/>
					</g>
					<g>
						<path style="fill:#421B36;" d="M260.106,377.746c0.237-0.335,0.338-0.664,0.345-0.98c-1.263,0.009-2.529,0.018-3.796,0.027
							C257.503,378.217,258.64,378.047,260.106,377.746z"/>
					</g>
					<g>
						<path style="fill:#421B36;" d="M313.949,387.696c-1.543-1.522-3.505-0.109-3.388,1.622c1.204-0.026,2.395-0.052,3.576-0.078
							C314.258,388.767,314.195,388.204,313.949,387.696z"/>
					</g>
					<g>
						<path style="fill:#421B36;" d="M371.305,337.874c0.043,0.82,0.085,1.65,0.125,2.488
							C372.397,339.482,372.16,338.532,371.305,337.874z"/>
					</g>
					<g>
						<path style="fill:#421B36;" d="M343.929,388.411c1.029-0.036,2.039-0.073,3.024-0.111
							C346.454,386.443,344.659,387.221,343.929,388.411z"/>
					</g>
					<g>
						<path style="fill:#421B36;" d="M321.007,386.895c-1.043,0.436-2.244,0.769-2.364,2.242c1.281-0.03,2.544-0.061,3.794-0.092
							c0.058-0.135,0.119-0.251,0.175-0.404C322.03,388.01,321.544,387.481,321.007,386.895z"/>
					</g>
					<g>
						<path style="fill:#421B36;" d="M327.01,380.925c0.991,0.59,1.392,1.861,2.656,1.297c0.448-0.669,0.849-1.268,1.281-1.914
							c-0.129-0.391-0.27-0.815-0.436-1.309C328.681,377.624,327.823,379.516,327.01,380.925z"/>
					</g>
					<g>
						<path style="fill:#421B36;" d="M364.118,380.671c-0.6-2.06-2.523-2.322-3.675-0.551
							C360.559,383.184,363.063,383.323,364.118,380.671z"/>
					</g>
					<g>
						<path style="fill:#421B36;" d="M302.816,387.739c-0.051,0.592-0.481,1.255-0.421,1.743c1.159-0.022,2.31-0.045,3.452-0.068
							C306.35,387.979,304.51,386.066,302.816,387.739z"/>
					</g>
					<g>
						<path style="fill:#421B36;" d="M233.232,386.844c2.314-0.511,2.901-2.877,0.665-3.79
							C231.36,382.763,231.674,385.651,233.232,386.844z"/>
					</g>
					<g>
						<path style="fill:#421B36;" d="M372.278,330.641c-0.364-0.394-0.911-1.561-1.498-1.764c0.074,1.153,0.15,2.365,0.226,3.64
							c0.154-0.004,0.323-0.011,0.532-0.022C371.906,331.992,372.664,331.337,372.278,330.641z"/>
					</g>
					<g>
						<path style="fill:#421B36;" d="M369.61,378.965c-0.666,0.685-0.632,1.504-0.746,2.32
							C371.878,384.956,374.387,378.176,369.61,378.965z"/>
					</g>
					<g>
						<path style="fill:#421B36;" d="M297.365,381.607c0.108-2.462-2.569-4.176-3.328-1.214
							C294.142,382.259,296.179,383.501,297.365,381.607z"/>
					</g>
					<g>
						<path style="fill:#421B36;" d="M238.169,378.781c-1.7-0.148-1.877,1.027-2.118,2.153c0.953,1.51,2.481,1.744,3.748,0.401
							C239.978,379.938,238.722,379.561,238.169,378.781z"/>
					</g>
					<g>
						<path style="fill:#421B36;" d="M359.993,385.207c-0.387-1.619-0.387-1.619-1.66-2.431c-1.331,0.261-1.855,1.194-2.047,2.639
							C357.684,386.348,359.019,386.929,359.993,385.207z"/>
					</g>
					<g>
						<path style="fill:#421B36;" d="M288.976,387.778c-1.56-1.481-3.461,0.178-3.174,1.993c1.059-0.017,2.115-0.034,3.166-0.051
							C289.179,389.262,289.216,388.628,288.976,387.778z"/>
					</g>
					<g>
						<path style="fill:#421B36;" d="M214.152,390.406c0.973-1.96-0.265-4.16-2.449-2.754c-0.24,0.514-0.452,0.97-0.791,1.697
							c0.496,0.349,0.963,0.84,1.459,1.146c0.547-0.002,1.094-0.005,1.642-0.007C214.061,390.457,214.104,390.444,214.152,390.406z"
							/>
					</g>
					<g>
						<path style="fill:#421B36;" d="M277.488,388.973c0.056,0.374,0.249,0.671,0.488,0.917c0.883-0.013,1.764-0.026,2.642-0.039
							c0.182-0.273,0.313-0.609,0.304-1.081C281.055,386.714,277.287,386.568,277.488,388.973z"/>
					</g>
					<g>
						<path style="fill:#421B36;" d="M371.891,363.034c-0.015,0.562-0.032,1.117-0.055,1.646
							C372.125,364.201,372.191,363.617,371.891,363.034z"/>
					</g>
					<g>
						<path style="fill:#421B36;" d="M374.66,349.706c-1.142,0.312-1.862,1.031-2.286,2.296
							C376.312,354.607,378.055,351.846,374.66,349.706z"/>
					</g>
					<g>
						<path style="fill:#421B36;" d="M376.093,366.586c-0.495-0.118-1.033-0.25-1.731-0.419
							C369.744,369.743,376.588,371.801,376.093,366.586z"/>
					</g>
					<g>
						<path style="fill:#421B36;" d="M310.254,385.289c0.072-2.517-3.091-2.376-3.717-0.206
							C307.519,387.109,309.279,387.267,310.254,385.289z"/>
					</g>
					<g>
						<path style="fill:#421B36;" d="M305.817,381.312c-0.228-1.04-0.195-2.122-1.28-2.684c-0.894,0.116-2.865,1.392-1.866,2.299
							c0.285,0.185,0.294,0.438,0.246,0.743C303.118,383.097,305.188,381.878,305.817,381.312z"/>
					</g>
					<g>
						<path style="fill:#421B36;" d="M295.756,386.862c-0.705,0.442-1.075,0.961-1.696,1.587c0.264,0.408,0.425,0.813,0.596,1.176
							c0.844-0.015,1.683-0.029,2.52-0.045C297.655,388.478,297.379,387.348,295.756,386.862z"/>
					</g>
					<g>
						<path style="fill:#421B36;" d="M244.391,380.292c0.705,2.038,0.795,2.103,2.517,1.88c0.367-0.451,0.724-0.888,1.086-1.332
							c-0.258-0.857-1.083-1.418-1.584-2.095C244.977,379.044,244.977,379.044,244.391,380.292z"/>
					</g>
					<g>
						<path style="fill:#421B36;" d="M360.997,387.652c0.709-0.041,1.398-0.083,2.052-0.125
							C362.243,386.682,361.495,386.684,360.997,387.652z"/>
					</g>
					<g>
						<path style="fill:#421B36;" d="M317.593,383.028c-1.245,0.066-1.998,0.795-2.782,1.6
							C315.778,388.594,319.689,385.85,317.593,383.028z"/>
					</g>
					<g>
						<path style="fill:#421B36;" d="M293.659,384.812c-0.262-1.216-0.967-1.466-2.021-1.605c-1.72-0.518-2.25,1.824-1.164,2.781
							C291.631,386.307,293.078,385.897,293.659,384.812z"/>
					</g>
					<g>
						<path style="fill:#421B36;" d="M250.04,382.742c-0.881,0.762-1.602,1.464-1.546,2.768c0.911,0.781,1.704,1.274,2.743,0.43
							C253.559,384.894,250.858,383.885,250.04,382.742z"/>
					</g>
					<g>
						<path style="fill:#421B36;" d="M322.726,380.947c-0.476-0.723-1.046-1.248-1.727-1.723c-0.652,0.169-1.298,0.337-1.948,0.506
							c-0.157,0.322-0.306,0.622-0.44,0.894C319.082,382.769,321.765,382.811,322.726,380.947z"/>
					</g>
					<g>
						<path style="fill:#421B36;" d="M341.949,378.157c1.607-0.048,1.313-1.558,0.534-2.683c-0.741,0.024-1.492,0.047-2.256,0.07
							C339.649,376.784,340.148,378.336,341.949,378.157z"/>
					</g>
					<g>
						<path style="fill:#421B36;" d="M299.761,378.066c1.118-0.357,1.98-0.89,1.775-1.725c-1.093,0.015-2.191,0.031-3.299,0.045
							c-0.021,0.111-0.035,0.22-0.036,0.328C298.475,377.457,299.033,377.813,299.761,378.066z"/>
					</g>
					<g>
						<path style="fill:#421B36;" d="M376.14,359.093c-0.493-0.401-0.977-0.793-1.571-1.275c-2.351,0.727-2.26,4.058,0.448,3.676
							C375.346,360.709,376.585,360.316,376.14,359.093z"/>
					</g>
					<g>
						<path style="fill:#421B36;" d="M377.014,355.743c0.163,1.768,1.458,2.042,2.358,1.401c0.028-0.946,0.046-1.896,0.054-2.85
							C378.376,353.627,377.162,354.023,377.014,355.743z"/>
					</g>
					<g>
						<path style="fill:#421B36;" d="M371.929,355.522c0.005,0.409,0.009,0.815,0.013,1.217
							C372.127,356.451,372.164,356.055,371.929,355.522z"/>
					</g>
					<g>
						<path style="fill:#421B36;" d="M255.539,387.686c-0.256,0-0.525,0-0.783,0c-0.153-0.236-0.296-0.455-0.421-0.649
							c-0.527,0.379-1.01,0.728-1.654,1.193c-0.297,1.038,0.189,1.547,0.81,1.962c0.682-0.007,1.363-0.014,2.045-0.022
							C256.018,389.488,256.01,388.443,255.539,387.686z"/>
					</g>
					<g>
						<path style="fill:#421B36;" d="M248.079,388.547c-0.781-0.582-1.457-1.085-2.188-1.629c-1.488,0.497-1.842,2.553-0.911,3.357
							c0.609-0.006,1.218-0.011,1.826-0.017C247.252,389.754,247.265,388.979,248.079,388.547z"/>
					</g>
					<g>
						<path style="fill:#421B36;" d="M340.853,383.403c-0.965,0.817-1.507,3.139,0.37,3.058
							C344.29,386.999,343.103,381.658,340.853,383.403z"/>
					</g>
					<g>
						<path style="fill:#421B36;" d="M333.512,378.454c0.447-0.54,0.843-1.019,1.19-1.439c-0.033-0.436-0.064-0.829-0.101-1.311
							c-1.005,0.027-2.026,0.053-3.062,0.078c-0.187,0.19-0.346,0.411-0.441,0.686C332.028,377.171,332.166,378.713,333.512,378.454
							z"/>
					</g>
					<g>
						<path style="fill:#421B36;" d="M347.992,384.358c-0.048,5.084,6.248,0.609,1.577-1.259
							C349.131,383.872,349.131,383.872,347.992,384.358z"/>
					</g>
					<g>
						<path style="fill:#421B36;" d="M324.933,382.683c-0.905,0.388-1.959,0.663-1.841,2.102
							C325.454,388.112,328.395,383.778,324.933,382.683z"/>
					</g>
					<g>
						<path style="fill:#421B36;" d="M226.639,378.005c0.239-0.393,0.403-0.743,0.508-1.054c-1.061,0.004-2.121,0.008-3.18,0.012
							c0.078,0.227,0.149,0.436,0.232,0.677C224.994,377.774,225.65,378.406,226.639,378.005z"/>
					</g>
					<g>
						<path style="fill:#421B36;" d="M226.597,386.317c0.663-2.673-1.563-4.807-2.938-1.707c0.216,1.284,1.163,1.645,2.043,2.181
							C226,386.633,226.298,386.476,226.597,386.317z"/>
					</g>
					<g>
						<path style="fill:#421B36;" d="M373.199,342.092c-1.996,5.408,5.528,2.404,1.444-0.687
							C374.24,341.595,373.789,341.812,373.199,342.092z"/>
					</g>
					<g>
						<path style="fill:#421B36;" d="M227.641,380.033c0.9,0.961,1.235,2.412,2.633,2.574c1.241-0.513,0.901-1.86,0.76-2.905
							C230.383,378.876,228.273,379.421,227.641,380.033z"/>
					</g>
					<g>
						<path style="fill:#421B36;" d="M243.978,384.822c-0.465-0.908-1.141-1.453-2.171-1.751c-0.586,0.493-1.095,0.922-1.645,1.386
							C241.55,387.108,242.093,387.373,243.978,384.822z"/>
					</g>
					<g>
						<path style="fill:#421B36;" d="M201.798,377.028c-0.887,0.002-1.772,0.004-2.654,0.005
							C199.991,378.236,201.198,377.839,201.798,377.028z"/>
					</g>
					<g>
						<path style="fill:#421B36;" d="M280.546,381.801c0.837-0.637-0.094-1.415-0.01-2.201c-0.345-1.33-2.926-0.396-2.719,0.862
							C277.533,382.101,279.438,382.882,280.546,381.801z"/>
					</g>
					<g>
						<path style="fill:#421B36;" d="M376.102,334.032c-0.424-0.288-0.891-0.606-1.385-0.943c-1.059,0.645-2.122,1.222-1.827,2.858
							C374.828,336.458,376.848,336.768,376.102,334.032z"/>
					</g>
					<g>
						<path style="fill:#421B36;" d="M376.72,371.748c0.344,0.59,0.658,1.186,1.124,1.616c0.133-0.783,0.258-1.59,0.376-2.418
							C377.681,371.085,377.162,371.286,376.72,371.748z"/>
					</g>
					<g>
						<path style="fill:#421B36;" d="M269.207,388.427c-0.18,0.865,0.039,1.333,0.449,1.576c0.799-0.01,1.597-0.021,2.392-0.031
							C273.173,387.676,269.983,385.883,269.207,388.427z"/>
					</g>
					<g>
						<path style="fill:#421B36;" d="M377.799,349.054c0.786,0.056,1.226,0.076,1.558-0.088c-0.035-1.042-0.084-2.079-0.148-3.109
							c-0.113-0.044-0.227-0.088-0.339-0.133C377.026,346.103,377.343,347.641,377.799,349.054z"/>
					</g>
					<g>
						<path style="fill:#421B36;" d="M207.007,384.741c0.148,1.25,1.1,1.419,2.021,1.976c0.528-0.492,0.985-0.916,1.388-1.293
							c0-0.7,0-1.262,0-1.824C208.802,382.145,208.417,384.289,207.007,384.741z"/>
					</g>
					<g>
						<path style="fill:#421B36;" d="M269.658,379.426c-0.129,0.433-0.273,0.908-0.468,1.565c1.153,1.07,2.102,1.828,3.398,0.396
							c0-0.534,0-1.042,0-1.498C271.712,378.968,270.755,378.94,269.658,379.426z"/>
					</g>
					<g>
						<path style="fill:#421B36;" d="M251.912,376.824c-1.081,0.007-2.164,0.013-3.248,0.02c-0.049,0.121-0.092,0.244-0.128,0.369
							C249.47,378.277,252.118,378.816,251.912,376.824z"/>
					</g>
					<g>
						<path style="fill:#421B36;" d="M326.705,377.147c-0.13-0.504-0.359-0.894-0.639-1.238c-0.97,0.021-1.955,0.042-2.948,0.063
							C322.862,378.026,325.359,378.327,326.705,377.147z"/>
					</g>
					<g>
						<path style="fill:#421B36;" d="M366.024,374.449c-0.544,0.955-2.643,2.202-0.771,2.994c1.001,0.183,1.915,0.73,2.687-0.305
							C367.803,375.995,367.772,374.769,366.024,374.449z"/>
					</g>
					<g>
						<path style="fill:#421B36;" d="M335.545,380.092c0.284,2.653,2.419,2.028,3.776,0.479c-0.701-0.667-0.801-1.746-1.831-1.97
							C336.814,379.12,336.19,379.598,335.545,380.092z"/>
					</g>
					<g>
						<path style="fill:#421B36;" d="M221.191,378.886c-0.714,0.555-1.371,1.065-2.012,1.565c0.597,2.71,3.274,2.138,3.746-0.36
							C222.313,379.666,221.77,379.288,221.191,378.886z"/>
					</g>
					<g>
						<path style="fill:#421B36;" d="M346.655,381.925c0.311-0.429,0.604-0.833,0.93-1.284c-0.329-0.472-0.644-0.925-0.927-1.334
							c-2.258-0.216-2.437-0.015-2.74,2.092C344.707,382.213,345.685,381.953,346.655,381.925z"/>
					</g>
					<g>
						<path style="fill:#421B36;" d="M257.878,386.396c0.804-0.371,1.771-0.599,2.335-1.647
							C258.573,380.647,255.402,384.67,257.878,386.396z"/>
					</g>
					<g>
						<path style="fill:#421B36;" d="M366.365,386.823c0.32-1.037,1.648-1.058,1.905-2.229c-0.667-0.475-1.341-0.955-2.091-1.489
							C363.878,383.953,364.749,386.082,366.365,386.823z"/>
					</g>
					<g>
						<path style="fill:#421B36;" d="M210.465,377.698c0.055-0.247,0.086-0.477,0.097-0.691c-1.046,0.003-2.09,0.006-3.133,0.008
							c0.036,0.227,0.091,0.466,0.188,0.728C208.511,377.875,209.403,377.888,210.465,377.698z"/>
					</g>
					<g>
						<path style="fill:#421B36;" d="M373.927,374.807c-0.361,0.547-0.669,1.013-0.995,1.508
							C374.257,381.05,378.885,375.091,373.927,374.807z"/>
					</g>
					<g>
						<path style="fill:#421B36;" d="M359.953,376.804c0.527-1.875-1.61-2.129-2.886-1.561
							C355.706,378.333,358.152,378.404,359.953,376.804z"/>
					</g>
					<g>
						<path style="fill:#421B36;" d="M266.642,378.086c0.471-0.242,0.923-0.472,1.421-0.728c0.044-0.247,0.082-0.46,0.113-0.653
							c-0.905,0.008-1.812,0.015-2.721,0.022c0,0.315,0,0.621,0,0.928C265.882,377.81,266.25,377.945,266.642,378.086z"/>
					</g>
					<g>
						<path style="fill:#421B36;" d="M264.066,388.064c-2.302-1.861-2.792-0.522-3.131,1.787c0.575-0.054,1.099,0.113,1.636,0.24
							c0.577-0.007,1.152-0.014,1.727-0.021c0.034-0.012,0.066-0.016,0.101-0.03C264.125,389.31,263.995,388.742,264.066,388.064z"
							/>
					</g>
					<g>
						<path style="fill:#421B36;" d="M327.439,388.916c1.011-0.027,2.014-0.054,3-0.082
							C330.468,386.999,328.068,387.285,327.439,388.916z"/>
					</g>
					<g>
						<path style="fill:#421B36;" d="M354.763,379.049c-0.821,0.219-1.689,0.45-2.536,0.676
							C350.796,384.517,357.246,381.376,354.763,379.049z"/>
					</g>
					<g>
						<path style="fill:#421B36;" d="M285.303,376.542c-1.21,0.013-2.425,0.026-3.647,0.039
							C282.585,378.095,284.919,378.416,285.303,376.542z"/>
					</g>
					<g>
						<path style="fill:#421B36;" d="M309.87,377.259c-0.023-0.43-0.071-0.762-0.143-1.042c-1.075,0.017-2.157,0.034-3.25,0.051
							c-0.005,0.011-0.011,0.024-0.016,0.035C307.117,377.692,308.809,378.273,309.87,377.259z"/>
					</g>
					<g>
						<path style="fill:#421B36;" d="M265.117,384.72c0.115,1.525,2.903,2.276,3.369,0.825
							C268.652,383.697,265.582,382.363,265.117,384.72z"/>
					</g>
					<g>
						<path style="fill:#421B36;" d="M291.83,378.091c0.806-0.663,1.364-1.148,1.46-1.642c-1.064,0.013-2.133,0.026-3.208,0.039
							C290.144,377.07,290.727,377.641,291.83,378.091z"/>
					</g>
					<g>
						<path style="fill:#421B36;" d="M335.562,387.796c0.021,0.289,0.042,0.583,0.065,0.888c1.047-0.032,2.077-0.064,3.09-0.097
							C338.464,387.341,337.027,386.627,335.562,387.796z"/>
					</g>
					<g>
						<path style="fill:#421B36;" d="M352.615,388.071c0.685-0.03,1.351-0.06,2.007-0.09c0.019-0.048,0.027-0.092,0.055-0.143
							C354.824,386.392,353.565,387.304,352.615,388.071z"/>
					</g>
					<g>
						<path style="fill:#421B36;" d="M199.229,385.606c2,1.485,5.137-1.44,1.648-2.447
							C199.685,383.761,198.163,383.931,199.229,385.606z"/>
					</g>
					<g>
						<path style="fill:#421B36;" d="M318.031,376.072c-1.046,0.02-2.101,0.039-3.168,0.058
							C315.058,378.745,318.378,378.116,318.031,376.072z"/>
					</g>
					<g>
						<path style="fill:#421B36;" d="M371.545,323.59c0.151-0.83,0.523-2.591-0.875-2.307c-0.133,0.04-0.268,0.083-0.403,0.129
							c0.058,0.787,0.126,1.728,0.201,2.804C370.93,324.254,371.335,324.141,371.545,323.59z"/>
					</g>
					<g>
						<path style="fill:#421B36;" d="M373.751,328.39c0.864,0.056,1.657-0.398,2.094-0.992c-0.296-0.801-0.615-1.562-0.953-2.288
							c-0.002-0.001-0.004-0.002-0.007-0.002C372.835,326.306,372.835,326.306,373.751,328.39z"/>
					</g>
					<g>
						<path style="fill:#421B36;" d="M281.648,385.439c0.372,0.749,1.086,0.86,1.633,1.345c0.614-0.798,1.154-1.498,1.714-2.227
							c-0.295-0.526-0.565-1.007-0.847-1.511c-0.603,0.037-1.168-0.194-1.835,0.312
							C283.202,384.344,282.362,384.898,281.648,385.439z"/>
					</g>
					<g>
						<path style="fill:#421B36;" d="M205.053,378.962c-3.332,0.017-1.632,4.945,0.85,2.468
							C206.035,380.514,206.202,379.595,205.053,378.962z"/>
					</g>
					<g>
						<path style="fill:#421B36;" d="M378.873,365.341c0.081-0.877,0.154-1.766,0.218-2.668c-0.543-0.074-1.156,0.05-1.677,0.144
							C376.183,363.716,377.514,365.122,378.873,365.341z"/>
					</g>
					<g>
						<path style="fill:#421B36;" d="M276.703,376.873c-0.001-0.09-0.005-0.164-0.008-0.243c-1.07,0.01-2.144,0.02-3.223,0.03
							C273.177,377.886,274.778,378.482,276.703,376.873z"/>
					</g>
					<g>
						<path style="fill:#421B36;" d="M276.673,384.69c-0.51-0.71-2.39-2.39-2.883-1.042c0.256,0.738-0.282,1.279-0.389,1.875
							C274.089,386.708,277.027,386.247,276.673,384.69z"/>
					</g>
					<g>
						<path style="fill:#421B36;" d="M252.535,380.615c0.646,2.017,3.551,1.642,3.471-0.376
							C255.274,378.527,253.394,379.243,252.535,380.615z"/>
					</g>
					<g>
						<path style="fill:#421B36;" d="M261.318,380.713c0.582,1.654,2.602,1.375,3.423-0.029c-0.281-0.299-0.61-0.482-0.638-0.704
							C263.683,378.264,260.771,378.983,261.318,380.713z"/>
					</g>
					<g>
						<path style="fill:#421B36;" d="M211.344,380.424c0.544,2.429,3.041,1.995,3.215-0.32c-0.193-0.301-0.371-0.582-0.497-0.783
							C212.867,379.037,212.012,379.317,211.344,380.424z"/>
					</g>
					<g>
						<path style="fill:#421B36;" d="M289.348,381.368c0.107-1.431-0.874-1.898-1.981-2.499
							C284.969,381.346,286.577,382.763,289.348,381.368z"/>
					</g>
					<g>
						<path style="fill:#421B36;" d="M218.395,384.025c-1.758-1.082-2.23-0.95-3.032,0.825c0.209,0.362,0.433,0.75,0.687,1.189
							c0.745,0,1.469,0,2.202,0C218.303,385.308,218.35,384.646,218.395,384.025z"/>
					</g>
					<g>
						<path style="fill:#421B36;" d="M314.362,381.174c-0.471-0.572-0.894-1.083-1.29-1.563c-0.637-0.056-1.201-0.107-1.82-0.16
							C310.473,382.01,312.389,383.19,314.362,381.174z"/>
					</g>
					<g>
						<path style="fill:#421B36;" d="M219.26,388.914c0.256,0.401,0.492,0.773,0.838,1.315c1.588,0.351,4.158-0.495,1.824-1.953
							C220.969,386.881,220.027,388.052,219.26,388.914z"/>
					</g>
					<g>
						<path style="fill:#421B36;" d="M217.782,377.474c0.169-0.163,0.31-0.327,0.437-0.491c-0.831,0.003-1.659,0.005-2.488,0.008
							C216.065,377.37,216.722,377.614,217.782,377.474z"/>
					</g>
					<g>
						<path style="fill:#421B36;" d="M347.942,377.254c1.844,1.303,3.237,1.326,2.985-1.385
							C349.937,374.328,348.168,375.802,347.942,377.254z"/>
					</g>
					<g>
						<path style="fill:#421B36;" d="M373.471,386.073c0,0,0.001,0,0.001,0c0.586-0.501,1.153-1.386,1.69-2.597
							C373.908,383.435,372.519,384.898,373.471,386.073z"/>
					</g>
					<g>
						<path style="fill:#421B36;" d="M371.752,348.13c0.224-0.154,0.226-0.459-0.041-1.204
							C371.725,347.328,371.738,347.729,371.752,348.13z"/>
					</g>
					<g>
						<path style="fill:#421B36;" d="M228.161,388.239c0.284,0.677,0.569,1.355,0.908,2.164c0.202-0.001,0.403-0.003,0.605-0.004
							C233.052,388.763,229.512,386.153,228.161,388.239z"/>
					</g>
					<g>
						<path style="fill:#421B36;" d="M377.42,337.969c-0.526,1.275,0.821,1.631,1.051,2.432c0.093,0.031,0.175,0.041,0.26,0.056
							c-0.105-0.894-0.222-1.775-0.353-2.643C378.033,337.803,377.696,337.848,377.42,337.969z"/>
					</g>
					<g>
						<path style="fill:#421B36;" d="M243.154,376.875c-0.868,0.005-1.735,0.009-2.604,0.014
							C240.577,377.919,242.089,378.095,243.154,376.875z"/>
					</g>
					<g>
						<path style="fill:#421B36;" d="M234.163,376.92c-0.509,0.002-1.017,0.005-1.526,0.007c0.091,0.276,0.237,0.545,0.46,0.772
							C233.677,377.888,233.849,377.297,234.163,376.92z"/>
					</g>
					<g>
						<path style="fill:#421B36;" d="M333.665,386.13c0.41-0.624,0.718-1.092,1.008-1.531c-0.211-0.673-0.531-1.19-1.218-1.515
							C331.371,383.661,331.35,385.887,333.665,386.13z"/>
					</g>
					<g>
						<path style="fill:#421B36;" d="M204.138,389.836c0.582,0,1.128,0,1.723,0c0-0.514,0-0.951,0-1.405
							c-0.421-0.344-0.85-0.697-1.357-1.113C202.933,387.984,203.754,388.817,204.138,389.836z"/>
					</g>
					<g>
						<path style="fill:#421B36;" d="M195.947,381.528c1.07,0.141,1.638,0.365,2.011-1.037c-0.451-0.776-1.085-1.289-2.011-1.38
							c0,0.115,0,0.23,0,0.346C194.425,379.621,194.189,382.816,195.947,381.528z"/>
					</g>
					<g>
						<path style="fill:#421B36;" d="M127.819,379.933c0.028,1.241,0.354,2.201,1.505,2.671c1.265-0.482,2.86-0.714,2.365-2.442
							C129.884,378.344,129.98,378.095,127.819,379.933z"/>
					</g>
					<g>
						<path style="fill:#421B36;" d="M172.811,389.72c-0.636-1.879-0.718-3.505-3.139-2.813c-1.198,1.466-0.306,3.232,0.991,3.615
							c0.341,0.001,0.681,0.002,1.023,0.003C172.074,390.409,172.461,390.155,172.811,389.72z"/>
					</g>
					<g>
						<path style="fill:#421B36;" d="M106.786,381.399c0.499-1.824-1.711-3.671-3.176-2.487
							C101.829,380.745,105.126,383.028,106.786,381.399z"/>
					</g>
					<g>
						<path style="fill:#421B36;" d="M138.08,382.602c0.469-0.318,0.984-0.666,1.55-1.05
							C139.385,375.789,132.579,380.863,138.08,382.602z"/>
					</g>
					<g>
						<path style="fill:#421B36;" d="M110.882,376.992c0.003-0.006,0.003-0.011,0.006-0.017c-1.253-0.004-2.415-0.008-3.473-0.011
							C107.999,378.276,109.786,378.577,110.882,376.992z"/>
					</g>
					<g>
						<path style="fill:#421B36;" d="M144.206,377.906c0.005-0.305-0.02-0.587-0.057-0.858c-1.247-0.002-2.48-0.003-3.688-0.005
							c-0.004,0.051-0.014,0.092-0.018,0.145C141.343,377.775,141.343,377.775,144.206,377.906z"/>
					</g>
					<g>
						<path style="fill:#421B36;" d="M165.307,385.882c1.2,0.908,2.254,0.703,3.257-0.157
							C169.212,381.591,164.646,382.435,165.307,385.882z"/>
					</g>
					<g>
						<path style="fill:#421B36;" d="M122.522,387.593c-2.519-0.528-3.756,0.911-2.711,2.225c0.952,0.033,1.945,0.064,2.977,0.094
							C123.201,389.207,123.192,388.271,122.522,387.593z"/>
					</g>
					<g>
						<path style="fill:#421B36;" d="M155.902,387.852c-1.12-1.688-2.594-0.017-3.426,1.023c0.368,0.806,0.983,1.319,1.611,1.551
							c0.478,0.004,0.962,0.008,1.445,0.012C156.236,390.121,156.584,389.25,155.902,387.852z"/>
					</g>
					<g>
						<path style="fill:#421B36;" d="M143.393,385.907c0.091-0.458,0.191-0.947,0.284-1.411c-0.358-0.503-0.684-0.96-1.047-1.467
							c-0.891,0.044-1.829-0.211-2.583,0.332c0.166,0.703,0.306,1.305,0.483,2.063C141.515,386.03,142.361,386.996,143.393,385.907z
							"/>
					</g>
					<g>
						<path style="fill:#421B36;" d="M160.271,383.195c-0.633-0.283-1.239-0.182-1.956-0.292c-0.985,1.521-2.12,2.433-0.349,3.828
							c1.043,0.039,1.043,0.039,2.133-0.518c-0.383-0.37-0.649-0.628-0.971-0.94C159.701,384.634,160.636,384.221,160.271,383.195z"
							/>
					</g>
					<g>
						<path style="fill:#421B36;" d="M148.284,388.765c-0.599-0.675-1.155-1.301-1.735-1.956c-1.653,0.488-2.542,2.252-1.296,3.528
							c0.326,0.004,0.657,0.008,0.987,0.011C147.087,390.185,147.997,390.086,148.284,388.765z"/>
					</g>
					<g>
						<path style="fill:#421B36;" d="M135.777,384.889c-0.634-0.735-0.898-1.852-2.199-2.026c-0.472,0.389-0.991,0.814-1.543,1.268
							c0.43,0.993,0.68,2.009,1.685,2.632C134.731,386.56,135.432,385.993,135.777,384.889z"/>
					</g>
					<g>
						<path style="fill:#421B36;" d="M110.11,383.015c-2.09-1.229-3.781,2.151-1.934,3.37
							C110.267,386.303,111.349,385.005,110.11,383.015z"/>
					</g>
					<g>
						<path style="fill:#421B36;" d="M114.762,380.651c-0.312-0.734-0.25-1.72-1.284-2.015c-2.486,0.269-2.626,3.339-0.284,3.958
							C113.972,382.189,114.471,381.523,114.762,380.651z"/>
					</g>
					<g>
						<path style="fill:#421B36;" d="M182.177,384.935c0.443,0.913,0.636,1.702,1.849,1.812c0.489-0.388,1.015-0.806,1.624-1.29
							c-0.03-1.696-1.471-1.97-2.879-2.341C181.921,383.685,181.567,384.084,182.177,384.935z"/>
					</g>
					<g>
						<path style="fill:#421B36;" d="M186.902,390.516c1.655,0.201,2.496-0.618,2.376-2.819
							C187.042,386.169,184.645,388.506,186.902,390.516z"/>
					</g>
					<g>
						<path style="fill:#421B36;" d="M134.303,378.524c0.224-0.539,0.539-1.014,0.788-1.49c-1.005-0.002-1.996-0.003-2.967-0.005
							c-0.003,0.062-0.014,0.109-0.016,0.174C132.566,377.962,133.236,378.4,134.303,378.524z"/>
					</g>
					<g>
						<path style="fill:#421B36;" d="M144.215,381.18c1.525,1.321,3.807,0.967,3.76-1.304c-0.6-0.458-1.166-0.891-1.717-1.312
							c-0.571,0.371-1.043,0.68-1.56,1.017C144.547,380.084,144.388,380.608,144.215,381.18z"/>
					</g>
					<g>
						<path style="fill:#421B36;" d="M125.86,378.457c0.874-0.189,1.295-0.789,1.371-1.438c-1.112-0.003-2.203-0.005-3.26-0.007
							C124.124,377.585,124.802,378.02,125.86,378.457z"/>
					</g>
					<g>
						<path style="fill:#421B36;" d="M180.494,387.607c-2.072-0.576-3.404,0.937-2.319,2.892c0.03,0.018,0.063,0.028,0.094,0.044
							c0.534,0.001,1.067,0.002,1.604,0.003C180.928,390.085,181.64,388.82,180.494,387.607z"/>
					</g>
					<g>
						<path style="fill:#421B36;" d="M103.966,387.538c0.528,0.67,1.088,1.109,1.68,1.27c0.178,0.049,0.411,0.097,0.686,0.144
							c0.035-0.198,0.055-0.407,0.041-0.639C105.747,387.283,104.844,387.507,103.966,387.538z"/>
					</g>
					<g>
						<path style="fill:#421B36;" d="M118.827,376.999c-1.088-0.003-2.135-0.006-3.141-0.009c0.17,0.392,0.444,0.755,0.793,1.105
							C117.54,378.285,118.285,377.829,118.827,376.999z"/>
					</g>
					<g>
						<path style="fill:#421B36;" d="M157.477,377.06c0.494,0.922,1.767,1.52,2.878,0.462c0.018-0.156,0.032-0.31,0.041-0.46
							C159.416,377.061,158.441,377.061,157.477,377.06z"/>
					</g>
					<g>
						<path style="fill:#421B36;" d="M100.465,378.01c0.167,0.062,0.344,0.107,0.539,0.111c0.747-0.125,1.1-0.606,1.165-1.176
							c-0.868-0.003-1.516-0.006-1.928-0.008C100.314,377.302,100.389,377.658,100.465,378.01z"/>
					</g>
					<g>
						<path style="fill:#421B36;" d="M164.764,389.322c-0.342-1.897-2.716-2.51-3.545-0.67c0.278,0.162,0.561,0.326,0.853,0.494
							c-0.081,0.325-0.149,0.595-0.23,0.915c0.092,0.172,0.2,0.31,0.318,0.422c0.603,0.003,1.207,0.007,1.816,0.01
							C164.339,390.227,164.639,389.826,164.764,389.322z"/>
					</g>
					<g>
						<path style="fill:#421B36;" d="M111.941,387.638c-0.707,0.702-0.556,1.263-0.201,1.818c0.85,0.052,1.78,0.101,2.779,0.149
							C114.81,388.327,113.656,386.407,111.941,387.638z"/>
					</g>
					<g>
						<path style="fill:#421B36;" d="M101.994,383.6c0.123,0.347,0.249,0.677,0.377,0.994
							C102.498,384.209,102.366,383.932,101.994,383.6z"/>
					</g>
					<g>
						<path style="fill:#421B36;" d="M148.869,385.97c1.323,1.475,2.317,0.412,3.32-0.826c-0.773-0.828-1.21-1.444-1.787-2.409
							C149.126,383.382,148.998,384.562,148.869,385.97z"/>
					</g>
					<g>
						<path style="fill:#421B36;" d="M193.331,377.043c-1.046,0.002-2.088,0.003-3.126,0.005c-0.003,0.057-0.01,0.111-0.009,0.169
							C190.815,378.774,192.729,378.255,193.331,377.043z"/>
					</g>
					<g>
						<path style="fill:#421B36;" d="M173.385,384.586c0.076,0.808,0.763,1.22,1.151,1.936c0.795-0.43,1.757-0.146,2.389-0.909
							c-0.143-0.58-0.278-1.125-0.429-1.742C174.501,383.17,174.501,383.17,173.385,384.586z"/>
					</g>
					<g>
						<path style="fill:#421B36;" d="M139.245,388.074c-0.639-0.315-1.185-0.583-1.748-0.86c-0.534,0.491-0.95,0.827-1.51,1.258
							c0.002,0.957,0.48,1.465,1.143,1.753c0.605,0.01,1.215,0.019,1.834,0.029C139.486,389.572,139.374,388.815,139.245,388.074z"
							/>
					</g>
					<g>
						<path style="fill:#421B36;" d="M124.486,383.273c-1.807,1.229,0.185,3.344,1.858,2.721
							C127.615,384.419,126.535,382.083,124.486,383.273z"/>
					</g>
					<g>
						<path style="fill:#421B36;" d="M121.735,382.304c1.012-0.485,1.262-1.411,1.627-2.321
							C120.18,377.385,118.477,380.408,121.735,382.304z"/>
					</g>
					<g>
						<path style="fill:#421B36;" d="M151.932,377.056c-1.002-0.001-1.992-0.002-2.974-0.003
							C149.822,378,151.41,378.176,151.932,377.056z"/>
					</g>
					<g>
						<path style="fill:#421B36;" d="M169.609,381.285c0.517,0.668,1.096,1.174,2.026,1.329c1.24-1.677,1.282-1.988,0.458-3.169
							C170.247,379.518,169.755,378.898,169.609,381.285z"/>
					</g>
					<g>
						<path style="fill:#421B36;" d="M168.125,377.063c-0.828,0-1.651,0-2.47,0C166.066,378.027,167.288,378.035,168.125,377.063z"
							/>
					</g>
					<g>
						<path style="fill:#421B36;" d="M185.098,377.054c-0.863,0.001-1.721,0.002-2.577,0.002
							C183.138,377.964,184.125,378.036,185.098,377.054z"/>
					</g>
					<g>
						<path style="fill:#421B36;" d="M176.648,377.06c-0.847,0-1.688,0.001-2.527,0.001c0.326,0.437,0.656,0.879,0.972,1.302
							C176.059,377.897,176.25,377.795,176.648,377.06z"/>
					</g>
					<g>
						<path style="fill:#421B36;" d="M117.276,383.459c-2.406,0.24-1.964,2.665,0.159,2.919
							C119.491,385.862,119.176,383.786,117.276,383.459z"/>
					</g>
					<g>
						<path style="fill:#421B36;" d="M131.383,389.489c-0.146-2.171-1.859-2.475-3.353-1.1c0.389,0.467,0.409,1.124,0.738,1.677
							c0.522,0.012,1.054,0.023,1.591,0.035C130.69,389.928,131.017,389.732,131.383,389.489z"/>
					</g>
					<g>
						<path style="fill:#421B36;" d="M152.898,381.343c1.215-0.151,1.775,0.999,2.725,0.424c0.197-0.554,0.379-1.074,0.566-1.605
							c-0.426-0.911-1.29-1.009-2.157-1.2C153.332,379.583,153.316,380.472,152.898,381.343z"/>
					</g>
					<g>
						<path style="fill:#421B36;" d="M190.174,385.235c0.704,0.77,1.683,0.646,2.593,0.863c0.281-0.514,0.52-0.947,0.837-1.529
							C192.845,382.478,190.685,383.601,190.174,385.235z"/>
					</g>
					<g>
						<path style="fill:#421B36;" d="M178.632,380.91c0.851,0.674,1.322,1.491,2.501,0.828c-0.572-1.081-0.735-2.251-1.755-3.201
							C178.583,379.241,177.286,380.021,178.632,380.91z"/>
					</g>
					<g>
						<path style="fill:#421B36;" d="M161.237,381.213c1.328,1.877,1.907,1.589,3.266-0.055
							C163.703,379.783,161.631,379.222,161.237,381.213z"/>
					</g>
					<g>
						<path style="fill:#421B36;" d="M188.473,381.548c1.698-1.593-0.173-2.841-1.984-2.011
							C185.815,380.94,187.294,381.857,188.473,381.548z"/>
					</g>
					<g>
						<path style="fill:#421B36;" d="M163.787,379.404c-0.12-0.588-0.369-0.343-0.78-0.315
							C163.082,379.603,163.379,379.46,163.787,379.404z"/>
					</g>
				</g>
				<g>
					<g>
						<path style="fill:#421B36;" d="M103.61,379.811c43.789-0.005,87.569-1.043,131.354-1.507
							c12.166-0.129,24.332-0.214,36.498-0.216c1.157,0,1.159-1.799,0-1.799c-43.789,0.006-87.569,1.043-131.354,1.508
							c-12.166,0.129-24.332,0.214-36.498,0.216C102.453,378.012,102.451,379.811,103.61,379.811L103.61,379.811z"/>
					</g>
				</g>
			</g>
			<g>
				<g>
					<path style="fill:#421B36;" d="M282.25,378.103c22.885-0.009,45.775-0.898,68.655-1.315c5.103-0.093,10.207-0.184,15.31-0.186
						c1.157-0.001,1.159-1.799,0-1.799c-22.885,0.01-45.775,0.898-68.655,1.315c-5.103,0.093-10.207,0.184-15.31,0.186
						C281.092,376.305,281.09,378.104,282.25,378.103L282.25,378.103z"/>
				</g>
			</g>
		</g>
		<g>
			<g>
				<path style="fill:#421B36;" d="M275.951,236.488c-9.104,4.624-17.483,12.114-19.101,22.682
					c-1.253,8.18,1.697,15.945,7.459,21.784c4.955,5.021,11.423,8.318,18.184,10.156c1.118,0.304,1.596-1.431,0.478-1.734
					c-9.794-2.663-20.097-9.042-23.451-19.16c-2.303-6.948-1.066-14.511,3.046-20.528c3.53-5.165,8.783-8.848,14.293-11.646
					C277.891,237.517,276.982,235.965,275.951,236.488L275.951,236.488z"/>
			</g>
		</g>
		<g>
			<g>
				<path style="fill:#421B36;" d="M326.254,279.195c11.968-5.464,23.936-10.929,35.905-16.393c1.052-0.48,0.139-2.031-0.908-1.553
					c-11.968,5.464-23.936,10.929-35.904,16.393C324.294,278.122,325.208,279.673,326.254,279.195L326.254,279.195z"/>
			</g>
		</g>
		<g>
			<path style="fill:#421B36;" d="M345.235,240.431c-13.224,8.716-26.853,16.949-40.841,24.672c-0.984,0.543-2.04,1.103-3.2,1.095
				c-1.188-0.008-2.254-0.609-3.245-1.189c-5.096-2.98-10.193-5.96-15.289-8.94l-8.376-5.222c0,0,20.593-19.532,44.273-20.35
				c23.68-0.818,26.678,9.272,26.678,9.272"/>
		</g>
		<g>
			<g>
				<path style="fill:#FFAE7A;" d="M277.398,262.232c0,0-9.404-8.305-34.948,0.03c-11.097,3.621-16.844,17.086-28.831,20.053
					l-8.657,0.483v18.991c0,0,10.264,8.643,17.61,5.272c7.346-3.37,13.062-11.161,13.062-11.161s-4.59,6.186,1.13,8.437
					c5.719,2.251,10.433-0.016,12.624-2.674c2.191-2.658,1.468-5.695,1.468-5.695s5.595-1.667,6.378-4.203
					c0.783-2.535-1.533-6.306-1.533-6.306s6.367-2.084,7.259-6.113c0.893-4.029,1.859-5.707-3.529-7.42
					c-5.389-1.712-7.924-2.495-7.924-2.495s5.411-2.525,12.098-1.952C270.291,268.053,277.997,267.86,277.398,262.232z"/>
			</g>
			<g>
				<g>
					<path style="fill:#421B36;" d="M251.432,297.732c-0.82-8.001-6.31-15.065-13.876-17.81c-1.09-0.395-1.559,1.342-0.478,1.734
						c6.75,2.449,11.823,8.927,12.555,16.076C249.751,298.872,251.551,298.884,251.432,297.732L251.432,297.732z"/>
				</g>
			</g>
			<g>
				<g>
					<path style="fill:#421B36;" d="M256.527,285.8c-3.1-5.583-7.885-10.173-13.603-13.02c-1.033-0.514-1.945,1.037-0.908,1.553
						c5.463,2.72,9.995,7.038,12.957,12.375C255.536,287.72,257.09,286.814,256.527,285.8L256.527,285.8z"/>
				</g>
			</g>
			<g>
				<g>
					<path style="fill:#421B36;" d="M252.002,268.593c-2.942-0.574-5.939-0.816-8.934-0.694c-1.153,0.047-1.159,1.846,0,1.799
						c2.835-0.116,5.67,0.086,8.456,0.63c0.476,0.093,0.971-0.135,1.106-0.628C252.752,269.258,252.481,268.687,252.002,268.593
						L252.002,268.593z"/>
				</g>
			</g>
			<g>
				<g>
					<path style="fill:#421B36;" d="M235.993,297.448c0.094-0.083,0.189-0.165,0.286-0.245c0.084-0.068,0.098-0.078,0.041-0.032
						c0.05-0.037,0.101-0.074,0.152-0.11c0.205-0.144,0.418-0.277,0.637-0.399c0.468-0.26,0.729-0.37,1.257-0.527
						c0.241-0.072,0.485-0.131,0.731-0.178c0.032-0.006,0.371-0.06,0.225-0.041c0.124-0.017,0.249-0.028,0.374-0.037
						c0.25-0.018,0.501-0.023,0.751-0.014c0.125,0.004,0.25,0.012,0.375,0.023c0.062,0.005,0.125,0.012,0.187,0.019
						c-0.083-0.013-0.07-0.011,0.041,0.006c0.463,0.07,0.99-0.116,1.106-0.628c0.098-0.428-0.131-1.031-0.628-1.106
						c-2.465-0.372-4.941,0.332-6.808,1.997c-0.363,0.323-0.33,0.942,0,1.272C235.081,297.808,235.629,297.772,235.993,297.448
						L235.993,297.448z"/>
				</g>
			</g>
			<g>
				<g>
					<path style="fill:#421B36;" d="M243.073,298.704c0.163-2.201-0.702-4.482-2.304-6.006c-1.604-1.525-3.898-2.312-6.099-2.042
						c-0.482,0.059-0.899,0.371-0.899,0.899c0,0.44,0.414,0.959,0.899,0.899c1.742-0.214,3.536,0.288,4.827,1.515
						c1.29,1.227,1.907,2.98,1.778,4.734c-0.036,0.485,0.439,0.899,0.899,0.899C242.69,299.603,243.037,299.19,243.073,298.704
						L243.073,298.704z"/>
				</g>
			</g>
			<g>
				<g>
					<path style="fill:#421B36;" d="M276.08,262.252c-0.621,0.545-1.347,1.09-2.088,1.396c-0.203,0.084-0.414,0.151-0.627,0.206
						c-0.227,0.059-0.353,0.081-0.513,0.094c-0.204,0.016-0.408,0.018-0.612,0.005c-0.159-0.01-0.282-0.028-0.51-0.089
						c-0.097-0.026-0.193-0.057-0.287-0.09c-0.12-0.042-0.041-0.007-0.152-0.068c-0.088-0.048-0.176-0.094-0.26-0.148
						c-0.094-0.06-0.147-0.103-0.178-0.131c-0.051-0.046-0.094-0.103-0.145-0.147c0.097,0.084,0.072,0.109,0.013-0.002
						c-0.028-0.053-0.056-0.108-0.085-0.16c-0.068-0.122,0.043,0.14-0.019-0.056c-0.043-0.136-0.083-0.27-0.114-0.409
						c-0.016-0.073-0.03-0.147-0.043-0.221c-0.007-0.038-0.012-0.076-0.018-0.114c0.013,0.084,0.01,0.1,0.003,0.006
						c-0.027-0.337-0.044-0.671-0.028-1.009c0.004-0.094,0.011-0.188,0.019-0.282c0.004-0.047,0.034-0.285,0.02-0.194
						c-0.014,0.092,0.026-0.139,0.034-0.183c0.017-0.084,0.035-0.168,0.057-0.251c0.02-0.079,0.042-0.158,0.067-0.236
						c0.012-0.038,0.095-0.254,0.046-0.138c-0.049,0.117,0.04-0.077,0.059-0.111c0.034-0.061,0.177-0.255,0.01-0.042
						c0.3-0.381,0.372-0.9,0-1.272c-0.312-0.312-0.97-0.384-1.272,0c-0.538,0.683-0.725,1.495-0.812,2.347
						c-0.082,0.806-0.038,1.676,0.196,2.455c0.286,0.953,0.918,1.592,1.832,1.981c1.031,0.439,2.204,0.474,3.279,0.171
						c1.295-0.365,2.403-1.159,3.402-2.035c0.365-0.32,0.328-0.944,0-1.272C276.989,261.89,276.446,261.931,276.08,262.252
						L276.08,262.252z"/>
				</g>
			</g>
		</g>
		<g>
			<g>
				<path style="fill:#FFAE7A;" d="M312.543,169.057c-15.791-18.575-46.392-13.396-55.256,9.316
					c-2.803,7.183-3.511,16.461-2.225,28.661c3.59,34.041,32.452,31.624,32.452,31.624l8.078,23.463l6.875,2.829l22.446-15.761
					l-7.606-25.878c0,0,3.548-28.969,0.06-44.871C316.592,174.904,314.855,171.777,312.543,169.057z"/>
			</g>
			<g>
				<path style="fill:#421B36;" d="M268.257,187.658c0.081,1.252,1.062,2.207,2.191,2.134c1.129-0.073,1.977-1.148,1.896-2.4
					c-0.081-1.252-1.062-2.207-2.191-2.134C269.024,185.332,268.176,186.406,268.257,187.658z"/>
			</g>
			<g>
				<path style="fill:#421B36;" d="M292.318,186.095c0.081,1.252,1.062,2.207,2.191,2.134c1.129-0.073,1.977-1.148,1.896-2.4
					c-0.081-1.252-1.062-2.207-2.191-2.134S292.236,184.843,292.318,186.095z"/>
			</g>
			<g>
				<g>
					<path style="fill:#421B36;" d="M301.479,172.384c-4.384-2.77-10.542-4.37-15.322-1.364c-0.972,0.612-0.337,2.062,0.769,1.825
						c4.797-1.031,9.339-1.926,14.001,0.483C301.551,173.65,302.076,172.761,301.479,172.384L301.479,172.384z"/>
				</g>
			</g>
			<g>
				<g>
					<path style="fill:#421B36;" d="M284.403,204.046c-2.606,2.65-5.041,4.067-8.809,2.76c-1.071-0.372-1.82,1.357-0.78,1.849
						c3.702,1.749,9.486,0.324,10.265-4.215C285.144,204.064,284.708,203.735,284.403,204.046L284.403,204.046z"/>
				</g>
			</g>
			<g>
				<g>
					<path style="fill:#421B36;" d="M302.687,232.565c-6.104,3.117-12.171,4.993-19.021,5.43c-1.116,0.071-1.139,1.746,0,1.754
						c7.04,0.047,13.888-2.321,19.119-7.057C302.856,232.628,302.766,232.525,302.687,232.565L302.687,232.565z"/>
				</g>
			</g>
			<g style="opacity:0.3;">
				<path style="fill:#421B36;" d="M287.938,197.345c0.121,1.856,3.124,3.172,6.709,2.939c3.585-0.233,6.393-1.927,6.272-3.783
					c-0.121-1.856-3.124-3.172-6.709-2.939C290.625,193.795,287.817,195.489,287.938,197.345z"/>
			</g>
			<g style="opacity:0.3;">
				<path style="fill:#421B36;" d="M255.985,199.421c0.121,1.856,3.124,3.172,6.709,2.939c3.585-0.233,6.393-1.926,6.272-3.783
					c-0.121-1.856-3.124-3.172-6.709-2.939C258.672,195.872,255.864,197.565,255.985,199.421z"/>
			</g>
			<g>
				<g>
					<path style="fill:#421B36;" d="M282.126,157.951c-3.992-8.261-16.323-9.969-23.594-5.454c-0.617,0.383-0.227,1.481,0.514,1.221
						c4.457-1.566,8.779-2.637,13.457-1.223c3.653,1.104,6.418,3.437,9.457,5.623C282.067,158.195,282.173,158.049,282.126,157.951
						L282.126,157.951z"/>
				</g>
			</g>
			<g>
				<g>
					<path style="fill:#421B36;" d="M265.669,142.073c8.59,0.854,15.689,6.747,17.771,15.133c0.276,1.111,1.997,0.64,1.717-0.473
						c-2.324-9.259-9.918-15.306-19.488-15.01C265.44,141.729,265.448,142.051,265.669,142.073L265.669,142.073z"/>
				</g>
			</g>
			<g>
				<g>
					<path style="fill:#421B36;" d="M265.061,174.721c1.594-1.033,4.327-1.954,6.242-1.782c4.941,0.445,6.26,5.742,6.274,9.796
						c0.019,5.379-1.794,10.284-3.782,15.185c-0.451,1.112,1.337,1.813,1.911,0.806c3.608-6.34,6.292-17.409,1.958-24.048
						c-3.04-4.657-9.537-4.904-13.11-0.613C264.27,174.406,264.634,174.998,265.061,174.721L265.061,174.721z"/>
				</g>
			</g>
		</g>
		<g>
			<path style="fill:#421B36;" d="M277.702,262.742c0,0,7.868,61.294,13.242,64.58c5.373,3.286,38.696-4.522,39.194-7.302
				c0.498-2.781-9.097-61.561-12.513-64.151C314.209,253.279,276.36,257.78,277.702,262.742z"/>
		</g>
		<g>
			<g>
				<path style="fill:#a855f7;" d="M279.198,260.609c7.923-1.573,15.359-4.09,23.514-4.609c3.799-0.242,13.427-1.54,15.468,2.456
					c2.191,4.29,2.053,11.654,2.884,16.367c2.024,11.489,4.272,23.842,6.237,34.893c0.266,1.497,2.548,0.863,2.283-0.629
					c-2.364-13.298-4.926-27.96-7.393-41.714c-0.571-3.184-0.431-9.98-3.132-12.435c-3.806-3.459-14.412-1.464-18.898-0.992
					c-7.244,0.762-14.943,2.179-21.29,5.886C278.439,260.084,278.737,260.701,279.198,260.609L279.198,260.609z"/>
			</g>
		</g>
		<g>
			<g>
				<path style="fill:#FFAE7A;" d="M348.05,307.951c0,0-10.632-25.361-12.303-30.34s-29.913-13.372-32.004-9.49
					c-2.092,3.882,3.071,6.56,5.675,7.526c2.604,0.966,14.594,5.404,14.594,5.404s-18.59,6.17-21.13,8.559
					c-2.539,2.388,0.711,6.506,4.814,5.948c0,0-5.873,3.681-0.472,7.273c2.477,1.648,18.306-4.042,18.306-4.042
					s-14.387,10.412-13.987,13.189s0.711,6.506,5.452,2.845s14.019-11.562,14.019-11.562s-3.493,18.038,0.162,23.856
					c3.655,5.818,8.824,5.407,15.942,4.338l21.023,24.183l11.404-23.947L348.05,307.951z"/>
			</g>
			<g>
				<g>
					<path style="fill:#421B36;" d="M331.641,285.906c-8.228,2.869-16.512,5.479-24.493,9.008c-1.056,0.467-0.142,2.017,0.908,1.553
						c7.837-3.465,15.984-6.009,24.063-8.827C333.206,287.261,332.738,285.523,331.641,285.906L331.641,285.906z"/>
				</g>
			</g>
			<g>
				<g>
					<path style="fill:#421B36;" d="M303.672,294.335c1.929-0.328,3.896-0.798,5.381-2.157c1.471-1.346,2.1-3.546,1.121-5.361
						c-0.23-0.427-0.822-0.562-1.23-0.323c-0.432,0.253-0.554,0.801-0.323,1.23c0.127,0.236,0.221,0.582,0.233,0.817
						c0.021,0.423-0.009,0.602-0.132,0.991c-0.063,0.199-0.066,0.213-0.183,0.429c-0.085,0.156-0.18,0.307-0.287,0.449
						c-0.036,0.049-0.038,0.052-0.007,0.008c-0.021,0.025-0.041,0.049-0.062,0.074c-0.065,0.071-0.128,0.144-0.195,0.213
						c-0.135,0.138-0.277,0.268-0.427,0.39c0.101-0.082-0.132,0.097-0.127,0.093c-0.066,0.047-0.133,0.092-0.201,0.136
						c-0.15,0.097-0.304,0.187-0.461,0.271c-0.37,0.197-0.636,0.303-1.048,0.437c-0.824,0.268-1.678,0.424-2.531,0.569
						c-0.479,0.081-0.748,0.672-0.628,1.106C302.705,294.214,303.191,294.416,303.672,294.335L303.672,294.335z"/>
				</g>
			</g>
			<g>
				<g>
					<path style="fill:#421B36;" d="M306.924,303.341c1.792-0.629,3.649-1.618,4.591-3.35c0.892-1.642,0.862-3.797-0.471-5.194
						c-0.8-0.84-2.071,0.434-1.272,1.272c0.382,0.401,0.556,0.926,0.562,1.494c0.006,0.604-0.151,1.17-0.472,1.694
						c-0.732,1.196-2.12,1.896-3.416,2.351c-0.458,0.161-0.763,0.615-0.628,1.106C305.94,303.157,306.464,303.503,306.924,303.341
						L306.924,303.341z"/>
				</g>
			</g>
			<g>
				<g>
					<path style="fill:#421B36;" d="M312.91,315.662c1.493-0.121,2.917-1.005,3.534-2.402c0.669-1.515,0.387-3.24-0.682-4.494
						c-0.306-0.359-0.961-0.339-1.272,0c-0.351,0.382-0.327,0.889,0,1.272c0.165,0.193-0.043-0.079,0.037,0.042
						c0.037,0.057,0.078,0.111,0.114,0.169c0.072,0.116,0.131,0.237,0.193,0.358c-0.082-0.161,0.023,0.065,0.031,0.088
						c0.018,0.051,0.034,0.103,0.05,0.155c0.038,0.131,0.063,0.264,0.091,0.398c-0.04-0.192,0.004,0.056,0.006,0.085
						c0.004,0.054,0.006,0.109,0.007,0.163c0.003,0.137-0.008,0.271-0.017,0.407c0.013-0.196-0.012,0.054-0.018,0.083
						c-0.011,0.053-0.024,0.106-0.037,0.159c-0.021,0.079-0.047,0.156-0.072,0.234c-0.049,0.159,0.029-0.04-0.015,0.045
						c-0.059,0.116-0.116,0.232-0.185,0.343c-0.034,0.055-0.071,0.108-0.108,0.162c-0.093,0.136,0.044-0.037-0.027,0.033
						c-0.093,0.091-0.174,0.193-0.269,0.282c-0.048,0.044-0.097,0.086-0.146,0.129c0.095-0.083,0.025-0.017-0.035,0.025
						c-0.107,0.075-0.217,0.143-0.332,0.205c-0.057,0.031-0.116,0.059-0.174,0.088c-0.149,0.075,0.061-0.013-0.037,0.015
						c-0.125,0.035-0.245,0.083-0.373,0.113c-0.063,0.015-0.127,0.026-0.191,0.039c0.158-0.032,0.003-0.001-0.071,0.005
						c-0.468,0.038-0.922,0.387-0.899,0.899C312.031,315.217,312.408,315.702,312.91,315.662L312.91,315.662z"/>
				</g>
			</g>
			<g>
				<g>
					<path style="fill:#421B36;" d="M303.735,272.744c1.884,0.358,3.945,0.414,5.666-0.564c1.47-0.835,2.573-2.413,2.521-4.144
						c-0.014-0.486-0.403-0.899-0.899-0.899c-0.476,0-0.914,0.412-0.899,0.899c0.017,0.558-0.119,1.009-0.448,1.513
						c-0.305,0.466-0.745,0.844-1.273,1.128c-1.248,0.671-2.826,0.591-4.189,0.332c-0.477-0.09-0.97,0.133-1.106,0.628
						C302.986,272.077,303.255,272.653,303.735,272.744L303.735,272.744z"/>
				</g>
			</g>
		</g>
		<g>
			<path style="fill:#FFBC42;" d="M364.459,313.967c-1.532,1.518-13.593,25.966-12.048,31.49
				c1.545,5.523,35.813,42.686,42.874,41.002c7.061-1.684,15.619-48.369,7.911-54.448
				C395.487,325.933,364.459,313.967,364.459,313.967z"/>
		</g>
		<g>
			<g>
				<path style="fill:#421B36;" d="M362.978,315.095c20.052,6.859,39.44,15.891,57.897,26.279c1.01,0.568,1.918-0.985,0.908-1.553
					c-18.59-10.462-38.13-19.552-58.327-26.46C362.358,312.986,361.887,314.722,362.978,315.095L362.978,315.095z"/>
			</g>
		</g>
		<g>
			<g>
				<path style="fill:#421B36;" d="M403.704,332.057c3.983-2.627,8.568-4.235,13.33-4.608c1.146-0.09,1.156-1.889,0-1.799
					c-5.076,0.398-9.983,2.048-14.237,4.854C401.835,331.139,402.734,332.697,403.704,332.057L403.704,332.057z"/>
			</g>
		</g>
		<g>
			<g>
				<path style="fill:#421B36;" d="M360.312,306.908c3.698-10.892,7.519-20.144,14.155-29.612c0.525-0.749-0.665-1.67-1.271-0.981
					c-7.085,8.051-12.871,19.681-13.659,30.488C359.503,307.267,360.175,307.309,360.312,306.908L360.312,306.908z"/>
			</g>
		</g>
		<g>
			<path style="fill:#421B36;" d="M318.977,164.507c-8.091-6.865-19.089-10.121-29.638-8.972c-1.629,0.177-8.061,0.029-8.323,1.647
				c3.743,10.124,15.949,20.595,26.083,24.311c0.823,0.302,1.721,0.623,2.191,1.364c0.526,0.828,0.346,1.9,0.18,2.868
				c-2.089,12.226-0.25,25.44,7.963,34.734c8.212-6.721,14.921-17.453,14.79-28.063C332.09,181.785,327.068,171.373,318.977,164.507
				z"/>
		</g>
		<g>
			<path style="fill:#FFAE7A;" d="M324.461,191.006c1.855-1.081,4.307-0.809,6.109,0.358s3.005,3.103,3.654,5.149
				c1.079,3.402,0.658,7.376-1.578,10.159c-2.236,2.782-6.395,4.031-9.604,2.469"/>
		</g>
		<g>
			<g>
				<path style="fill:#421B36;" d="M333.64,204.187c-0.348-0.661-0.496-1.242-1.158-1.678c-0.605-0.399-1.403-0.606-2.121-0.621
					c-1.52-0.032-3.05,0.747-3.866,2.033c-0.559,0.882,0.704,1.827,1.43,1.103c0.758-0.755,1.496-1.326,2.615-1.363
					c0.801-0.026,2.207,0.27,2.869,0.757C333.555,204.525,333.711,204.323,333.64,204.187L333.64,204.187z"/>
			</g>
		</g>
		<g>
			<g>
				<path style="fill:#a855f7;" d="M311.824,159.927c4.435,1.825,8.39,5.048,11.118,8.985c0.933,1.347,3.156,0.002,2.184-1.277
					c-3.379-4.443-7.615-7.342-12.996-8.82C311.395,158.613,311.158,159.653,311.824,159.927L311.824,159.927z"/>
			</g>
		</g>
		<g>
			<g>
				<path style="fill:#421B36;" d="M207.874,309.162c-1.691-4.589-2.456-9.535-2.707-14.404c-0.246-4.791-0.071-9.842,1.647-14.375
					c0.411-1.083-1.328-1.552-1.734-0.478c-1.768,4.665-1.965,9.923-1.712,14.854c0.258,5.021,1.027,10.149,2.771,14.882
					C206.537,310.717,208.276,310.252,207.874,309.162L207.874,309.162z"/>
			</g>
		</g>
		<g>
			<g>
				<path style="fill:#421B36;" d="M155.778,270.333c10.623,0.642,21.219,1.7,31.754,3.213c5.003,0.719,10.012,1.493,14.975,2.455
					c3.808,0.738,8.198,1.875,9.937,5.728c0.475,1.053,2.026,0.14,1.553-0.908c-1.594-3.533-5.242-5.167-8.806-6.07
					c-5.153-1.305-10.542-1.964-15.796-2.738c-11.15-1.643-22.366-2.799-33.616-3.479
					C154.622,268.464,154.626,270.263,155.778,270.333L155.778,270.333z"/>
			</g>
		</g>
		<g>
			<g>
				<path style="fill:#421B36;" d="M163.507,266.268c1.873,1.683,3.747,3.366,5.62,5.049c0.35,0.314,0.931,0.371,1.272,0
					c0.315-0.343,0.374-0.936,0-1.272c-1.873-1.683-3.747-3.366-5.62-5.049c-0.35-0.314-0.931-0.371-1.272,0
					C163.192,265.34,163.133,265.933,163.507,266.268L163.507,266.268z"/>
			</g>
		</g>
		<g>
			<g>
				<path style="fill:#421B36;" d="M357.103,165.122c5.819,11.787,11.749,23.522,23.349,30.601c5.824,3.554,12.424,5.67,18.17,9.358
					c8.225,5.28,15.852,16.448,6.988,25.039c-1.027,0.995,0.482,2.431,1.545,1.545c10.901-9.088,2.514-23.117-7.011-29.188
					c-8.271-5.271-17.743-7.74-25.149-14.458c-7.147-6.484-12.535-14.932-17.578-23.082
					C357.293,164.737,357,164.913,357.103,165.122L357.103,165.122z"/>
			</g>
		</g>
		<g>
			<path style="fill:#FFFFFF;" d="M301.839,277.335c-1.964,1.134-4.457,0.491-5.569-1.435c-1.112-1.926-0.422-4.407,1.541-5.54
				c1.964-1.134,4.457-0.491,5.569,1.435C304.493,273.721,303.803,276.202,301.839,277.335z"/>
		</g>
		<g>
			<g>
				<path style="fill:#a855f7;" d="M372.583,280.211c13.188,12.248,29.01,21.221,41.802,34.082
					c12.225,12.291,21.465,26.505,27.232,42.854c0.305,0.864,1.61,0.526,1.385-0.382c-3.936-15.931-13.387-29.863-24.539-41.659
					c-12.729-13.465-28.902-26.999-45.488-35.403C372.662,279.543,372.301,279.948,372.583,280.211L372.583,280.211z"/>
			</g>
		</g>
		<g>
			<g>
				<path style="fill:#a855f7;" d="M203.818,281.179c-11.121-4.194-24.341-4.787-36.118-5.751
					c-13.023-1.066-26.095-1.475-39.15-1.931c-1.782-0.062-1.753,2.634,0,2.752c12.577,0.844,25.178,1.23,37.758,2.024
					c12.514,0.79,24.878,3.439,37.343,4.139C204.403,282.454,204.44,281.414,203.818,281.179L203.818,281.179z"/>
			</g>
		</g>
		<g>
			<g>
				<path style="fill:#a855f7;" d="M165.749,264.632c28.642-1.491,57.467-2.862,86.015-5.708c1.503-0.15,1.515-2.524,0-2.367
					c-28.628,2.959-57.704,2.659-86.165,6.963C164.967,263.614,165.116,264.664,165.749,264.632L165.749,264.632z"/>
			</g>
		</g>
		<g>
			<g>
				<path style="fill:#a855f7;" d="M355.253,266.892c2.818,2.77,6.635,4.473,9.642,7.091c3.068,2.672,5.623,5.944,8.746,8.523
					c0.82,0.677,2.334-0.22,1.605-1.238c-4.123-5.756-12.293-13.901-19.619-15.018C355.273,266.196,354.955,266.599,355.253,266.892
					L355.253,266.892z"/>
			</g>
		</g>
		<g>
			<g>
				<path style="fill:#a855f7;" d="M319.621,163.944c0.635-5.054-0.21-9.825-3.085-14.103c-1.412-2.101-4.511-6.355-7.617-5.041
					c-6.74,2.85,5.549,17.739,9.858,18.313c4.451,0.593,10.075-4.96,13.216-7.513c1.984-1.613,7.084-4.92,5.022-8.228
					c-2.016-3.233-6.938-0.72-9.337,0.537c-4.987,2.614-8.758,6.766-11.308,11.739c-0.961,1.874,1.867,3.534,2.831,1.655
					c2.43-4.739,5.992-8.644,10.831-11.006c5.364-2.619,2.534,0.846,0.556,2.551c-2.185,1.884-4.661,4.316-7.309,5.566
					c-4.859,2.293-7.112,0.067-9.884-3.647c-0.898-1.204-5.605-6.094-0.668-5.981c1.734,0.04,4.205,6.254,4.65,7.573
					c0.829,2.455,1.157,5.002,1.087,7.585C318.447,164.706,319.531,164.658,319.621,163.944L319.621,163.944z"/>
			</g>
		</g>
		<g>
			<g>
				<path style="fill:#421B36;" d="M361.42,262.141c4.569,2.16,9.025,4.577,13.377,7.143c4.078,2.405,8.368,4.904,11.793,8.214
					c0.833,0.805,2.106-0.466,1.272-1.272c-3.448-3.333-7.737-5.874-11.837-8.306c-4.452-2.64-9.017-5.119-13.697-7.332
					C361.287,260.095,360.374,261.646,361.42,262.141L361.42,262.141z"/>
			</g>
		</g>
	</g>
</g>
</svg>
